G75*
%MOIN*%
%OFA0B0*%
%FSLAX25Y25*%
%IPPOS*%
%LPD*%
%AMOC8*
5,1,8,0,0,1.08239X$1,22.5*
%
%ADD10C,0.00000*%
%ADD11C,0.00600*%
%ADD12C,0.01000*%
%ADD13C,0.00500*%
%ADD14R,0.02000X0.10000*%
%ADD15C,0.00400*%
%ADD16R,0.03400X0.02400*%
%ADD17C,0.00700*%
%ADD18C,0.01600*%
%ADD19C,0.00800*%
D10*
X0006800Y0006800D02*
X0006800Y0203650D01*
X0203650Y0203650D01*
X0203650Y0006800D01*
X0006800Y0006800D01*
D11*
X0035300Y0047300D02*
X0036800Y0047300D01*
X0037300Y0047800D01*
X0056300Y0047800D01*
X0056800Y0047300D01*
X0058300Y0047300D01*
X0058360Y0047302D01*
X0058421Y0047307D01*
X0058480Y0047316D01*
X0058539Y0047329D01*
X0058598Y0047345D01*
X0058655Y0047365D01*
X0058710Y0047388D01*
X0058765Y0047415D01*
X0058817Y0047444D01*
X0058868Y0047477D01*
X0058917Y0047513D01*
X0058963Y0047551D01*
X0059007Y0047593D01*
X0059049Y0047637D01*
X0059087Y0047683D01*
X0059123Y0047732D01*
X0059156Y0047783D01*
X0059185Y0047835D01*
X0059212Y0047890D01*
X0059235Y0047945D01*
X0059255Y0048002D01*
X0059271Y0048061D01*
X0059284Y0048120D01*
X0059293Y0048179D01*
X0059298Y0048240D01*
X0059300Y0048300D01*
X0059300Y0055300D01*
X0059298Y0055360D01*
X0059293Y0055421D01*
X0059284Y0055480D01*
X0059271Y0055539D01*
X0059255Y0055598D01*
X0059235Y0055655D01*
X0059212Y0055710D01*
X0059185Y0055765D01*
X0059156Y0055817D01*
X0059123Y0055868D01*
X0059087Y0055917D01*
X0059049Y0055963D01*
X0059007Y0056007D01*
X0058963Y0056049D01*
X0058917Y0056087D01*
X0058868Y0056123D01*
X0058817Y0056156D01*
X0058765Y0056185D01*
X0058710Y0056212D01*
X0058655Y0056235D01*
X0058598Y0056255D01*
X0058539Y0056271D01*
X0058480Y0056284D01*
X0058421Y0056293D01*
X0058360Y0056298D01*
X0058300Y0056300D01*
X0056800Y0056300D01*
X0056300Y0055800D01*
X0037300Y0055800D01*
X0036800Y0056300D01*
X0035300Y0056300D01*
X0035240Y0056298D01*
X0035179Y0056293D01*
X0035120Y0056284D01*
X0035061Y0056271D01*
X0035002Y0056255D01*
X0034945Y0056235D01*
X0034890Y0056212D01*
X0034835Y0056185D01*
X0034783Y0056156D01*
X0034732Y0056123D01*
X0034683Y0056087D01*
X0034637Y0056049D01*
X0034593Y0056007D01*
X0034551Y0055963D01*
X0034513Y0055917D01*
X0034477Y0055868D01*
X0034444Y0055817D01*
X0034415Y0055765D01*
X0034388Y0055710D01*
X0034365Y0055655D01*
X0034345Y0055598D01*
X0034329Y0055539D01*
X0034316Y0055480D01*
X0034307Y0055421D01*
X0034302Y0055360D01*
X0034300Y0055300D01*
X0034300Y0048300D01*
X0034302Y0048240D01*
X0034307Y0048179D01*
X0034316Y0048120D01*
X0034329Y0048061D01*
X0034345Y0048002D01*
X0034365Y0047945D01*
X0034388Y0047890D01*
X0034415Y0047835D01*
X0034444Y0047783D01*
X0034477Y0047732D01*
X0034513Y0047683D01*
X0034551Y0047637D01*
X0034593Y0047593D01*
X0034637Y0047551D01*
X0034683Y0047513D01*
X0034732Y0047477D01*
X0034783Y0047444D01*
X0034835Y0047415D01*
X0034890Y0047388D01*
X0034945Y0047365D01*
X0035002Y0047345D01*
X0035061Y0047329D01*
X0035120Y0047316D01*
X0035179Y0047307D01*
X0035240Y0047302D01*
X0035300Y0047300D01*
X0046682Y0070287D02*
X0046591Y0070412D01*
X0046497Y0070534D01*
X0046399Y0070653D01*
X0046299Y0070770D01*
X0046195Y0070884D01*
X0046089Y0070996D01*
X0045980Y0071104D01*
X0045868Y0071210D01*
X0045753Y0071313D01*
X0045636Y0071413D01*
X0045516Y0071511D01*
X0045394Y0071604D01*
X0045270Y0071695D01*
X0045143Y0071783D01*
X0045014Y0071867D01*
X0044882Y0071948D01*
X0044749Y0072025D01*
X0044614Y0072099D01*
X0044477Y0072170D01*
X0044338Y0072237D01*
X0044198Y0072300D01*
X0044055Y0072360D01*
X0043912Y0072416D01*
X0043767Y0072468D01*
X0043621Y0072517D01*
X0043473Y0072562D01*
X0043325Y0072603D01*
X0043175Y0072640D01*
X0043025Y0072674D01*
X0042873Y0072703D01*
X0042721Y0072729D01*
X0042569Y0072751D01*
X0042416Y0072768D01*
X0042262Y0072782D01*
X0042108Y0072792D01*
X0041954Y0072798D01*
X0041800Y0072800D01*
X0037064Y0063117D02*
X0037158Y0062998D01*
X0037256Y0062882D01*
X0037356Y0062768D01*
X0037460Y0062657D01*
X0037566Y0062549D01*
X0037674Y0062443D01*
X0037786Y0062341D01*
X0037900Y0062241D01*
X0038016Y0062143D01*
X0038135Y0062049D01*
X0038256Y0061958D01*
X0038380Y0061870D01*
X0038506Y0061785D01*
X0038633Y0061704D01*
X0038763Y0061625D01*
X0038895Y0061550D01*
X0039028Y0061479D01*
X0039164Y0061410D01*
X0039301Y0061345D01*
X0039439Y0061284D01*
X0039580Y0061226D01*
X0039721Y0061172D01*
X0039864Y0061121D01*
X0040008Y0061074D01*
X0040153Y0061030D01*
X0040300Y0060991D01*
X0040447Y0060955D01*
X0040595Y0060922D01*
X0040744Y0060894D01*
X0040894Y0060869D01*
X0041044Y0060848D01*
X0041194Y0060831D01*
X0041346Y0060817D01*
X0041497Y0060808D01*
X0041648Y0060802D01*
X0041800Y0060800D01*
X0037000Y0070400D02*
X0037092Y0070519D01*
X0037186Y0070636D01*
X0037284Y0070750D01*
X0037384Y0070862D01*
X0037488Y0070972D01*
X0037593Y0071078D01*
X0037702Y0071183D01*
X0037813Y0071284D01*
X0037927Y0071382D01*
X0038043Y0071478D01*
X0038161Y0071571D01*
X0038282Y0071660D01*
X0038405Y0071747D01*
X0038530Y0071830D01*
X0038657Y0071911D01*
X0038786Y0071988D01*
X0038917Y0072062D01*
X0039050Y0072133D01*
X0039184Y0072200D01*
X0039320Y0072264D01*
X0039458Y0072324D01*
X0039597Y0072381D01*
X0039738Y0072434D01*
X0039880Y0072484D01*
X0040023Y0072531D01*
X0040167Y0072573D01*
X0040312Y0072613D01*
X0040458Y0072648D01*
X0040605Y0072680D01*
X0040753Y0072708D01*
X0040901Y0072732D01*
X0041050Y0072753D01*
X0041200Y0072770D01*
X0041349Y0072783D01*
X0041499Y0072792D01*
X0041650Y0072798D01*
X0041800Y0072800D01*
X0046536Y0063117D02*
X0046442Y0062998D01*
X0046344Y0062882D01*
X0046244Y0062768D01*
X0046140Y0062657D01*
X0046034Y0062549D01*
X0045926Y0062443D01*
X0045814Y0062341D01*
X0045700Y0062241D01*
X0045584Y0062143D01*
X0045465Y0062049D01*
X0045344Y0061958D01*
X0045220Y0061870D01*
X0045094Y0061785D01*
X0044967Y0061704D01*
X0044837Y0061625D01*
X0044705Y0061550D01*
X0044572Y0061479D01*
X0044436Y0061410D01*
X0044299Y0061345D01*
X0044161Y0061284D01*
X0044020Y0061226D01*
X0043879Y0061172D01*
X0043736Y0061121D01*
X0043592Y0061074D01*
X0043447Y0061030D01*
X0043300Y0060991D01*
X0043153Y0060955D01*
X0043005Y0060922D01*
X0042856Y0060894D01*
X0042706Y0060869D01*
X0042556Y0060848D01*
X0042406Y0060831D01*
X0042254Y0060817D01*
X0042103Y0060808D01*
X0041952Y0060802D01*
X0041800Y0060800D01*
X0036800Y0077300D02*
X0035300Y0077300D01*
X0035240Y0077302D01*
X0035179Y0077307D01*
X0035120Y0077316D01*
X0035061Y0077329D01*
X0035002Y0077345D01*
X0034945Y0077365D01*
X0034890Y0077388D01*
X0034835Y0077415D01*
X0034783Y0077444D01*
X0034732Y0077477D01*
X0034683Y0077513D01*
X0034637Y0077551D01*
X0034593Y0077593D01*
X0034551Y0077637D01*
X0034513Y0077683D01*
X0034477Y0077732D01*
X0034444Y0077783D01*
X0034415Y0077835D01*
X0034388Y0077890D01*
X0034365Y0077945D01*
X0034345Y0078002D01*
X0034329Y0078061D01*
X0034316Y0078120D01*
X0034307Y0078179D01*
X0034302Y0078240D01*
X0034300Y0078300D01*
X0034300Y0085300D01*
X0034302Y0085360D01*
X0034307Y0085421D01*
X0034316Y0085480D01*
X0034329Y0085539D01*
X0034345Y0085598D01*
X0034365Y0085655D01*
X0034388Y0085710D01*
X0034415Y0085765D01*
X0034444Y0085817D01*
X0034477Y0085868D01*
X0034513Y0085917D01*
X0034551Y0085963D01*
X0034593Y0086007D01*
X0034637Y0086049D01*
X0034683Y0086087D01*
X0034732Y0086123D01*
X0034783Y0086156D01*
X0034835Y0086185D01*
X0034890Y0086212D01*
X0034945Y0086235D01*
X0035002Y0086255D01*
X0035061Y0086271D01*
X0035120Y0086284D01*
X0035179Y0086293D01*
X0035240Y0086298D01*
X0035300Y0086300D01*
X0036800Y0086300D01*
X0037300Y0085800D01*
X0056300Y0085800D01*
X0056800Y0086300D01*
X0058300Y0086300D01*
X0058360Y0086298D01*
X0058421Y0086293D01*
X0058480Y0086284D01*
X0058539Y0086271D01*
X0058598Y0086255D01*
X0058655Y0086235D01*
X0058710Y0086212D01*
X0058765Y0086185D01*
X0058817Y0086156D01*
X0058868Y0086123D01*
X0058917Y0086087D01*
X0058963Y0086049D01*
X0059007Y0086007D01*
X0059049Y0085963D01*
X0059087Y0085917D01*
X0059123Y0085868D01*
X0059156Y0085817D01*
X0059185Y0085765D01*
X0059212Y0085710D01*
X0059235Y0085655D01*
X0059255Y0085598D01*
X0059271Y0085539D01*
X0059284Y0085480D01*
X0059293Y0085421D01*
X0059298Y0085360D01*
X0059300Y0085300D01*
X0059300Y0078300D01*
X0059298Y0078240D01*
X0059293Y0078179D01*
X0059284Y0078120D01*
X0059271Y0078061D01*
X0059255Y0078002D01*
X0059235Y0077945D01*
X0059212Y0077890D01*
X0059185Y0077835D01*
X0059156Y0077783D01*
X0059123Y0077732D01*
X0059087Y0077683D01*
X0059049Y0077637D01*
X0059007Y0077593D01*
X0058963Y0077551D01*
X0058917Y0077513D01*
X0058868Y0077477D01*
X0058817Y0077444D01*
X0058765Y0077415D01*
X0058710Y0077388D01*
X0058655Y0077365D01*
X0058598Y0077345D01*
X0058539Y0077329D01*
X0058480Y0077316D01*
X0058421Y0077307D01*
X0058360Y0077302D01*
X0058300Y0077300D01*
X0056800Y0077300D01*
X0056300Y0077800D01*
X0037300Y0077800D01*
X0036800Y0077300D01*
X0091800Y0036800D02*
X0091800Y0176300D01*
X0091800Y0176800D02*
X0096800Y0176800D01*
X0096802Y0176660D01*
X0096808Y0176520D01*
X0096818Y0176380D01*
X0096831Y0176240D01*
X0096849Y0176101D01*
X0096871Y0175962D01*
X0096896Y0175825D01*
X0096925Y0175687D01*
X0096958Y0175551D01*
X0096995Y0175416D01*
X0097036Y0175282D01*
X0097081Y0175149D01*
X0097129Y0175017D01*
X0097181Y0174887D01*
X0097236Y0174758D01*
X0097295Y0174631D01*
X0097358Y0174505D01*
X0097424Y0174381D01*
X0097493Y0174260D01*
X0097566Y0174140D01*
X0097643Y0174022D01*
X0097722Y0173907D01*
X0097805Y0173793D01*
X0097891Y0173683D01*
X0097980Y0173574D01*
X0098072Y0173468D01*
X0098167Y0173365D01*
X0098264Y0173264D01*
X0098365Y0173167D01*
X0098468Y0173072D01*
X0098574Y0172980D01*
X0098683Y0172891D01*
X0098793Y0172805D01*
X0098907Y0172722D01*
X0099022Y0172643D01*
X0099140Y0172566D01*
X0099260Y0172493D01*
X0099381Y0172424D01*
X0099505Y0172358D01*
X0099631Y0172295D01*
X0099758Y0172236D01*
X0099887Y0172181D01*
X0100017Y0172129D01*
X0100149Y0172081D01*
X0100282Y0172036D01*
X0100416Y0171995D01*
X0100551Y0171958D01*
X0100687Y0171925D01*
X0100825Y0171896D01*
X0100962Y0171871D01*
X0101101Y0171849D01*
X0101240Y0171831D01*
X0101380Y0171818D01*
X0101520Y0171808D01*
X0101660Y0171802D01*
X0101800Y0171800D01*
X0101940Y0171802D01*
X0102080Y0171808D01*
X0102220Y0171818D01*
X0102360Y0171831D01*
X0102499Y0171849D01*
X0102638Y0171871D01*
X0102775Y0171896D01*
X0102913Y0171925D01*
X0103049Y0171958D01*
X0103184Y0171995D01*
X0103318Y0172036D01*
X0103451Y0172081D01*
X0103583Y0172129D01*
X0103713Y0172181D01*
X0103842Y0172236D01*
X0103969Y0172295D01*
X0104095Y0172358D01*
X0104219Y0172424D01*
X0104340Y0172493D01*
X0104460Y0172566D01*
X0104578Y0172643D01*
X0104693Y0172722D01*
X0104807Y0172805D01*
X0104917Y0172891D01*
X0105026Y0172980D01*
X0105132Y0173072D01*
X0105235Y0173167D01*
X0105336Y0173264D01*
X0105433Y0173365D01*
X0105528Y0173468D01*
X0105620Y0173574D01*
X0105709Y0173683D01*
X0105795Y0173793D01*
X0105878Y0173907D01*
X0105957Y0174022D01*
X0106034Y0174140D01*
X0106107Y0174260D01*
X0106176Y0174381D01*
X0106242Y0174505D01*
X0106305Y0174631D01*
X0106364Y0174758D01*
X0106419Y0174887D01*
X0106471Y0175017D01*
X0106519Y0175149D01*
X0106564Y0175282D01*
X0106605Y0175416D01*
X0106642Y0175551D01*
X0106675Y0175687D01*
X0106704Y0175825D01*
X0106729Y0175962D01*
X0106751Y0176101D01*
X0106769Y0176240D01*
X0106782Y0176380D01*
X0106792Y0176520D01*
X0106798Y0176660D01*
X0106800Y0176800D01*
X0111800Y0176800D01*
X0111800Y0036800D01*
X0091800Y0036800D01*
X0112300Y0028300D02*
X0112300Y0015300D01*
X0115300Y0012300D01*
X0139800Y0012300D01*
X0139876Y0012302D01*
X0139952Y0012308D01*
X0140027Y0012317D01*
X0140102Y0012331D01*
X0140176Y0012348D01*
X0140249Y0012369D01*
X0140321Y0012393D01*
X0140392Y0012422D01*
X0140461Y0012453D01*
X0140528Y0012488D01*
X0140593Y0012527D01*
X0140657Y0012569D01*
X0140718Y0012614D01*
X0140777Y0012662D01*
X0140833Y0012713D01*
X0140887Y0012767D01*
X0140938Y0012823D01*
X0140986Y0012882D01*
X0141031Y0012943D01*
X0141073Y0013007D01*
X0141112Y0013072D01*
X0141147Y0013139D01*
X0141178Y0013208D01*
X0141207Y0013279D01*
X0141231Y0013351D01*
X0141252Y0013424D01*
X0141269Y0013498D01*
X0141283Y0013573D01*
X0141292Y0013648D01*
X0141298Y0013724D01*
X0141300Y0013800D01*
X0141300Y0029800D01*
X0141298Y0029876D01*
X0141292Y0029952D01*
X0141283Y0030027D01*
X0141269Y0030102D01*
X0141252Y0030176D01*
X0141231Y0030249D01*
X0141207Y0030321D01*
X0141178Y0030392D01*
X0141147Y0030461D01*
X0141112Y0030528D01*
X0141073Y0030593D01*
X0141031Y0030657D01*
X0140986Y0030718D01*
X0140938Y0030777D01*
X0140887Y0030833D01*
X0140833Y0030887D01*
X0140777Y0030938D01*
X0140718Y0030986D01*
X0140657Y0031031D01*
X0140593Y0031073D01*
X0140528Y0031112D01*
X0140461Y0031147D01*
X0140392Y0031178D01*
X0140321Y0031207D01*
X0140249Y0031231D01*
X0140176Y0031252D01*
X0140102Y0031269D01*
X0140027Y0031283D01*
X0139952Y0031292D01*
X0139876Y0031298D01*
X0139800Y0031300D01*
X0115300Y0031300D01*
X0112300Y0028300D01*
X0118500Y0027200D02*
X0121100Y0027200D01*
X0119800Y0028400D02*
X0119800Y0025900D01*
X0120800Y0021800D02*
X0124300Y0021800D01*
X0124300Y0026600D01*
X0126300Y0026600D01*
X0126300Y0017000D01*
X0124300Y0017000D01*
X0124300Y0021800D01*
X0129300Y0021800D02*
X0132800Y0021800D01*
X0133300Y0041800D02*
X0150300Y0041800D01*
X0150360Y0041802D01*
X0150421Y0041807D01*
X0150480Y0041816D01*
X0150539Y0041829D01*
X0150598Y0041845D01*
X0150655Y0041865D01*
X0150710Y0041888D01*
X0150765Y0041915D01*
X0150817Y0041944D01*
X0150868Y0041977D01*
X0150917Y0042013D01*
X0150963Y0042051D01*
X0151007Y0042093D01*
X0151049Y0042137D01*
X0151087Y0042183D01*
X0151123Y0042232D01*
X0151156Y0042283D01*
X0151185Y0042335D01*
X0151212Y0042390D01*
X0151235Y0042445D01*
X0151255Y0042502D01*
X0151271Y0042561D01*
X0151284Y0042620D01*
X0151293Y0042679D01*
X0151298Y0042740D01*
X0151300Y0042800D01*
X0151300Y0050800D01*
X0151298Y0050860D01*
X0151293Y0050921D01*
X0151284Y0050980D01*
X0151271Y0051039D01*
X0151255Y0051098D01*
X0151235Y0051155D01*
X0151212Y0051210D01*
X0151185Y0051265D01*
X0151156Y0051317D01*
X0151123Y0051368D01*
X0151087Y0051417D01*
X0151049Y0051463D01*
X0151007Y0051507D01*
X0150963Y0051549D01*
X0150917Y0051587D01*
X0150868Y0051623D01*
X0150817Y0051656D01*
X0150765Y0051685D01*
X0150710Y0051712D01*
X0150655Y0051735D01*
X0150598Y0051755D01*
X0150539Y0051771D01*
X0150480Y0051784D01*
X0150421Y0051793D01*
X0150360Y0051798D01*
X0150300Y0051800D01*
X0133300Y0051800D01*
X0133240Y0051798D01*
X0133179Y0051793D01*
X0133120Y0051784D01*
X0133061Y0051771D01*
X0133002Y0051755D01*
X0132945Y0051735D01*
X0132890Y0051712D01*
X0132835Y0051685D01*
X0132783Y0051656D01*
X0132732Y0051623D01*
X0132683Y0051587D01*
X0132637Y0051549D01*
X0132593Y0051507D01*
X0132551Y0051463D01*
X0132513Y0051417D01*
X0132477Y0051368D01*
X0132444Y0051317D01*
X0132415Y0051265D01*
X0132388Y0051210D01*
X0132365Y0051155D01*
X0132345Y0051098D01*
X0132329Y0051039D01*
X0132316Y0050980D01*
X0132307Y0050921D01*
X0132302Y0050860D01*
X0132300Y0050800D01*
X0132300Y0042800D01*
X0132302Y0042740D01*
X0132307Y0042679D01*
X0132316Y0042620D01*
X0132329Y0042561D01*
X0132345Y0042502D01*
X0132365Y0042445D01*
X0132388Y0042390D01*
X0132415Y0042335D01*
X0132444Y0042283D01*
X0132477Y0042232D01*
X0132513Y0042183D01*
X0132551Y0042137D01*
X0132593Y0042093D01*
X0132637Y0042051D01*
X0132683Y0042013D01*
X0132732Y0041977D01*
X0132783Y0041944D01*
X0132835Y0041915D01*
X0132890Y0041888D01*
X0132945Y0041865D01*
X0133002Y0041845D01*
X0133061Y0041829D01*
X0133120Y0041816D01*
X0133179Y0041807D01*
X0133240Y0041802D01*
X0133300Y0041800D01*
X0140300Y0046800D02*
X0140800Y0046800D01*
X0142800Y0046800D02*
X0143300Y0046800D01*
X0162300Y0028300D02*
X0162300Y0015300D01*
X0165300Y0012300D01*
X0189800Y0012300D01*
X0189876Y0012302D01*
X0189952Y0012308D01*
X0190027Y0012317D01*
X0190102Y0012331D01*
X0190176Y0012348D01*
X0190249Y0012369D01*
X0190321Y0012393D01*
X0190392Y0012422D01*
X0190461Y0012453D01*
X0190528Y0012488D01*
X0190593Y0012527D01*
X0190657Y0012569D01*
X0190718Y0012614D01*
X0190777Y0012662D01*
X0190833Y0012713D01*
X0190887Y0012767D01*
X0190938Y0012823D01*
X0190986Y0012882D01*
X0191031Y0012943D01*
X0191073Y0013007D01*
X0191112Y0013072D01*
X0191147Y0013139D01*
X0191178Y0013208D01*
X0191207Y0013279D01*
X0191231Y0013351D01*
X0191252Y0013424D01*
X0191269Y0013498D01*
X0191283Y0013573D01*
X0191292Y0013648D01*
X0191298Y0013724D01*
X0191300Y0013800D01*
X0191300Y0029800D01*
X0191298Y0029876D01*
X0191292Y0029952D01*
X0191283Y0030027D01*
X0191269Y0030102D01*
X0191252Y0030176D01*
X0191231Y0030249D01*
X0191207Y0030321D01*
X0191178Y0030392D01*
X0191147Y0030461D01*
X0191112Y0030528D01*
X0191073Y0030593D01*
X0191031Y0030657D01*
X0190986Y0030718D01*
X0190938Y0030777D01*
X0190887Y0030833D01*
X0190833Y0030887D01*
X0190777Y0030938D01*
X0190718Y0030986D01*
X0190657Y0031031D01*
X0190593Y0031073D01*
X0190528Y0031112D01*
X0190461Y0031147D01*
X0190392Y0031178D01*
X0190321Y0031207D01*
X0190249Y0031231D01*
X0190176Y0031252D01*
X0190102Y0031269D01*
X0190027Y0031283D01*
X0189952Y0031292D01*
X0189876Y0031298D01*
X0189800Y0031300D01*
X0165300Y0031300D01*
X0162300Y0028300D01*
X0168500Y0027200D02*
X0171100Y0027200D01*
X0169800Y0028400D02*
X0169800Y0025900D01*
X0170800Y0021800D02*
X0174300Y0021800D01*
X0174300Y0026600D01*
X0176300Y0026600D01*
X0176300Y0017000D01*
X0174300Y0017000D01*
X0174300Y0021800D01*
X0179300Y0021800D02*
X0182800Y0021800D01*
X0185300Y0041800D02*
X0168300Y0041800D01*
X0168240Y0041802D01*
X0168179Y0041807D01*
X0168120Y0041816D01*
X0168061Y0041829D01*
X0168002Y0041845D01*
X0167945Y0041865D01*
X0167890Y0041888D01*
X0167835Y0041915D01*
X0167783Y0041944D01*
X0167732Y0041977D01*
X0167683Y0042013D01*
X0167637Y0042051D01*
X0167593Y0042093D01*
X0167551Y0042137D01*
X0167513Y0042183D01*
X0167477Y0042232D01*
X0167444Y0042283D01*
X0167415Y0042335D01*
X0167388Y0042390D01*
X0167365Y0042445D01*
X0167345Y0042502D01*
X0167329Y0042561D01*
X0167316Y0042620D01*
X0167307Y0042679D01*
X0167302Y0042740D01*
X0167300Y0042800D01*
X0167300Y0050800D01*
X0167302Y0050860D01*
X0167307Y0050921D01*
X0167316Y0050980D01*
X0167329Y0051039D01*
X0167345Y0051098D01*
X0167365Y0051155D01*
X0167388Y0051210D01*
X0167415Y0051265D01*
X0167444Y0051317D01*
X0167477Y0051368D01*
X0167513Y0051417D01*
X0167551Y0051463D01*
X0167593Y0051507D01*
X0167637Y0051549D01*
X0167683Y0051587D01*
X0167732Y0051623D01*
X0167783Y0051656D01*
X0167835Y0051685D01*
X0167890Y0051712D01*
X0167945Y0051735D01*
X0168002Y0051755D01*
X0168061Y0051771D01*
X0168120Y0051784D01*
X0168179Y0051793D01*
X0168240Y0051798D01*
X0168300Y0051800D01*
X0185300Y0051800D01*
X0185360Y0051798D01*
X0185421Y0051793D01*
X0185480Y0051784D01*
X0185539Y0051771D01*
X0185598Y0051755D01*
X0185655Y0051735D01*
X0185710Y0051712D01*
X0185765Y0051685D01*
X0185817Y0051656D01*
X0185868Y0051623D01*
X0185917Y0051587D01*
X0185963Y0051549D01*
X0186007Y0051507D01*
X0186049Y0051463D01*
X0186087Y0051417D01*
X0186123Y0051368D01*
X0186156Y0051317D01*
X0186185Y0051265D01*
X0186212Y0051210D01*
X0186235Y0051155D01*
X0186255Y0051098D01*
X0186271Y0051039D01*
X0186284Y0050980D01*
X0186293Y0050921D01*
X0186298Y0050860D01*
X0186300Y0050800D01*
X0186300Y0042800D01*
X0186298Y0042740D01*
X0186293Y0042679D01*
X0186284Y0042620D01*
X0186271Y0042561D01*
X0186255Y0042502D01*
X0186235Y0042445D01*
X0186212Y0042390D01*
X0186185Y0042335D01*
X0186156Y0042283D01*
X0186123Y0042232D01*
X0186087Y0042183D01*
X0186049Y0042137D01*
X0186007Y0042093D01*
X0185963Y0042051D01*
X0185917Y0042013D01*
X0185868Y0041977D01*
X0185817Y0041944D01*
X0185765Y0041915D01*
X0185710Y0041888D01*
X0185655Y0041865D01*
X0185598Y0041845D01*
X0185539Y0041829D01*
X0185480Y0041816D01*
X0185421Y0041807D01*
X0185360Y0041802D01*
X0185300Y0041800D01*
X0178300Y0046800D02*
X0177800Y0046800D01*
X0175800Y0046800D02*
X0175300Y0046800D01*
X0155300Y0066800D02*
X0138300Y0066800D01*
X0138240Y0066802D01*
X0138179Y0066807D01*
X0138120Y0066816D01*
X0138061Y0066829D01*
X0138002Y0066845D01*
X0137945Y0066865D01*
X0137890Y0066888D01*
X0137835Y0066915D01*
X0137783Y0066944D01*
X0137732Y0066977D01*
X0137683Y0067013D01*
X0137637Y0067051D01*
X0137593Y0067093D01*
X0137551Y0067137D01*
X0137513Y0067183D01*
X0137477Y0067232D01*
X0137444Y0067283D01*
X0137415Y0067335D01*
X0137388Y0067390D01*
X0137365Y0067445D01*
X0137345Y0067502D01*
X0137329Y0067561D01*
X0137316Y0067620D01*
X0137307Y0067679D01*
X0137302Y0067740D01*
X0137300Y0067800D01*
X0137300Y0075800D01*
X0137302Y0075860D01*
X0137307Y0075921D01*
X0137316Y0075980D01*
X0137329Y0076039D01*
X0137345Y0076098D01*
X0137365Y0076155D01*
X0137388Y0076210D01*
X0137415Y0076265D01*
X0137444Y0076317D01*
X0137477Y0076368D01*
X0137513Y0076417D01*
X0137551Y0076463D01*
X0137593Y0076507D01*
X0137637Y0076549D01*
X0137683Y0076587D01*
X0137732Y0076623D01*
X0137783Y0076656D01*
X0137835Y0076685D01*
X0137890Y0076712D01*
X0137945Y0076735D01*
X0138002Y0076755D01*
X0138061Y0076771D01*
X0138120Y0076784D01*
X0138179Y0076793D01*
X0138240Y0076798D01*
X0138300Y0076800D01*
X0155300Y0076800D01*
X0155360Y0076798D01*
X0155421Y0076793D01*
X0155480Y0076784D01*
X0155539Y0076771D01*
X0155598Y0076755D01*
X0155655Y0076735D01*
X0155710Y0076712D01*
X0155765Y0076685D01*
X0155817Y0076656D01*
X0155868Y0076623D01*
X0155917Y0076587D01*
X0155963Y0076549D01*
X0156007Y0076507D01*
X0156049Y0076463D01*
X0156087Y0076417D01*
X0156123Y0076368D01*
X0156156Y0076317D01*
X0156185Y0076265D01*
X0156212Y0076210D01*
X0156235Y0076155D01*
X0156255Y0076098D01*
X0156271Y0076039D01*
X0156284Y0075980D01*
X0156293Y0075921D01*
X0156298Y0075860D01*
X0156300Y0075800D01*
X0156300Y0067800D01*
X0156298Y0067740D01*
X0156293Y0067679D01*
X0156284Y0067620D01*
X0156271Y0067561D01*
X0156255Y0067502D01*
X0156235Y0067445D01*
X0156212Y0067390D01*
X0156185Y0067335D01*
X0156156Y0067283D01*
X0156123Y0067232D01*
X0156087Y0067183D01*
X0156049Y0067137D01*
X0156007Y0067093D01*
X0155963Y0067051D01*
X0155917Y0067013D01*
X0155868Y0066977D01*
X0155817Y0066944D01*
X0155765Y0066915D01*
X0155710Y0066888D01*
X0155655Y0066865D01*
X0155598Y0066845D01*
X0155539Y0066829D01*
X0155480Y0066816D01*
X0155421Y0066807D01*
X0155360Y0066802D01*
X0155300Y0066800D01*
X0148300Y0071800D02*
X0147800Y0071800D01*
X0145800Y0071800D02*
X0145300Y0071800D01*
X0138300Y0091800D02*
X0155300Y0091800D01*
X0155360Y0091802D01*
X0155421Y0091807D01*
X0155480Y0091816D01*
X0155539Y0091829D01*
X0155598Y0091845D01*
X0155655Y0091865D01*
X0155710Y0091888D01*
X0155765Y0091915D01*
X0155817Y0091944D01*
X0155868Y0091977D01*
X0155917Y0092013D01*
X0155963Y0092051D01*
X0156007Y0092093D01*
X0156049Y0092137D01*
X0156087Y0092183D01*
X0156123Y0092232D01*
X0156156Y0092283D01*
X0156185Y0092335D01*
X0156212Y0092390D01*
X0156235Y0092445D01*
X0156255Y0092502D01*
X0156271Y0092561D01*
X0156284Y0092620D01*
X0156293Y0092679D01*
X0156298Y0092740D01*
X0156300Y0092800D01*
X0156300Y0100800D01*
X0156298Y0100860D01*
X0156293Y0100921D01*
X0156284Y0100980D01*
X0156271Y0101039D01*
X0156255Y0101098D01*
X0156235Y0101155D01*
X0156212Y0101210D01*
X0156185Y0101265D01*
X0156156Y0101317D01*
X0156123Y0101368D01*
X0156087Y0101417D01*
X0156049Y0101463D01*
X0156007Y0101507D01*
X0155963Y0101549D01*
X0155917Y0101587D01*
X0155868Y0101623D01*
X0155817Y0101656D01*
X0155765Y0101685D01*
X0155710Y0101712D01*
X0155655Y0101735D01*
X0155598Y0101755D01*
X0155539Y0101771D01*
X0155480Y0101784D01*
X0155421Y0101793D01*
X0155360Y0101798D01*
X0155300Y0101800D01*
X0138300Y0101800D01*
X0138240Y0101798D01*
X0138179Y0101793D01*
X0138120Y0101784D01*
X0138061Y0101771D01*
X0138002Y0101755D01*
X0137945Y0101735D01*
X0137890Y0101712D01*
X0137835Y0101685D01*
X0137783Y0101656D01*
X0137732Y0101623D01*
X0137683Y0101587D01*
X0137637Y0101549D01*
X0137593Y0101507D01*
X0137551Y0101463D01*
X0137513Y0101417D01*
X0137477Y0101368D01*
X0137444Y0101317D01*
X0137415Y0101265D01*
X0137388Y0101210D01*
X0137365Y0101155D01*
X0137345Y0101098D01*
X0137329Y0101039D01*
X0137316Y0100980D01*
X0137307Y0100921D01*
X0137302Y0100860D01*
X0137300Y0100800D01*
X0137300Y0092800D01*
X0137302Y0092740D01*
X0137307Y0092679D01*
X0137316Y0092620D01*
X0137329Y0092561D01*
X0137345Y0092502D01*
X0137365Y0092445D01*
X0137388Y0092390D01*
X0137415Y0092335D01*
X0137444Y0092283D01*
X0137477Y0092232D01*
X0137513Y0092183D01*
X0137551Y0092137D01*
X0137593Y0092093D01*
X0137637Y0092051D01*
X0137683Y0092013D01*
X0137732Y0091977D01*
X0137783Y0091944D01*
X0137835Y0091915D01*
X0137890Y0091888D01*
X0137945Y0091865D01*
X0138002Y0091845D01*
X0138061Y0091829D01*
X0138120Y0091816D01*
X0138179Y0091807D01*
X0138240Y0091802D01*
X0138300Y0091800D01*
X0145300Y0096800D02*
X0145800Y0096800D01*
X0147800Y0096800D02*
X0148300Y0096800D01*
X0146800Y0107300D02*
X0145300Y0107300D01*
X0145240Y0107302D01*
X0145179Y0107307D01*
X0145120Y0107316D01*
X0145061Y0107329D01*
X0145002Y0107345D01*
X0144945Y0107365D01*
X0144890Y0107388D01*
X0144835Y0107415D01*
X0144783Y0107444D01*
X0144732Y0107477D01*
X0144683Y0107513D01*
X0144637Y0107551D01*
X0144593Y0107593D01*
X0144551Y0107637D01*
X0144513Y0107683D01*
X0144477Y0107732D01*
X0144444Y0107783D01*
X0144415Y0107835D01*
X0144388Y0107890D01*
X0144365Y0107945D01*
X0144345Y0108002D01*
X0144329Y0108061D01*
X0144316Y0108120D01*
X0144307Y0108179D01*
X0144302Y0108240D01*
X0144300Y0108300D01*
X0144300Y0115300D01*
X0144302Y0115360D01*
X0144307Y0115421D01*
X0144316Y0115480D01*
X0144329Y0115539D01*
X0144345Y0115598D01*
X0144365Y0115655D01*
X0144388Y0115710D01*
X0144415Y0115765D01*
X0144444Y0115817D01*
X0144477Y0115868D01*
X0144513Y0115917D01*
X0144551Y0115963D01*
X0144593Y0116007D01*
X0144637Y0116049D01*
X0144683Y0116087D01*
X0144732Y0116123D01*
X0144783Y0116156D01*
X0144835Y0116185D01*
X0144890Y0116212D01*
X0144945Y0116235D01*
X0145002Y0116255D01*
X0145061Y0116271D01*
X0145120Y0116284D01*
X0145179Y0116293D01*
X0145240Y0116298D01*
X0145300Y0116300D01*
X0146800Y0116300D01*
X0147300Y0115800D01*
X0166300Y0115800D01*
X0166800Y0116300D01*
X0168300Y0116300D01*
X0168360Y0116298D01*
X0168421Y0116293D01*
X0168480Y0116284D01*
X0168539Y0116271D01*
X0168598Y0116255D01*
X0168655Y0116235D01*
X0168710Y0116212D01*
X0168765Y0116185D01*
X0168817Y0116156D01*
X0168868Y0116123D01*
X0168917Y0116087D01*
X0168963Y0116049D01*
X0169007Y0116007D01*
X0169049Y0115963D01*
X0169087Y0115917D01*
X0169123Y0115868D01*
X0169156Y0115817D01*
X0169185Y0115765D01*
X0169212Y0115710D01*
X0169235Y0115655D01*
X0169255Y0115598D01*
X0169271Y0115539D01*
X0169284Y0115480D01*
X0169293Y0115421D01*
X0169298Y0115360D01*
X0169300Y0115300D01*
X0169300Y0108300D01*
X0169298Y0108240D01*
X0169293Y0108179D01*
X0169284Y0108120D01*
X0169271Y0108061D01*
X0169255Y0108002D01*
X0169235Y0107945D01*
X0169212Y0107890D01*
X0169185Y0107835D01*
X0169156Y0107783D01*
X0169123Y0107732D01*
X0169087Y0107683D01*
X0169049Y0107637D01*
X0169007Y0107593D01*
X0168963Y0107551D01*
X0168917Y0107513D01*
X0168868Y0107477D01*
X0168817Y0107444D01*
X0168765Y0107415D01*
X0168710Y0107388D01*
X0168655Y0107365D01*
X0168598Y0107345D01*
X0168539Y0107329D01*
X0168480Y0107316D01*
X0168421Y0107307D01*
X0168360Y0107302D01*
X0168300Y0107300D01*
X0166800Y0107300D01*
X0166300Y0107800D01*
X0147300Y0107800D01*
X0146800Y0107300D01*
X0146800Y0122300D02*
X0145300Y0122300D01*
X0145240Y0122302D01*
X0145179Y0122307D01*
X0145120Y0122316D01*
X0145061Y0122329D01*
X0145002Y0122345D01*
X0144945Y0122365D01*
X0144890Y0122388D01*
X0144835Y0122415D01*
X0144783Y0122444D01*
X0144732Y0122477D01*
X0144683Y0122513D01*
X0144637Y0122551D01*
X0144593Y0122593D01*
X0144551Y0122637D01*
X0144513Y0122683D01*
X0144477Y0122732D01*
X0144444Y0122783D01*
X0144415Y0122835D01*
X0144388Y0122890D01*
X0144365Y0122945D01*
X0144345Y0123002D01*
X0144329Y0123061D01*
X0144316Y0123120D01*
X0144307Y0123179D01*
X0144302Y0123240D01*
X0144300Y0123300D01*
X0144300Y0130300D01*
X0144302Y0130360D01*
X0144307Y0130421D01*
X0144316Y0130480D01*
X0144329Y0130539D01*
X0144345Y0130598D01*
X0144365Y0130655D01*
X0144388Y0130710D01*
X0144415Y0130765D01*
X0144444Y0130817D01*
X0144477Y0130868D01*
X0144513Y0130917D01*
X0144551Y0130963D01*
X0144593Y0131007D01*
X0144637Y0131049D01*
X0144683Y0131087D01*
X0144732Y0131123D01*
X0144783Y0131156D01*
X0144835Y0131185D01*
X0144890Y0131212D01*
X0144945Y0131235D01*
X0145002Y0131255D01*
X0145061Y0131271D01*
X0145120Y0131284D01*
X0145179Y0131293D01*
X0145240Y0131298D01*
X0145300Y0131300D01*
X0146800Y0131300D01*
X0147300Y0130800D01*
X0166300Y0130800D01*
X0166800Y0131300D01*
X0168300Y0131300D01*
X0168360Y0131298D01*
X0168421Y0131293D01*
X0168480Y0131284D01*
X0168539Y0131271D01*
X0168598Y0131255D01*
X0168655Y0131235D01*
X0168710Y0131212D01*
X0168765Y0131185D01*
X0168817Y0131156D01*
X0168868Y0131123D01*
X0168917Y0131087D01*
X0168963Y0131049D01*
X0169007Y0131007D01*
X0169049Y0130963D01*
X0169087Y0130917D01*
X0169123Y0130868D01*
X0169156Y0130817D01*
X0169185Y0130765D01*
X0169212Y0130710D01*
X0169235Y0130655D01*
X0169255Y0130598D01*
X0169271Y0130539D01*
X0169284Y0130480D01*
X0169293Y0130421D01*
X0169298Y0130360D01*
X0169300Y0130300D01*
X0169300Y0123300D01*
X0169298Y0123240D01*
X0169293Y0123179D01*
X0169284Y0123120D01*
X0169271Y0123061D01*
X0169255Y0123002D01*
X0169235Y0122945D01*
X0169212Y0122890D01*
X0169185Y0122835D01*
X0169156Y0122783D01*
X0169123Y0122732D01*
X0169087Y0122683D01*
X0169049Y0122637D01*
X0169007Y0122593D01*
X0168963Y0122551D01*
X0168917Y0122513D01*
X0168868Y0122477D01*
X0168817Y0122444D01*
X0168765Y0122415D01*
X0168710Y0122388D01*
X0168655Y0122365D01*
X0168598Y0122345D01*
X0168539Y0122329D01*
X0168480Y0122316D01*
X0168421Y0122307D01*
X0168360Y0122302D01*
X0168300Y0122300D01*
X0166800Y0122300D01*
X0166300Y0122800D01*
X0147300Y0122800D01*
X0146800Y0122300D01*
X0171800Y0077800D02*
X0171954Y0077798D01*
X0172108Y0077792D01*
X0172262Y0077782D01*
X0172416Y0077768D01*
X0172569Y0077751D01*
X0172721Y0077729D01*
X0172873Y0077703D01*
X0173025Y0077674D01*
X0173175Y0077640D01*
X0173325Y0077603D01*
X0173473Y0077562D01*
X0173621Y0077517D01*
X0173767Y0077468D01*
X0173912Y0077416D01*
X0174055Y0077360D01*
X0174198Y0077300D01*
X0174338Y0077237D01*
X0174477Y0077170D01*
X0174614Y0077099D01*
X0174749Y0077025D01*
X0174882Y0076948D01*
X0175014Y0076867D01*
X0175143Y0076783D01*
X0175270Y0076695D01*
X0175394Y0076604D01*
X0175516Y0076511D01*
X0175636Y0076413D01*
X0175753Y0076313D01*
X0175868Y0076210D01*
X0175980Y0076104D01*
X0176089Y0075996D01*
X0176195Y0075884D01*
X0176299Y0075770D01*
X0176399Y0075653D01*
X0176497Y0075534D01*
X0176591Y0075412D01*
X0176682Y0075287D01*
X0171800Y0065800D02*
X0171648Y0065802D01*
X0171497Y0065808D01*
X0171346Y0065817D01*
X0171194Y0065831D01*
X0171044Y0065848D01*
X0170894Y0065869D01*
X0170744Y0065894D01*
X0170595Y0065922D01*
X0170447Y0065955D01*
X0170300Y0065991D01*
X0170153Y0066030D01*
X0170008Y0066074D01*
X0169864Y0066121D01*
X0169721Y0066172D01*
X0169580Y0066226D01*
X0169439Y0066284D01*
X0169301Y0066345D01*
X0169164Y0066410D01*
X0169028Y0066479D01*
X0168895Y0066550D01*
X0168763Y0066625D01*
X0168633Y0066704D01*
X0168506Y0066785D01*
X0168380Y0066870D01*
X0168256Y0066958D01*
X0168135Y0067049D01*
X0168016Y0067143D01*
X0167900Y0067241D01*
X0167786Y0067341D01*
X0167674Y0067443D01*
X0167566Y0067549D01*
X0167460Y0067657D01*
X0167356Y0067768D01*
X0167256Y0067882D01*
X0167158Y0067998D01*
X0167064Y0068117D01*
X0171800Y0065800D02*
X0171952Y0065802D01*
X0172103Y0065808D01*
X0172254Y0065817D01*
X0172406Y0065831D01*
X0172556Y0065848D01*
X0172706Y0065869D01*
X0172856Y0065894D01*
X0173005Y0065922D01*
X0173153Y0065955D01*
X0173300Y0065991D01*
X0173447Y0066030D01*
X0173592Y0066074D01*
X0173736Y0066121D01*
X0173879Y0066172D01*
X0174020Y0066226D01*
X0174161Y0066284D01*
X0174299Y0066345D01*
X0174436Y0066410D01*
X0174572Y0066479D01*
X0174705Y0066550D01*
X0174837Y0066625D01*
X0174967Y0066704D01*
X0175094Y0066785D01*
X0175220Y0066870D01*
X0175344Y0066958D01*
X0175465Y0067049D01*
X0175584Y0067143D01*
X0175700Y0067241D01*
X0175814Y0067341D01*
X0175926Y0067443D01*
X0176034Y0067549D01*
X0176140Y0067657D01*
X0176244Y0067768D01*
X0176344Y0067882D01*
X0176442Y0067998D01*
X0176536Y0068117D01*
X0171800Y0077800D02*
X0171650Y0077798D01*
X0171499Y0077792D01*
X0171349Y0077783D01*
X0171200Y0077770D01*
X0171050Y0077753D01*
X0170901Y0077732D01*
X0170753Y0077708D01*
X0170605Y0077680D01*
X0170458Y0077648D01*
X0170312Y0077613D01*
X0170167Y0077573D01*
X0170023Y0077531D01*
X0169880Y0077484D01*
X0169738Y0077434D01*
X0169597Y0077381D01*
X0169458Y0077324D01*
X0169320Y0077264D01*
X0169184Y0077200D01*
X0169050Y0077133D01*
X0168917Y0077062D01*
X0168786Y0076988D01*
X0168657Y0076911D01*
X0168530Y0076830D01*
X0168405Y0076747D01*
X0168282Y0076660D01*
X0168161Y0076571D01*
X0168043Y0076478D01*
X0167927Y0076382D01*
X0167813Y0076284D01*
X0167702Y0076183D01*
X0167593Y0076078D01*
X0167488Y0075972D01*
X0167384Y0075862D01*
X0167284Y0075750D01*
X0167186Y0075636D01*
X0167092Y0075519D01*
X0167000Y0075400D01*
D12*
X0164854Y0067831D02*
X0164953Y0067662D01*
X0165057Y0067496D01*
X0165164Y0067332D01*
X0165275Y0067171D01*
X0165390Y0067013D01*
X0165509Y0066858D01*
X0165632Y0066705D01*
X0165758Y0066556D01*
X0165888Y0066410D01*
X0166022Y0066267D01*
X0166159Y0066127D01*
X0166299Y0065991D01*
X0166443Y0065858D01*
X0166590Y0065729D01*
X0166740Y0065603D01*
X0166893Y0065482D01*
X0167049Y0065363D01*
X0167208Y0065249D01*
X0167369Y0065139D01*
X0167534Y0065033D01*
X0167700Y0064930D01*
X0167870Y0064832D01*
X0168041Y0064738D01*
X0168215Y0064648D01*
X0168391Y0064563D01*
X0168569Y0064481D01*
X0168749Y0064405D01*
X0168931Y0064332D01*
X0169114Y0064264D01*
X0169299Y0064201D01*
X0169486Y0064142D01*
X0169674Y0064088D01*
X0169863Y0064038D01*
X0170053Y0063993D01*
X0170245Y0063953D01*
X0170437Y0063917D01*
X0170630Y0063886D01*
X0170824Y0063860D01*
X0171019Y0063838D01*
X0171214Y0063822D01*
X0171409Y0063810D01*
X0171605Y0063802D01*
X0171800Y0063800D01*
X0164741Y0075565D02*
X0164834Y0075733D01*
X0164930Y0075899D01*
X0165030Y0076063D01*
X0165135Y0076224D01*
X0165243Y0076383D01*
X0165355Y0076539D01*
X0165471Y0076693D01*
X0165590Y0076843D01*
X0165713Y0076991D01*
X0165839Y0077136D01*
X0165969Y0077277D01*
X0166102Y0077416D01*
X0166239Y0077551D01*
X0166379Y0077683D01*
X0166521Y0077811D01*
X0166667Y0077936D01*
X0166816Y0078058D01*
X0166968Y0078176D01*
X0167122Y0078290D01*
X0167280Y0078400D01*
X0167439Y0078507D01*
X0167602Y0078610D01*
X0167767Y0078709D01*
X0167934Y0078804D01*
X0168103Y0078894D01*
X0168274Y0078981D01*
X0168448Y0079064D01*
X0168623Y0079142D01*
X0168801Y0079216D01*
X0168980Y0079286D01*
X0169160Y0079352D01*
X0169342Y0079413D01*
X0169526Y0079470D01*
X0169711Y0079522D01*
X0169897Y0079570D01*
X0170084Y0079614D01*
X0170272Y0079653D01*
X0170461Y0079687D01*
X0170651Y0079717D01*
X0170841Y0079742D01*
X0171032Y0079763D01*
X0171224Y0079779D01*
X0171416Y0079791D01*
X0171608Y0079798D01*
X0171800Y0079800D01*
X0177907Y0066632D02*
X0177780Y0066486D01*
X0177651Y0066344D01*
X0177517Y0066204D01*
X0177381Y0066068D01*
X0177241Y0065935D01*
X0177098Y0065805D01*
X0176951Y0065679D01*
X0176802Y0065557D01*
X0176650Y0065438D01*
X0176495Y0065323D01*
X0176338Y0065211D01*
X0176178Y0065104D01*
X0176015Y0065000D01*
X0175849Y0064901D01*
X0175682Y0064805D01*
X0175512Y0064713D01*
X0175340Y0064626D01*
X0175166Y0064542D01*
X0174990Y0064463D01*
X0174812Y0064389D01*
X0174632Y0064318D01*
X0174451Y0064252D01*
X0174268Y0064190D01*
X0174084Y0064133D01*
X0173898Y0064080D01*
X0173711Y0064032D01*
X0173523Y0063988D01*
X0173334Y0063949D01*
X0173144Y0063914D01*
X0172954Y0063884D01*
X0172763Y0063858D01*
X0172571Y0063837D01*
X0172378Y0063821D01*
X0172186Y0063809D01*
X0171993Y0063802D01*
X0171800Y0063800D01*
X0177946Y0076922D02*
X0177819Y0077070D01*
X0177689Y0077215D01*
X0177556Y0077356D01*
X0177419Y0077495D01*
X0177279Y0077630D01*
X0177135Y0077761D01*
X0176988Y0077889D01*
X0176839Y0078014D01*
X0176686Y0078135D01*
X0176531Y0078252D01*
X0176372Y0078365D01*
X0176211Y0078474D01*
X0176047Y0078579D01*
X0175881Y0078681D01*
X0175712Y0078778D01*
X0175542Y0078871D01*
X0175368Y0078960D01*
X0175193Y0079045D01*
X0175016Y0079125D01*
X0174837Y0079201D01*
X0174656Y0079273D01*
X0174473Y0079340D01*
X0174289Y0079403D01*
X0174103Y0079461D01*
X0173916Y0079515D01*
X0173728Y0079564D01*
X0173538Y0079609D01*
X0173348Y0079649D01*
X0173156Y0079684D01*
X0172964Y0079715D01*
X0172771Y0079741D01*
X0172577Y0079762D01*
X0172383Y0079779D01*
X0172189Y0079791D01*
X0171995Y0079798D01*
X0171800Y0079800D01*
X0147800Y0074800D02*
X0147800Y0071800D01*
X0147800Y0068800D01*
X0145800Y0068800D02*
X0145800Y0071800D01*
X0145800Y0074800D01*
X0145800Y0093800D02*
X0145800Y0096800D01*
X0145800Y0099800D01*
X0147800Y0099800D02*
X0147800Y0096800D01*
X0147800Y0093800D01*
X0142800Y0049800D02*
X0142800Y0046800D01*
X0142800Y0043800D01*
X0140800Y0043800D02*
X0140800Y0046800D01*
X0140800Y0049800D01*
X0175800Y0049800D02*
X0175800Y0046800D01*
X0175800Y0043800D01*
X0177800Y0043800D02*
X0177800Y0046800D01*
X0177800Y0049800D01*
X0041800Y0074800D02*
X0041608Y0074798D01*
X0041416Y0074791D01*
X0041224Y0074779D01*
X0041032Y0074763D01*
X0040841Y0074742D01*
X0040651Y0074717D01*
X0040461Y0074687D01*
X0040272Y0074653D01*
X0040084Y0074614D01*
X0039897Y0074570D01*
X0039711Y0074522D01*
X0039526Y0074470D01*
X0039342Y0074413D01*
X0039160Y0074352D01*
X0038980Y0074286D01*
X0038801Y0074216D01*
X0038623Y0074142D01*
X0038448Y0074064D01*
X0038274Y0073981D01*
X0038103Y0073894D01*
X0037934Y0073804D01*
X0037767Y0073709D01*
X0037602Y0073610D01*
X0037439Y0073507D01*
X0037280Y0073400D01*
X0037122Y0073290D01*
X0036968Y0073176D01*
X0036816Y0073058D01*
X0036667Y0072936D01*
X0036521Y0072811D01*
X0036379Y0072683D01*
X0036239Y0072551D01*
X0036102Y0072416D01*
X0035969Y0072277D01*
X0035839Y0072136D01*
X0035713Y0071991D01*
X0035590Y0071843D01*
X0035471Y0071693D01*
X0035355Y0071539D01*
X0035243Y0071383D01*
X0035135Y0071224D01*
X0035030Y0071063D01*
X0034930Y0070899D01*
X0034834Y0070733D01*
X0034741Y0070565D01*
X0034854Y0062831D02*
X0034953Y0062662D01*
X0035057Y0062496D01*
X0035164Y0062332D01*
X0035275Y0062171D01*
X0035390Y0062013D01*
X0035509Y0061858D01*
X0035632Y0061705D01*
X0035758Y0061556D01*
X0035888Y0061410D01*
X0036022Y0061267D01*
X0036159Y0061127D01*
X0036299Y0060991D01*
X0036443Y0060858D01*
X0036590Y0060729D01*
X0036740Y0060603D01*
X0036893Y0060482D01*
X0037049Y0060363D01*
X0037208Y0060249D01*
X0037369Y0060139D01*
X0037534Y0060033D01*
X0037700Y0059930D01*
X0037870Y0059832D01*
X0038041Y0059738D01*
X0038215Y0059648D01*
X0038391Y0059563D01*
X0038569Y0059481D01*
X0038749Y0059405D01*
X0038931Y0059332D01*
X0039114Y0059264D01*
X0039299Y0059201D01*
X0039486Y0059142D01*
X0039674Y0059088D01*
X0039863Y0059038D01*
X0040053Y0058993D01*
X0040245Y0058953D01*
X0040437Y0058917D01*
X0040630Y0058886D01*
X0040824Y0058860D01*
X0041019Y0058838D01*
X0041214Y0058822D01*
X0041409Y0058810D01*
X0041605Y0058802D01*
X0041800Y0058800D01*
X0041993Y0058802D01*
X0042186Y0058809D01*
X0042378Y0058821D01*
X0042571Y0058837D01*
X0042763Y0058858D01*
X0042954Y0058884D01*
X0043144Y0058914D01*
X0043334Y0058949D01*
X0043523Y0058988D01*
X0043711Y0059032D01*
X0043898Y0059080D01*
X0044084Y0059133D01*
X0044268Y0059190D01*
X0044451Y0059252D01*
X0044632Y0059318D01*
X0044812Y0059389D01*
X0044990Y0059463D01*
X0045166Y0059542D01*
X0045340Y0059626D01*
X0045512Y0059713D01*
X0045682Y0059805D01*
X0045849Y0059901D01*
X0046015Y0060000D01*
X0046178Y0060104D01*
X0046338Y0060211D01*
X0046495Y0060323D01*
X0046650Y0060438D01*
X0046802Y0060557D01*
X0046951Y0060679D01*
X0047098Y0060805D01*
X0047241Y0060935D01*
X0047381Y0061068D01*
X0047517Y0061204D01*
X0047651Y0061344D01*
X0047780Y0061486D01*
X0047907Y0061632D01*
X0047946Y0071922D02*
X0047819Y0072070D01*
X0047689Y0072215D01*
X0047556Y0072356D01*
X0047419Y0072495D01*
X0047279Y0072630D01*
X0047135Y0072761D01*
X0046988Y0072889D01*
X0046839Y0073014D01*
X0046686Y0073135D01*
X0046531Y0073252D01*
X0046372Y0073365D01*
X0046211Y0073474D01*
X0046047Y0073579D01*
X0045881Y0073681D01*
X0045712Y0073778D01*
X0045542Y0073871D01*
X0045368Y0073960D01*
X0045193Y0074045D01*
X0045016Y0074125D01*
X0044837Y0074201D01*
X0044656Y0074273D01*
X0044473Y0074340D01*
X0044289Y0074403D01*
X0044103Y0074461D01*
X0043916Y0074515D01*
X0043728Y0074564D01*
X0043538Y0074609D01*
X0043348Y0074649D01*
X0043156Y0074684D01*
X0042964Y0074715D01*
X0042771Y0074741D01*
X0042577Y0074762D01*
X0042383Y0074779D01*
X0042189Y0074791D01*
X0041995Y0074798D01*
X0041800Y0074800D01*
D13*
X0041153Y0079550D02*
X0038150Y0079550D01*
X0039651Y0079550D02*
X0039651Y0084054D01*
X0038150Y0082553D01*
X0042754Y0083303D02*
X0042754Y0080301D01*
X0045756Y0083303D01*
X0045756Y0080301D01*
X0045006Y0079550D01*
X0043505Y0079550D01*
X0042754Y0080301D01*
X0042754Y0083303D02*
X0043505Y0084054D01*
X0045006Y0084054D01*
X0045756Y0083303D01*
X0047358Y0084054D02*
X0047358Y0079550D01*
X0047358Y0081051D02*
X0049610Y0082553D01*
X0047358Y0081051D02*
X0049610Y0079550D01*
X0049550Y0073054D02*
X0049550Y0068550D01*
X0052553Y0068550D01*
X0054154Y0068550D02*
X0057156Y0068550D01*
X0058758Y0068550D02*
X0061010Y0068550D01*
X0061760Y0069301D01*
X0061760Y0072303D01*
X0061010Y0073054D01*
X0058758Y0073054D01*
X0058758Y0068550D01*
X0061760Y0065054D02*
X0061760Y0060550D01*
X0059508Y0060550D01*
X0058758Y0061301D01*
X0058758Y0062802D01*
X0059508Y0063553D01*
X0061760Y0063553D01*
X0057156Y0062802D02*
X0057156Y0062051D01*
X0054154Y0062051D01*
X0054154Y0061301D02*
X0054154Y0062802D01*
X0054905Y0063553D01*
X0056406Y0063553D01*
X0057156Y0062802D01*
X0056406Y0060550D02*
X0054905Y0060550D01*
X0054154Y0061301D01*
X0052553Y0060550D02*
X0051051Y0062051D01*
X0051802Y0062051D02*
X0049550Y0062051D01*
X0049550Y0060550D02*
X0049550Y0065054D01*
X0051802Y0065054D01*
X0052553Y0064303D01*
X0052553Y0062802D01*
X0051802Y0062051D01*
X0054154Y0068550D02*
X0054154Y0073054D01*
X0057156Y0073054D01*
X0055655Y0070802D02*
X0054154Y0070802D01*
X0063362Y0071553D02*
X0064863Y0073054D01*
X0064863Y0068550D01*
X0063362Y0068550D02*
X0066364Y0068550D01*
X0050360Y0053303D02*
X0047358Y0050301D01*
X0048108Y0049550D01*
X0049610Y0049550D01*
X0050360Y0050301D01*
X0050360Y0053303D01*
X0049610Y0054054D01*
X0048108Y0054054D01*
X0047358Y0053303D01*
X0047358Y0050301D01*
X0045756Y0050301D02*
X0045006Y0049550D01*
X0043505Y0049550D01*
X0042754Y0050301D01*
X0041153Y0050301D02*
X0040402Y0049550D01*
X0038901Y0049550D01*
X0038150Y0050301D01*
X0039651Y0051802D02*
X0040402Y0051802D01*
X0041153Y0051051D01*
X0041153Y0050301D01*
X0040402Y0051802D02*
X0041153Y0052553D01*
X0041153Y0053303D01*
X0040402Y0054054D01*
X0038901Y0054054D01*
X0038150Y0053303D01*
X0042754Y0053303D02*
X0043505Y0054054D01*
X0045006Y0054054D01*
X0045756Y0053303D01*
X0045756Y0052553D01*
X0045006Y0051802D01*
X0045756Y0051051D01*
X0045756Y0050301D01*
X0045006Y0051802D02*
X0044255Y0051802D01*
X0042656Y0058050D02*
X0039654Y0058050D01*
X0041155Y0058050D02*
X0041155Y0062554D01*
X0039654Y0061053D01*
X0038053Y0061803D02*
X0037302Y0062554D01*
X0035050Y0062554D01*
X0035050Y0058050D01*
X0035050Y0059551D02*
X0037302Y0059551D01*
X0038053Y0060302D01*
X0038053Y0061803D01*
X0036551Y0059551D02*
X0038053Y0058050D01*
X0019550Y0054787D02*
X0019550Y0054153D01*
X0019233Y0053836D01*
X0018599Y0054470D02*
X0018599Y0054787D01*
X0018916Y0055104D01*
X0019233Y0055104D01*
X0019550Y0054787D01*
X0018599Y0054787D02*
X0018282Y0055104D01*
X0017965Y0055104D01*
X0017648Y0054787D01*
X0017648Y0054153D01*
X0017965Y0053836D01*
X0017648Y0052894D02*
X0017648Y0051626D01*
X0017648Y0052260D02*
X0019550Y0052260D01*
X0019550Y0050787D02*
X0019550Y0050153D01*
X0019550Y0050470D02*
X0017648Y0050470D01*
X0017648Y0050153D02*
X0017648Y0050787D01*
X0017648Y0049211D02*
X0018916Y0047943D01*
X0018599Y0048260D02*
X0019550Y0049211D01*
X0019550Y0047943D02*
X0017648Y0047943D01*
X0017965Y0047001D02*
X0017648Y0046684D01*
X0017648Y0046050D01*
X0017965Y0045733D01*
X0019233Y0045733D01*
X0019550Y0046050D01*
X0019550Y0046684D01*
X0019233Y0047001D01*
X0019550Y0044894D02*
X0019550Y0044260D01*
X0019550Y0044577D02*
X0017648Y0044577D01*
X0017648Y0044260D02*
X0017648Y0044894D01*
X0017965Y0043318D02*
X0018599Y0043318D01*
X0018916Y0043001D01*
X0018916Y0042050D01*
X0019550Y0042050D02*
X0017648Y0042050D01*
X0017648Y0043001D01*
X0017965Y0043318D01*
X0019465Y0030237D02*
X0019782Y0030237D01*
X0020099Y0029921D01*
X0020099Y0029287D01*
X0019782Y0028970D01*
X0019465Y0028970D01*
X0019148Y0029287D01*
X0019148Y0029921D01*
X0019465Y0030237D01*
X0020099Y0029921D02*
X0020416Y0030237D01*
X0020733Y0030237D01*
X0021050Y0029921D01*
X0021050Y0029287D01*
X0020733Y0028970D01*
X0020416Y0028970D01*
X0020099Y0029287D01*
X0020416Y0028028D02*
X0020099Y0027711D01*
X0020099Y0027077D01*
X0019782Y0026760D01*
X0019465Y0026760D01*
X0019148Y0027077D01*
X0019148Y0027711D01*
X0019465Y0028028D01*
X0018831Y0027394D02*
X0021367Y0027394D01*
X0021050Y0027711D02*
X0020733Y0028028D01*
X0020416Y0028028D01*
X0021050Y0027711D02*
X0021050Y0027077D01*
X0020733Y0026760D01*
X0020733Y0025818D02*
X0019148Y0025818D01*
X0019148Y0024550D02*
X0020733Y0024550D01*
X0021050Y0024867D01*
X0021050Y0025501D01*
X0020733Y0025818D01*
X0006800Y0021800D02*
X0001800Y0026800D01*
X0001800Y0016800D01*
X0006800Y0021800D01*
X0006755Y0021755D02*
X0001800Y0021755D01*
X0001800Y0021257D02*
X0006257Y0021257D01*
X0005758Y0020758D02*
X0001800Y0020758D01*
X0001800Y0020260D02*
X0005260Y0020260D01*
X0004761Y0019761D02*
X0001800Y0019761D01*
X0001800Y0019263D02*
X0004263Y0019263D01*
X0003764Y0018764D02*
X0001800Y0018764D01*
X0001800Y0018266D02*
X0003266Y0018266D01*
X0002767Y0017767D02*
X0001800Y0017767D01*
X0001800Y0017269D02*
X0002269Y0017269D01*
X0001800Y0022254D02*
X0006346Y0022254D01*
X0005848Y0022752D02*
X0001800Y0022752D01*
X0001800Y0023251D02*
X0005349Y0023251D01*
X0004851Y0023749D02*
X0001800Y0023749D01*
X0001800Y0024248D02*
X0004352Y0024248D01*
X0003854Y0024746D02*
X0001800Y0024746D01*
X0001800Y0025245D02*
X0003355Y0025245D01*
X0002857Y0025743D02*
X0001800Y0025743D01*
X0001800Y0026242D02*
X0002358Y0026242D01*
X0001860Y0026740D02*
X0001800Y0026740D01*
X0036800Y0021800D02*
X0039300Y0021800D01*
X0039300Y0024300D02*
X0044300Y0021800D01*
X0046800Y0021800D01*
X0059550Y0021550D02*
X0059550Y0023452D01*
X0060501Y0023452D01*
X0060818Y0023135D01*
X0060818Y0022501D01*
X0060501Y0022184D01*
X0059550Y0022184D01*
X0060184Y0022184D02*
X0060818Y0021550D01*
X0061760Y0021550D02*
X0063028Y0021550D01*
X0063970Y0021867D02*
X0064287Y0021550D01*
X0064921Y0021550D01*
X0065237Y0021867D01*
X0065237Y0022184D01*
X0064921Y0022501D01*
X0064287Y0022501D01*
X0063970Y0022818D01*
X0063970Y0023135D01*
X0064287Y0023452D01*
X0064921Y0023452D01*
X0065237Y0023135D01*
X0066180Y0023452D02*
X0066180Y0021550D01*
X0067447Y0021550D01*
X0066814Y0022501D02*
X0066180Y0022501D01*
X0066180Y0023452D02*
X0067447Y0023452D01*
X0068390Y0023452D02*
X0069657Y0023452D01*
X0069023Y0023452D02*
X0069023Y0021550D01*
X0064921Y0025050D02*
X0064921Y0026952D01*
X0063970Y0026001D01*
X0065237Y0026001D01*
X0063028Y0025684D02*
X0062711Y0026001D01*
X0062077Y0026001D01*
X0061760Y0026318D01*
X0061760Y0026635D01*
X0062077Y0026952D01*
X0062711Y0026952D01*
X0063028Y0026635D01*
X0062394Y0027269D02*
X0062394Y0024733D01*
X0062711Y0025050D02*
X0063028Y0025367D01*
X0063028Y0025684D01*
X0062711Y0025050D02*
X0062077Y0025050D01*
X0061760Y0025367D01*
X0060818Y0025367D02*
X0060818Y0026952D01*
X0059550Y0026952D02*
X0059550Y0025367D01*
X0059867Y0025050D01*
X0060501Y0025050D01*
X0060818Y0025367D01*
X0061760Y0023452D02*
X0061760Y0021550D01*
X0061760Y0022501D02*
X0062394Y0022501D01*
X0063028Y0023452D02*
X0061760Y0023452D01*
X0076800Y0021800D02*
X0079300Y0021800D01*
X0079300Y0024300D02*
X0084300Y0021800D01*
X0086800Y0021800D01*
X0099550Y0021867D02*
X0099867Y0021550D01*
X0100501Y0021550D01*
X0100818Y0021867D01*
X0100818Y0023452D01*
X0101760Y0023135D02*
X0101760Y0022818D01*
X0102077Y0022501D01*
X0102711Y0022501D01*
X0103028Y0022184D01*
X0103028Y0021867D01*
X0102711Y0021550D01*
X0102077Y0021550D01*
X0101760Y0021867D01*
X0101760Y0023135D02*
X0102077Y0023452D01*
X0102711Y0023452D01*
X0103028Y0023135D01*
X0103970Y0023452D02*
X0103970Y0021550D01*
X0105237Y0021550D01*
X0106180Y0021550D02*
X0106180Y0023452D01*
X0107130Y0023452D01*
X0107447Y0023135D01*
X0107447Y0022501D01*
X0107130Y0022184D01*
X0106180Y0022184D01*
X0106814Y0022184D02*
X0107447Y0021550D01*
X0105237Y0023452D02*
X0103970Y0023452D01*
X0103970Y0022501D02*
X0104604Y0022501D01*
X0104921Y0025050D02*
X0104287Y0025050D01*
X0103970Y0025367D01*
X0103970Y0026001D02*
X0104604Y0026318D01*
X0104921Y0026318D01*
X0105237Y0026001D01*
X0105237Y0025367D01*
X0104921Y0025050D01*
X0103970Y0026001D02*
X0103970Y0026952D01*
X0105237Y0026952D01*
X0103028Y0026635D02*
X0102711Y0026952D01*
X0102077Y0026952D01*
X0101760Y0026635D01*
X0101760Y0026318D01*
X0102077Y0026001D01*
X0102711Y0026001D01*
X0103028Y0025684D01*
X0103028Y0025367D01*
X0102711Y0025050D01*
X0102077Y0025050D01*
X0101760Y0025367D01*
X0102394Y0024733D02*
X0102394Y0027269D01*
X0100818Y0026952D02*
X0100818Y0025367D01*
X0100501Y0025050D01*
X0099867Y0025050D01*
X0099550Y0025367D01*
X0099550Y0026952D01*
X0099550Y0023452D02*
X0099550Y0021867D01*
X0115550Y0033801D02*
X0115550Y0036803D01*
X0116301Y0037554D01*
X0117802Y0037554D01*
X0118553Y0036803D01*
X0120154Y0035302D02*
X0122406Y0035302D01*
X0123156Y0034551D01*
X0123156Y0033801D01*
X0122406Y0033050D01*
X0120905Y0033050D01*
X0120154Y0033801D01*
X0120154Y0035302D01*
X0121655Y0036803D01*
X0123156Y0037554D01*
X0118553Y0033801D02*
X0117802Y0033050D01*
X0116301Y0033050D01*
X0115550Y0033801D01*
X0133050Y0036801D02*
X0133801Y0036050D01*
X0135302Y0036050D01*
X0136053Y0036801D01*
X0136053Y0039803D01*
X0133050Y0036801D01*
X0133050Y0039803D01*
X0133801Y0040554D01*
X0135302Y0040554D01*
X0136053Y0039803D01*
X0137654Y0036801D02*
X0138405Y0036801D01*
X0138405Y0036050D01*
X0137654Y0036050D01*
X0137654Y0036801D01*
X0139956Y0036050D02*
X0142958Y0036050D01*
X0141457Y0036050D02*
X0141457Y0040554D01*
X0139956Y0039053D01*
X0144560Y0039053D02*
X0144560Y0036801D01*
X0145310Y0036050D01*
X0147562Y0036050D01*
X0147562Y0039053D01*
X0149164Y0038302D02*
X0150665Y0038302D01*
X0149164Y0036050D02*
X0149164Y0040554D01*
X0152166Y0040554D01*
X0140656Y0053050D02*
X0137654Y0053050D01*
X0139155Y0053050D02*
X0139155Y0057554D01*
X0137654Y0056053D01*
X0136053Y0056803D02*
X0135302Y0057554D01*
X0133801Y0057554D01*
X0133050Y0056803D01*
X0133050Y0053801D01*
X0133801Y0053050D01*
X0135302Y0053050D01*
X0136053Y0053801D01*
X0138801Y0061050D02*
X0138050Y0061801D01*
X0141053Y0064803D01*
X0141053Y0061801D01*
X0140302Y0061050D01*
X0138801Y0061050D01*
X0138050Y0061801D02*
X0138050Y0064803D01*
X0138801Y0065554D01*
X0140302Y0065554D01*
X0141053Y0064803D01*
X0142654Y0061801D02*
X0143405Y0061801D01*
X0143405Y0061050D01*
X0142654Y0061050D01*
X0142654Y0061801D01*
X0144956Y0061050D02*
X0147958Y0061050D01*
X0146457Y0061050D02*
X0146457Y0065554D01*
X0144956Y0064053D01*
X0149560Y0064053D02*
X0149560Y0061801D01*
X0150310Y0061050D01*
X0152562Y0061050D01*
X0152562Y0064053D01*
X0154164Y0063302D02*
X0155665Y0063302D01*
X0154164Y0061050D02*
X0154164Y0065554D01*
X0157166Y0065554D01*
X0168050Y0056803D02*
X0168050Y0053801D01*
X0168801Y0053050D01*
X0170302Y0053050D01*
X0171053Y0053801D01*
X0172654Y0053050D02*
X0175656Y0056053D01*
X0175656Y0056803D01*
X0174906Y0057554D01*
X0173405Y0057554D01*
X0172654Y0056803D01*
X0171053Y0056803D02*
X0170302Y0057554D01*
X0168801Y0057554D01*
X0168050Y0056803D01*
X0172654Y0053050D02*
X0175656Y0053050D01*
X0176457Y0040554D02*
X0174956Y0039053D01*
X0176457Y0040554D02*
X0176457Y0036050D01*
X0174956Y0036050D02*
X0177958Y0036050D01*
X0179560Y0036801D02*
X0180310Y0036050D01*
X0182562Y0036050D01*
X0182562Y0039053D01*
X0184164Y0038302D02*
X0185665Y0038302D01*
X0184164Y0036050D02*
X0184164Y0040554D01*
X0187166Y0040554D01*
X0179560Y0039053D02*
X0179560Y0036801D01*
X0173405Y0036801D02*
X0173405Y0036050D01*
X0172654Y0036050D01*
X0172654Y0036801D01*
X0173405Y0036801D01*
X0173156Y0037554D02*
X0170154Y0037554D01*
X0170154Y0035302D01*
X0171655Y0036053D01*
X0172406Y0036053D01*
X0173156Y0035302D01*
X0173156Y0033801D01*
X0172406Y0033050D01*
X0170905Y0033050D01*
X0170154Y0033801D01*
X0168553Y0033801D02*
X0167802Y0033050D01*
X0166301Y0033050D01*
X0165550Y0033801D01*
X0165550Y0036803D01*
X0166301Y0037554D01*
X0167802Y0037554D01*
X0168553Y0036803D01*
X0168050Y0036801D02*
X0171053Y0039803D01*
X0171053Y0036801D01*
X0170302Y0036050D01*
X0168801Y0036050D01*
X0168050Y0036801D01*
X0168050Y0039803D01*
X0168801Y0040554D01*
X0170302Y0040554D01*
X0171053Y0039803D01*
X0160364Y0020054D02*
X0157362Y0020054D01*
X0157362Y0015550D01*
X0155760Y0015550D02*
X0155760Y0018553D01*
X0157362Y0017802D02*
X0158863Y0017802D01*
X0155760Y0015550D02*
X0153508Y0015550D01*
X0152758Y0016301D01*
X0152758Y0018553D01*
X0151156Y0019303D02*
X0151156Y0016301D01*
X0150406Y0015550D01*
X0148905Y0015550D01*
X0148154Y0016301D01*
X0151156Y0019303D01*
X0150406Y0020054D01*
X0148905Y0020054D01*
X0148154Y0019303D01*
X0148154Y0016301D01*
X0146553Y0015550D02*
X0143550Y0015550D01*
X0145051Y0015550D02*
X0145051Y0020054D01*
X0143550Y0018553D01*
X0180301Y0065550D02*
X0179550Y0066301D01*
X0179550Y0069303D01*
X0180301Y0070054D01*
X0181802Y0070054D01*
X0182553Y0069303D01*
X0182553Y0067802D02*
X0181051Y0067802D01*
X0182553Y0067802D02*
X0182553Y0066301D01*
X0181802Y0065550D01*
X0180301Y0065550D01*
X0184154Y0065550D02*
X0184154Y0068553D01*
X0185655Y0068553D02*
X0184154Y0067051D01*
X0185655Y0068553D02*
X0186406Y0068553D01*
X0187991Y0067802D02*
X0187991Y0066301D01*
X0188741Y0065550D01*
X0190242Y0065550D01*
X0190993Y0067051D02*
X0187991Y0067051D01*
X0187991Y0067802D02*
X0188741Y0068553D01*
X0190242Y0068553D01*
X0190993Y0067802D01*
X0190993Y0067051D01*
X0191148Y0067050D02*
X0192733Y0067050D01*
X0193050Y0067367D01*
X0193050Y0068001D01*
X0192733Y0068318D01*
X0191148Y0068318D01*
X0191465Y0069260D02*
X0191148Y0069577D01*
X0191148Y0070211D01*
X0191465Y0070528D01*
X0192099Y0070211D02*
X0192099Y0069577D01*
X0191782Y0069260D01*
X0191465Y0069260D01*
X0190831Y0069894D02*
X0193367Y0069894D01*
X0193050Y0070211D02*
X0192733Y0070528D01*
X0192416Y0070528D01*
X0192099Y0070211D01*
X0193050Y0070211D02*
X0193050Y0069577D01*
X0192733Y0069260D01*
X0193345Y0068553D02*
X0192594Y0067802D01*
X0192594Y0066301D01*
X0193345Y0065550D01*
X0194846Y0065550D01*
X0195597Y0067051D02*
X0192594Y0067051D01*
X0193345Y0068553D02*
X0194846Y0068553D01*
X0195597Y0067802D01*
X0195597Y0067051D01*
X0197198Y0065550D02*
X0197198Y0068553D01*
X0199450Y0068553D01*
X0200201Y0067802D01*
X0200201Y0065550D01*
X0204648Y0067367D02*
X0204965Y0067050D01*
X0206233Y0067050D01*
X0206550Y0067367D01*
X0206550Y0068001D01*
X0206233Y0068318D01*
X0206233Y0069260D02*
X0204965Y0069260D01*
X0204648Y0069577D01*
X0204648Y0070211D01*
X0204965Y0070528D01*
X0206233Y0070528D01*
X0206550Y0070211D01*
X0206550Y0069577D01*
X0206233Y0069260D01*
X0204965Y0068318D02*
X0204648Y0068001D01*
X0204648Y0067367D01*
X0204648Y0071470D02*
X0206550Y0072738D01*
X0204648Y0072738D01*
X0204648Y0073680D02*
X0206550Y0074947D01*
X0204648Y0074947D01*
X0204648Y0073680D02*
X0206550Y0073680D01*
X0206550Y0071470D02*
X0204648Y0071470D01*
X0206867Y0075890D02*
X0206867Y0077157D01*
X0206233Y0078099D02*
X0204965Y0078099D01*
X0204648Y0078416D01*
X0204648Y0079050D01*
X0204965Y0079367D01*
X0206233Y0078099D01*
X0206550Y0078416D01*
X0206550Y0079050D01*
X0206233Y0079367D01*
X0204965Y0079367D01*
X0204965Y0080309D02*
X0205282Y0080309D01*
X0205599Y0080626D01*
X0205599Y0081260D01*
X0205916Y0081577D01*
X0206233Y0081577D01*
X0206550Y0081260D01*
X0206550Y0080626D01*
X0206233Y0080309D01*
X0205916Y0080309D01*
X0205599Y0080626D01*
X0205599Y0081260D02*
X0205282Y0081577D01*
X0204965Y0081577D01*
X0204648Y0081260D01*
X0204648Y0080626D01*
X0204965Y0080309D01*
X0196364Y0077303D02*
X0196364Y0076553D01*
X0193362Y0073550D01*
X0196364Y0073550D01*
X0193050Y0072421D02*
X0192733Y0072738D01*
X0192416Y0072738D01*
X0192099Y0072421D01*
X0192099Y0071470D01*
X0192733Y0071470D01*
X0193050Y0071787D01*
X0193050Y0072421D01*
X0192099Y0071470D02*
X0191465Y0072104D01*
X0191148Y0072738D01*
X0191010Y0073550D02*
X0188758Y0073550D01*
X0188758Y0078054D01*
X0191010Y0078054D01*
X0191760Y0077303D01*
X0191760Y0074301D01*
X0191010Y0073550D01*
X0187156Y0073550D02*
X0184154Y0073550D01*
X0184154Y0078054D01*
X0187156Y0078054D01*
X0185655Y0075802D02*
X0184154Y0075802D01*
X0182553Y0073550D02*
X0179550Y0073550D01*
X0179550Y0078054D01*
X0193362Y0077303D02*
X0194112Y0078054D01*
X0195614Y0078054D01*
X0196364Y0077303D01*
X0159610Y0109550D02*
X0157358Y0111051D01*
X0159610Y0112553D01*
X0157358Y0114054D02*
X0157358Y0109550D01*
X0155756Y0110301D02*
X0155756Y0113303D01*
X0152754Y0110301D01*
X0153505Y0109550D01*
X0155006Y0109550D01*
X0155756Y0110301D01*
X0152754Y0110301D02*
X0152754Y0113303D01*
X0153505Y0114054D01*
X0155006Y0114054D01*
X0155756Y0113303D01*
X0151153Y0109550D02*
X0148150Y0109550D01*
X0149651Y0109550D02*
X0149651Y0114054D01*
X0148150Y0112553D01*
X0144906Y0107554D02*
X0142654Y0105302D01*
X0145656Y0105302D01*
X0144906Y0103050D02*
X0144906Y0107554D01*
X0141053Y0106803D02*
X0140302Y0107554D01*
X0138801Y0107554D01*
X0138050Y0106803D01*
X0138050Y0103801D01*
X0138801Y0103050D01*
X0140302Y0103050D01*
X0141053Y0103801D01*
X0140302Y0090554D02*
X0138801Y0090554D01*
X0138050Y0089803D01*
X0138050Y0086801D01*
X0141053Y0089803D01*
X0141053Y0086801D01*
X0140302Y0086050D01*
X0138801Y0086050D01*
X0138050Y0086801D01*
X0141053Y0089803D02*
X0140302Y0090554D01*
X0142654Y0086801D02*
X0143405Y0086801D01*
X0143405Y0086050D01*
X0142654Y0086050D01*
X0142654Y0086801D01*
X0144956Y0086050D02*
X0147958Y0086050D01*
X0146457Y0086050D02*
X0146457Y0090554D01*
X0144956Y0089053D01*
X0149560Y0089053D02*
X0149560Y0086801D01*
X0150310Y0086050D01*
X0152562Y0086050D01*
X0152562Y0089053D01*
X0154164Y0088302D02*
X0155665Y0088302D01*
X0154164Y0086050D02*
X0154164Y0090554D01*
X0157166Y0090554D01*
X0145656Y0081803D02*
X0145656Y0081053D01*
X0144906Y0080302D01*
X0145656Y0079551D01*
X0145656Y0078801D01*
X0144906Y0078050D01*
X0143405Y0078050D01*
X0142654Y0078801D01*
X0141053Y0078801D02*
X0140302Y0078050D01*
X0138801Y0078050D01*
X0138050Y0078801D01*
X0138050Y0081803D01*
X0138801Y0082554D01*
X0140302Y0082554D01*
X0141053Y0081803D01*
X0142654Y0081803D02*
X0143405Y0082554D01*
X0144906Y0082554D01*
X0145656Y0081803D01*
X0144906Y0080302D02*
X0144155Y0080302D01*
X0145050Y0118050D02*
X0145050Y0122554D01*
X0147302Y0122554D01*
X0148053Y0121803D01*
X0148053Y0120302D01*
X0147302Y0119551D01*
X0145050Y0119551D01*
X0146551Y0119551D02*
X0148053Y0118050D01*
X0149654Y0118050D02*
X0152656Y0121053D01*
X0152656Y0121803D01*
X0151906Y0122554D01*
X0150405Y0122554D01*
X0149654Y0121803D01*
X0149654Y0118050D02*
X0152656Y0118050D01*
X0153505Y0124550D02*
X0152754Y0125301D01*
X0153505Y0124550D02*
X0155006Y0124550D01*
X0155756Y0125301D01*
X0155756Y0126051D01*
X0155006Y0126802D01*
X0154255Y0126802D01*
X0155006Y0126802D02*
X0155756Y0127553D01*
X0155756Y0128303D01*
X0155006Y0129054D01*
X0153505Y0129054D01*
X0152754Y0128303D01*
X0151153Y0128303D02*
X0150402Y0129054D01*
X0148901Y0129054D01*
X0148150Y0128303D01*
X0149651Y0126802D02*
X0150402Y0126802D01*
X0151153Y0126051D01*
X0151153Y0125301D01*
X0150402Y0124550D01*
X0148901Y0124550D01*
X0148150Y0125301D01*
X0150402Y0126802D02*
X0151153Y0127553D01*
X0151153Y0128303D01*
X0151906Y0133050D02*
X0151906Y0137554D01*
X0149654Y0135302D01*
X0152656Y0135302D01*
X0148053Y0135302D02*
X0147302Y0134551D01*
X0145050Y0134551D01*
X0145050Y0133050D02*
X0145050Y0137554D01*
X0147302Y0137554D01*
X0148053Y0136803D01*
X0148053Y0135302D01*
X0146551Y0134551D02*
X0148053Y0133050D01*
X0157358Y0128303D02*
X0157358Y0125301D01*
X0160360Y0128303D01*
X0160360Y0125301D01*
X0159610Y0124550D01*
X0158108Y0124550D01*
X0157358Y0125301D01*
X0157358Y0128303D02*
X0158108Y0129054D01*
X0159610Y0129054D01*
X0160360Y0128303D01*
X0155046Y0165300D02*
X0138554Y0165300D01*
X0137927Y0170800D02*
X0136348Y0170800D01*
X0145673Y0170800D02*
X0147927Y0170800D01*
X0138554Y0165300D02*
X0138401Y0165499D01*
X0138253Y0165701D01*
X0138110Y0165906D01*
X0137972Y0166115D01*
X0137839Y0166327D01*
X0137711Y0166542D01*
X0137589Y0166760D01*
X0137471Y0166981D01*
X0137359Y0167205D01*
X0137252Y0167431D01*
X0137151Y0167660D01*
X0137055Y0167891D01*
X0136964Y0168125D01*
X0136879Y0168360D01*
X0136800Y0168598D01*
X0136727Y0168837D01*
X0136659Y0169078D01*
X0136597Y0169320D01*
X0136541Y0169564D01*
X0136490Y0169810D01*
X0136446Y0170056D01*
X0136407Y0170303D01*
X0136375Y0170551D01*
X0136348Y0170800D01*
X0149896Y0181833D02*
X0150138Y0181755D01*
X0150378Y0181671D01*
X0150616Y0181582D01*
X0150852Y0181486D01*
X0151086Y0181385D01*
X0151317Y0181279D01*
X0151545Y0181166D01*
X0151771Y0181049D01*
X0151994Y0180926D01*
X0152213Y0180797D01*
X0152430Y0180663D01*
X0152643Y0180524D01*
X0152853Y0180380D01*
X0153059Y0180231D01*
X0153261Y0180077D01*
X0153460Y0179918D01*
X0153655Y0179754D01*
X0153846Y0179585D01*
X0154032Y0179412D01*
X0154215Y0179235D01*
X0154393Y0179053D01*
X0154566Y0178867D01*
X0154735Y0178676D01*
X0154899Y0178482D01*
X0155059Y0178284D01*
X0155214Y0178082D01*
X0155363Y0177876D01*
X0155508Y0177667D01*
X0155648Y0177454D01*
X0155782Y0177238D01*
X0155911Y0177018D01*
X0156035Y0176796D01*
X0156154Y0176571D01*
X0156266Y0176343D01*
X0156374Y0176112D01*
X0156475Y0175879D01*
X0156571Y0175643D01*
X0156662Y0175405D01*
X0156746Y0175165D01*
X0156825Y0174923D01*
X0156898Y0174679D01*
X0156964Y0174433D01*
X0157025Y0174186D01*
X0157080Y0173938D01*
X0157129Y0173688D01*
X0157172Y0173437D01*
X0157208Y0173185D01*
X0157239Y0172933D01*
X0157263Y0172679D01*
X0157281Y0172426D01*
X0157293Y0172171D01*
X0157299Y0171917D01*
X0157299Y0171662D01*
X0157293Y0171408D01*
X0157280Y0171154D01*
X0157261Y0170900D01*
X0157236Y0170647D01*
X0157205Y0170394D01*
X0157168Y0170142D01*
X0157125Y0169892D01*
X0157076Y0169642D01*
X0157021Y0169393D01*
X0156959Y0169146D01*
X0156892Y0168901D01*
X0156819Y0168657D01*
X0156740Y0168415D01*
X0156655Y0168176D01*
X0156564Y0167938D01*
X0156467Y0167702D01*
X0156365Y0167469D01*
X0156257Y0167239D01*
X0156144Y0167011D01*
X0156025Y0166786D01*
X0155901Y0166564D01*
X0155772Y0166345D01*
X0155637Y0166129D01*
X0155497Y0165916D01*
X0155351Y0165707D01*
X0155201Y0165502D01*
X0155046Y0165300D01*
X0159550Y0167050D02*
X0159550Y0171554D01*
X0161051Y0170053D01*
X0162553Y0171554D01*
X0162553Y0167050D01*
X0164154Y0167801D02*
X0164905Y0167050D01*
X0166406Y0167050D01*
X0167156Y0167801D01*
X0168758Y0168551D02*
X0171010Y0168551D01*
X0171760Y0169302D01*
X0171760Y0170803D01*
X0171010Y0171554D01*
X0168758Y0171554D01*
X0168758Y0167050D01*
X0167156Y0170803D02*
X0166406Y0171554D01*
X0164905Y0171554D01*
X0164154Y0170803D01*
X0164154Y0167801D01*
X0165655Y0173799D02*
X0165655Y0179804D01*
X0164905Y0179054D02*
X0166406Y0179054D01*
X0167156Y0178303D01*
X0168758Y0178303D02*
X0169508Y0179054D01*
X0171010Y0179054D01*
X0171760Y0178303D01*
X0171760Y0177553D01*
X0171010Y0176802D01*
X0171760Y0176051D01*
X0171760Y0175301D01*
X0171010Y0174550D01*
X0169508Y0174550D01*
X0168758Y0175301D01*
X0167156Y0175301D02*
X0167156Y0176051D01*
X0166406Y0176802D01*
X0164905Y0176802D01*
X0164154Y0177553D01*
X0164154Y0178303D01*
X0164905Y0179054D01*
X0162553Y0179054D02*
X0162553Y0175301D01*
X0161802Y0174550D01*
X0160301Y0174550D01*
X0159550Y0175301D01*
X0159550Y0179054D01*
X0164154Y0175301D02*
X0164905Y0174550D01*
X0166406Y0174550D01*
X0167156Y0175301D01*
X0170259Y0176802D02*
X0171010Y0176802D01*
X0174863Y0171554D02*
X0173362Y0170053D01*
X0174863Y0171554D02*
X0174863Y0167050D01*
X0173362Y0167050D02*
X0176364Y0167050D01*
X0177966Y0167050D02*
X0177966Y0167801D01*
X0180968Y0170803D01*
X0180968Y0171554D01*
X0177966Y0171554D01*
X0182570Y0170803D02*
X0182570Y0167801D01*
X0185572Y0170803D01*
X0185572Y0167801D01*
X0184822Y0167050D01*
X0183320Y0167050D01*
X0182570Y0167801D01*
X0182570Y0170803D02*
X0183320Y0171554D01*
X0184822Y0171554D01*
X0185572Y0170803D01*
X0187174Y0170803D02*
X0187924Y0171554D01*
X0189425Y0171554D01*
X0190176Y0170803D01*
X0190176Y0170053D01*
X0187174Y0167050D01*
X0190176Y0167050D01*
X0157252Y0170800D02*
X0155673Y0170800D01*
X0143704Y0181833D02*
X0143460Y0181755D01*
X0143218Y0181670D01*
X0142979Y0181580D01*
X0142741Y0181484D01*
X0142506Y0181382D01*
X0142273Y0181274D01*
X0142043Y0181161D01*
X0141816Y0181042D01*
X0141592Y0180918D01*
X0141371Y0180788D01*
X0141154Y0180653D01*
X0140939Y0180512D01*
X0140728Y0180366D01*
X0140521Y0180216D01*
X0140318Y0180060D01*
X0140118Y0179899D01*
X0139922Y0179734D01*
X0139731Y0179564D01*
X0139543Y0179389D01*
X0139360Y0179209D01*
X0139182Y0179026D01*
X0139007Y0178837D01*
X0138838Y0178645D01*
X0138673Y0178449D01*
X0138513Y0178248D01*
X0138359Y0178044D01*
X0138209Y0177836D01*
X0138064Y0177625D01*
X0137924Y0177410D01*
X0137790Y0177192D01*
X0137661Y0176970D01*
X0137538Y0176746D01*
X0137420Y0176518D01*
X0137307Y0176288D01*
X0137201Y0176055D01*
X0137100Y0175819D01*
X0137004Y0175581D01*
X0136915Y0175341D01*
X0136832Y0175099D01*
X0136754Y0174854D01*
X0136683Y0174608D01*
X0136617Y0174360D01*
X0136558Y0174111D01*
X0136504Y0173861D01*
X0136457Y0173609D01*
X0136416Y0173356D01*
X0136381Y0173102D01*
X0136352Y0172847D01*
X0136330Y0172592D01*
X0136314Y0172336D01*
X0136304Y0172080D01*
X0136300Y0171824D01*
X0136303Y0171567D01*
X0136311Y0171311D01*
X0136326Y0171055D01*
X0136348Y0170800D01*
X0042656Y0091803D02*
X0042656Y0091053D01*
X0041906Y0090302D01*
X0042656Y0089551D01*
X0042656Y0088801D01*
X0041906Y0088050D01*
X0040405Y0088050D01*
X0039654Y0088801D01*
X0038053Y0088050D02*
X0036551Y0089551D01*
X0037302Y0089551D02*
X0035050Y0089551D01*
X0035050Y0088050D02*
X0035050Y0092554D01*
X0037302Y0092554D01*
X0038053Y0091803D01*
X0038053Y0090302D01*
X0037302Y0089551D01*
X0039654Y0091803D02*
X0040405Y0092554D01*
X0041906Y0092554D01*
X0042656Y0091803D01*
X0041906Y0090302D02*
X0041155Y0090302D01*
X0019550Y0081260D02*
X0019550Y0080626D01*
X0019233Y0080309D01*
X0018916Y0080309D01*
X0018599Y0080626D01*
X0018599Y0081260D01*
X0018916Y0081577D01*
X0019233Y0081577D01*
X0019550Y0081260D01*
X0018599Y0081260D02*
X0018282Y0081577D01*
X0017965Y0081577D01*
X0017648Y0081260D01*
X0017648Y0080626D01*
X0017965Y0080309D01*
X0018282Y0080309D01*
X0018599Y0080626D01*
X0017965Y0079367D02*
X0019233Y0078099D01*
X0019550Y0078416D01*
X0019550Y0079050D01*
X0019233Y0079367D01*
X0017965Y0079367D01*
X0017648Y0079050D01*
X0017648Y0078416D01*
X0017965Y0078099D01*
X0019233Y0078099D01*
X0019867Y0077157D02*
X0019867Y0075890D01*
X0019550Y0074947D02*
X0017648Y0074947D01*
X0017648Y0073680D02*
X0019550Y0074947D01*
X0019550Y0073680D02*
X0017648Y0073680D01*
X0017648Y0072738D02*
X0019550Y0072738D01*
X0017648Y0071470D01*
X0019550Y0071470D01*
X0019233Y0070528D02*
X0017965Y0070528D01*
X0017648Y0070211D01*
X0017648Y0069577D01*
X0017965Y0069260D01*
X0019233Y0069260D01*
X0019550Y0069577D01*
X0019550Y0070211D01*
X0019233Y0070528D01*
X0019233Y0068318D02*
X0019550Y0068001D01*
X0019550Y0067367D01*
X0019233Y0067050D01*
X0017965Y0067050D01*
X0017648Y0067367D01*
X0017648Y0068001D01*
X0017965Y0068318D01*
X0006367Y0069894D02*
X0003831Y0069894D01*
X0004148Y0070211D02*
X0004465Y0070528D01*
X0004148Y0070211D02*
X0004148Y0069577D01*
X0004465Y0069260D01*
X0004782Y0069260D01*
X0005099Y0069577D01*
X0005099Y0070211D01*
X0005416Y0070528D01*
X0005733Y0070528D01*
X0006050Y0070211D01*
X0006050Y0069577D01*
X0005733Y0069260D01*
X0005733Y0068318D02*
X0004148Y0068318D01*
X0004148Y0067050D02*
X0005733Y0067050D01*
X0006050Y0067367D01*
X0006050Y0068001D01*
X0005733Y0068318D01*
X0005733Y0071470D02*
X0006050Y0071470D01*
X0005733Y0071470D02*
X0004465Y0072738D01*
X0004148Y0072738D01*
X0004148Y0071470D01*
X0027367Y0149050D02*
X0027050Y0149367D01*
X0027050Y0149684D01*
X0027367Y0150001D01*
X0028001Y0150001D01*
X0028318Y0149684D01*
X0028318Y0149367D01*
X0028001Y0149050D01*
X0027367Y0149050D01*
X0027367Y0150001D02*
X0027050Y0150318D01*
X0027050Y0150635D01*
X0027367Y0150952D01*
X0028001Y0150952D01*
X0028318Y0150635D01*
X0028318Y0150318D01*
X0028001Y0150001D01*
X0029260Y0149050D02*
X0029260Y0150952D01*
X0029894Y0150318D01*
X0030528Y0150952D01*
X0030528Y0149050D01*
X0031470Y0149050D02*
X0031470Y0150952D01*
X0031470Y0150001D02*
X0032737Y0150001D01*
X0032737Y0150952D02*
X0032737Y0149050D01*
X0033680Y0149050D02*
X0034947Y0149050D01*
X0033680Y0149050D02*
X0034947Y0150318D01*
X0033680Y0150318D01*
X0032421Y0162550D02*
X0031787Y0162550D01*
X0031470Y0162867D01*
X0031787Y0163501D02*
X0032737Y0163501D01*
X0032737Y0164135D02*
X0032421Y0164452D01*
X0031787Y0164452D01*
X0031470Y0164135D01*
X0031470Y0163818D01*
X0031787Y0163501D01*
X0032737Y0162867D02*
X0032737Y0164135D01*
X0032737Y0162867D02*
X0032421Y0162550D01*
X0030528Y0162867D02*
X0030528Y0163184D01*
X0030211Y0163501D01*
X0029577Y0163501D01*
X0029260Y0163818D01*
X0029260Y0164135D01*
X0029577Y0164452D01*
X0030211Y0164452D01*
X0030528Y0164135D01*
X0029894Y0164769D02*
X0029894Y0162233D01*
X0029577Y0162550D02*
X0030211Y0162550D01*
X0030528Y0162867D01*
X0029577Y0162550D02*
X0029260Y0162867D01*
X0028318Y0162867D02*
X0028318Y0164452D01*
X0027050Y0164452D02*
X0027050Y0162867D01*
X0027367Y0162550D01*
X0028001Y0162550D01*
X0028318Y0162867D01*
X0193550Y0018553D02*
X0195051Y0020054D01*
X0195051Y0015550D01*
X0193550Y0015550D02*
X0196553Y0015550D01*
X0198154Y0016301D02*
X0201156Y0019303D01*
X0201156Y0016301D01*
X0200406Y0015550D01*
X0198905Y0015550D01*
X0198154Y0016301D01*
X0198154Y0019303D01*
X0198905Y0020054D01*
X0200406Y0020054D01*
X0201156Y0019303D01*
X0202758Y0018553D02*
X0202758Y0016301D01*
X0203508Y0015550D01*
X0205760Y0015550D01*
X0205760Y0018553D01*
X0207362Y0017802D02*
X0208863Y0017802D01*
X0207362Y0015550D02*
X0207362Y0020054D01*
X0210364Y0020054D01*
D14*
X0178800Y0021800D03*
X0128800Y0021800D03*
D15*
X0044376Y0187906D02*
X0045143Y0188673D01*
X0045143Y0189440D01*
X0044376Y0190207D01*
X0040539Y0190207D01*
X0040539Y0189440D02*
X0040539Y0190975D01*
X0042074Y0192509D02*
X0040539Y0194044D01*
X0045143Y0194044D01*
X0045143Y0192509D02*
X0045143Y0195579D01*
X0097000Y0197767D02*
X0097767Y0197000D01*
X0099302Y0197000D01*
X0100069Y0197767D01*
X0100069Y0198535D01*
X0099302Y0199302D01*
X0097767Y0199302D01*
X0097000Y0200069D01*
X0097000Y0200837D01*
X0097767Y0201604D01*
X0099302Y0201604D01*
X0100069Y0200837D01*
X0101604Y0201604D02*
X0101604Y0197000D01*
X0104673Y0197000D01*
X0106208Y0197000D02*
X0107742Y0197000D01*
X0106975Y0197000D02*
X0106975Y0201604D01*
X0106208Y0201604D02*
X0107742Y0201604D01*
X0109277Y0201604D02*
X0111579Y0201604D01*
X0112346Y0200837D01*
X0112346Y0197767D01*
X0111579Y0197000D01*
X0109277Y0197000D01*
X0109277Y0201604D01*
X0109277Y0207000D02*
X0106208Y0207000D01*
X0109277Y0210069D01*
X0109277Y0210837D01*
X0108510Y0211604D01*
X0106975Y0211604D01*
X0106208Y0210837D01*
X0104673Y0210837D02*
X0103906Y0211604D01*
X0102371Y0211604D01*
X0101604Y0210837D01*
X0101604Y0210069D01*
X0102371Y0209302D01*
X0103906Y0209302D01*
X0104673Y0208535D01*
X0104673Y0207767D01*
X0103906Y0207000D01*
X0102371Y0207000D01*
X0101604Y0207767D01*
X0100069Y0207767D02*
X0100069Y0211604D01*
X0097000Y0211604D02*
X0097000Y0207767D01*
X0097767Y0207000D01*
X0099302Y0207000D01*
X0100069Y0207767D01*
X0103139Y0206233D02*
X0103139Y0212371D01*
X0113881Y0201604D02*
X0113881Y0197000D01*
X0116950Y0197000D01*
X0115416Y0199302D02*
X0113881Y0199302D01*
X0113881Y0201604D02*
X0116950Y0201604D01*
D16*
X0142600Y0126800D03*
X0142600Y0111800D03*
X0171000Y0111800D03*
X0171000Y0126800D03*
X0061000Y0081800D03*
X0032600Y0081800D03*
X0032600Y0051800D03*
X0061000Y0051800D03*
D17*
X0098445Y0074616D02*
X0098445Y0077769D01*
X0099496Y0078819D01*
X0101597Y0078819D01*
X0102648Y0077769D01*
X0102648Y0074616D01*
X0104750Y0074616D02*
X0098445Y0074616D01*
X0098445Y0081061D02*
X0098445Y0083163D01*
X0098445Y0082112D02*
X0104750Y0082112D01*
X0104750Y0081061D02*
X0104750Y0083163D01*
X0103699Y0085358D02*
X0104750Y0086409D01*
X0104750Y0088511D01*
X0103699Y0089562D01*
X0103699Y0091804D02*
X0104750Y0092855D01*
X0104750Y0094957D01*
X0103699Y0096007D01*
X0102648Y0096007D01*
X0101597Y0094957D01*
X0101597Y0093906D01*
X0101597Y0094957D02*
X0100546Y0096007D01*
X0099496Y0096007D01*
X0098445Y0094957D01*
X0098445Y0092855D01*
X0099496Y0091804D01*
X0099496Y0089562D02*
X0098445Y0088511D01*
X0098445Y0086409D01*
X0099496Y0085358D01*
X0103699Y0085358D01*
X0104750Y0098249D02*
X0100546Y0102453D01*
X0099496Y0102453D01*
X0098445Y0101402D01*
X0098445Y0099300D01*
X0099496Y0098249D01*
X0104750Y0098249D02*
X0104750Y0102453D01*
X0104750Y0104695D02*
X0098445Y0104695D01*
X0100546Y0106797D01*
X0098445Y0108898D01*
X0104750Y0108898D01*
X0104750Y0111140D02*
X0098445Y0115344D01*
X0099496Y0117586D02*
X0098445Y0118637D01*
X0098445Y0120739D01*
X0099496Y0121789D01*
X0100546Y0121789D01*
X0104750Y0117586D01*
X0104750Y0121789D01*
X0103699Y0124031D02*
X0104750Y0125082D01*
X0104750Y0127184D01*
X0103699Y0128235D01*
X0101597Y0128235D01*
X0100546Y0127184D01*
X0100546Y0126133D01*
X0101597Y0124031D01*
X0098445Y0124031D01*
X0098445Y0128235D01*
X0099496Y0130477D02*
X0098445Y0131528D01*
X0098445Y0133630D01*
X0099496Y0134680D01*
X0103699Y0130477D01*
X0104750Y0131528D01*
X0104750Y0133630D01*
X0103699Y0134680D01*
X0099496Y0134680D01*
X0098445Y0136922D02*
X0098445Y0141126D01*
X0100546Y0143368D02*
X0098445Y0145470D01*
X0104750Y0145470D01*
X0104750Y0147571D02*
X0104750Y0143368D01*
X0101597Y0139024D02*
X0101597Y0136922D01*
X0098445Y0136922D02*
X0104750Y0136922D01*
X0103699Y0130477D02*
X0099496Y0130477D01*
X0104750Y0115344D02*
X0098445Y0111140D01*
X0099496Y0149813D02*
X0098445Y0150864D01*
X0098445Y0152966D01*
X0099496Y0154017D01*
X0100546Y0154017D01*
X0104750Y0149813D01*
X0104750Y0154017D01*
X0103699Y0156259D02*
X0102648Y0156259D01*
X0101597Y0157310D01*
X0101597Y0159412D01*
X0102648Y0160462D01*
X0103699Y0160462D01*
X0104750Y0159412D01*
X0104750Y0157310D01*
X0103699Y0156259D01*
X0101597Y0157310D02*
X0100546Y0156259D01*
X0099496Y0156259D01*
X0098445Y0157310D01*
X0098445Y0159412D01*
X0099496Y0160462D01*
X0100546Y0160462D01*
X0101597Y0159412D01*
X0101597Y0162704D02*
X0101597Y0165857D01*
X0102648Y0166908D01*
X0103699Y0166908D01*
X0104750Y0165857D01*
X0104750Y0162704D01*
X0098445Y0162704D01*
X0098445Y0165857D01*
X0099496Y0166908D01*
X0100546Y0166908D01*
X0101597Y0165857D01*
X0100697Y0176599D02*
X0100697Y0185006D01*
X0099646Y0183955D02*
X0098595Y0182904D01*
X0098595Y0181854D01*
X0099646Y0180803D01*
X0101748Y0180803D01*
X0102799Y0179752D01*
X0102799Y0178701D01*
X0101748Y0177650D01*
X0099646Y0177650D01*
X0098595Y0178701D01*
X0096354Y0178701D02*
X0095303Y0177650D01*
X0093201Y0177650D01*
X0092150Y0178701D01*
X0092150Y0183955D01*
X0096354Y0183955D02*
X0096354Y0178701D01*
X0099646Y0183955D02*
X0101748Y0183955D01*
X0102799Y0182904D01*
X0105041Y0181854D02*
X0107143Y0183955D01*
X0107143Y0177650D01*
X0105041Y0177650D02*
X0109245Y0177650D01*
D18*
X0093729Y0188335D02*
X0093729Y0205265D01*
X0059871Y0205265D01*
X0059871Y0188335D01*
X0093729Y0188335D01*
X0084674Y0206643D02*
X0084674Y0212548D01*
X0082706Y0212548D01*
X0080737Y0210580D01*
X0078769Y0212548D01*
X0076800Y0212548D01*
X0076800Y0206643D01*
D19*
X0054300Y0161800D02*
X0029300Y0161800D01*
X0026800Y0159300D01*
X0026800Y0154300D01*
X0029300Y0151800D01*
X0054300Y0151800D01*
X0056800Y0154300D01*
X0056800Y0159300D01*
X0054300Y0161800D01*
X0051800Y0031800D02*
X0031800Y0031800D01*
X0029300Y0026800D01*
X0026800Y0024300D01*
X0026800Y0019300D01*
X0029300Y0016800D01*
X0031800Y0011800D01*
X0051800Y0011800D01*
X0054300Y0016800D01*
X0056800Y0019300D01*
X0056800Y0024300D01*
X0054300Y0026800D01*
X0051800Y0031800D01*
X0066800Y0024300D02*
X0066800Y0019300D01*
X0069300Y0016800D01*
X0071800Y0011800D01*
X0091800Y0011800D01*
X0094300Y0016800D01*
X0096800Y0019300D01*
X0096800Y0024300D01*
X0094300Y0026800D01*
X0091800Y0031800D01*
X0071800Y0031800D01*
X0069300Y0026800D01*
X0066800Y0024300D01*
M02*
