%
M48
M72
T01C0.02362
T02C0.03150
T03C0.03200
T04C0.03937
T05C0.04000
T06C0.07480
%
T01
X61800Y36800
X76800Y46800
X66800Y61800
X46800Y86800
X36800Y91800
X21800Y71800
X66800Y96800
X71800Y106800
X76800Y131800
X76800Y146800
X61800Y141800
X61800Y156800
X56209Y162989
X21800Y136800
X96800Y181800
X106800Y161800
X106800Y116800
X126800Y111800
X141800Y106800
X161800Y86800
X181800Y101800
X131800Y76800
X101800Y46800
X126800Y16800
T02
X36879Y175501
X32154Y178650
X36879Y181800
X32154Y184950
X36879Y188099
X68926Y196800
X76800Y196800
X84674Y196800
T03
X86800Y171800
X86800Y161800
X86800Y151800
X86800Y141800
X86800Y131800
X86800Y121800
X86800Y111800
X86800Y101800
X86800Y91800
X86800Y81800
X86800Y71800
X86800Y61800
X86800Y51800
X86800Y41800
X66800Y51800
X46800Y66800
X36800Y66800
X26800Y51800
X26800Y81800
X66800Y81800
X116800Y81800
X116800Y91800
X116800Y101800
X116800Y111800
X116800Y121800
X116800Y131800
X116800Y141800
X116800Y151800
X116800Y161800
X116800Y171800
X141800Y171800
X146800Y179300
X151800Y171800
X136800Y126800
X136800Y111800
X141800Y96800
X151800Y96800
X151800Y71800
X141800Y71800
X166800Y71800
X176800Y71800
X171800Y46800
X181800Y46800
X186800Y21800
X166800Y21800
X146800Y46800
X136800Y46800
X116800Y41800
X116800Y51800
X116800Y61800
X116800Y71800
X116800Y21800
X136800Y21800
X176800Y111800
X176800Y126800
T04
X61052Y196800
X92548Y196800
T05
X31800Y156800
X41800Y156800
X51800Y156800
X11800Y141800
X11800Y131800
X11800Y121800
X11800Y111800
X11800Y101800
X11800Y91800
X11800Y81800
X11800Y71800
X11800Y61800
X11800Y51800
X11800Y41800
X11800Y31800
X11800Y21800
X31800Y21800
X51800Y21800
X71800Y21800
X91800Y21800
X198800Y71800
X198800Y81800
X198800Y91800
X198800Y101800
X198800Y111800
X198800Y121800
X198800Y131800
X198800Y141800
T06
X16800Y196170
X16800Y167430
M30
