G75*
%MOIN*%
%OFA0B0*%
%FSLAX25Y25*%
%IPPOS*%
%LPD*%
%AMOC8*
5,1,8,0,0,1.08239X$1,22.5*
%
%ADD10C,0.00000*%
%ADD11OC8,0.05200*%
%ADD12C,0.05200*%
%ADD13C,0.05150*%
%ADD14C,0.11220*%
%ADD15C,0.05200*%
%ADD16C,0.05937*%
%ADD17C,0.07400*%
%ADD18C,0.01600*%
%ADD19C,0.03962*%
D10*
X0006800Y0006800D02*
X0006800Y0203650D01*
X0203650Y0203650D01*
X0203650Y0006800D01*
X0006800Y0006800D01*
D11*
X0026800Y0051800D03*
X0036800Y0066800D03*
X0046800Y0066800D03*
X0026800Y0081800D03*
X0066800Y0081800D03*
X0066800Y0051800D03*
X0136800Y0046800D03*
X0146800Y0046800D03*
X0136800Y0021800D03*
X0171800Y0046800D03*
X0181800Y0046800D03*
X0186800Y0021800D03*
X0176800Y0071800D03*
X0166800Y0071800D03*
X0151800Y0071800D03*
X0141800Y0071800D03*
X0141800Y0096800D03*
X0151800Y0096800D03*
X0136800Y0111800D03*
X0136800Y0126800D03*
X0176800Y0126800D03*
X0176800Y0111800D03*
X0151800Y0171800D03*
X0146800Y0179300D03*
X0141800Y0171800D03*
D12*
X0116800Y0021800D03*
X0166800Y0021800D03*
D13*
X0036879Y0175501D03*
X0032154Y0178650D03*
X0036879Y0181800D03*
X0032154Y0184950D03*
X0036879Y0188099D03*
X0068926Y0196800D03*
X0076800Y0196800D03*
X0084674Y0196800D03*
D14*
X0016800Y0196170D03*
X0016800Y0167430D03*
D15*
X0084200Y0171800D02*
X0089400Y0171800D01*
X0089400Y0161800D02*
X0084200Y0161800D01*
X0084200Y0151800D02*
X0089400Y0151800D01*
X0089400Y0141800D02*
X0084200Y0141800D01*
X0084200Y0131800D02*
X0089400Y0131800D01*
X0089400Y0121800D02*
X0084200Y0121800D01*
X0084200Y0111800D02*
X0089400Y0111800D01*
X0089400Y0101800D02*
X0084200Y0101800D01*
X0084200Y0091800D02*
X0089400Y0091800D01*
X0089400Y0081800D02*
X0084200Y0081800D01*
X0084200Y0071800D02*
X0089400Y0071800D01*
X0089400Y0061800D02*
X0084200Y0061800D01*
X0084200Y0051800D02*
X0089400Y0051800D01*
X0089400Y0041800D02*
X0084200Y0041800D01*
X0114200Y0041800D02*
X0119400Y0041800D01*
X0119400Y0051800D02*
X0114200Y0051800D01*
X0114200Y0061800D02*
X0119400Y0061800D01*
X0119400Y0071800D02*
X0114200Y0071800D01*
X0114200Y0081800D02*
X0119400Y0081800D01*
X0119400Y0091800D02*
X0114200Y0091800D01*
X0114200Y0101800D02*
X0119400Y0101800D01*
X0119400Y0111800D02*
X0114200Y0111800D01*
X0114200Y0121800D02*
X0119400Y0121800D01*
X0119400Y0131800D02*
X0114200Y0131800D01*
X0114200Y0141800D02*
X0119400Y0141800D01*
X0119400Y0151800D02*
X0114200Y0151800D01*
X0114200Y0161800D02*
X0119400Y0161800D01*
X0119400Y0171800D02*
X0114200Y0171800D01*
D16*
X0092548Y0196800D03*
X0061052Y0196800D03*
D17*
X0051800Y0156800D03*
X0041800Y0156800D03*
X0031800Y0156800D03*
X0011800Y0141800D03*
X0011800Y0131800D03*
X0011800Y0121800D03*
X0011800Y0111800D03*
X0011800Y0101800D03*
X0011800Y0091800D03*
X0011800Y0081800D03*
X0011800Y0071800D03*
X0011800Y0061800D03*
X0011800Y0051800D03*
X0011800Y0041800D03*
X0011800Y0031800D03*
X0011800Y0021800D03*
X0031800Y0021800D03*
X0051800Y0021800D03*
X0071800Y0021800D03*
X0091800Y0021800D03*
X0198800Y0071800D03*
X0198800Y0081800D03*
X0198800Y0091800D03*
X0198800Y0101800D03*
X0198800Y0111800D03*
X0198800Y0121800D03*
X0198800Y0131800D03*
X0198800Y0141800D03*
D18*
X0198850Y0147100D02*
X0197746Y0147100D01*
X0195798Y0146293D01*
X0194307Y0144802D01*
X0193500Y0142854D01*
X0193500Y0140746D01*
X0194307Y0138798D01*
X0195798Y0137307D01*
X0197022Y0136800D01*
X0195798Y0136293D01*
X0194307Y0134802D01*
X0193500Y0132854D01*
X0193500Y0130746D01*
X0194307Y0128798D01*
X0195798Y0127307D01*
X0197022Y0126800D01*
X0195798Y0126293D01*
X0194307Y0124802D01*
X0193500Y0122854D01*
X0193500Y0120746D01*
X0194307Y0118798D01*
X0195798Y0117307D01*
X0197022Y0116800D01*
X0195798Y0116293D01*
X0194307Y0114802D01*
X0193500Y0112854D01*
X0193500Y0110746D01*
X0194307Y0108798D01*
X0195798Y0107307D01*
X0197022Y0106800D01*
X0195798Y0106293D01*
X0194307Y0104802D01*
X0193500Y0102854D01*
X0193500Y0100746D01*
X0194307Y0098798D01*
X0195798Y0097307D01*
X0197022Y0096800D01*
X0195798Y0096293D01*
X0194307Y0094802D01*
X0193500Y0092854D01*
X0193500Y0090746D01*
X0193678Y0090316D01*
X0189200Y0094794D01*
X0189200Y0162277D01*
X0188835Y0163159D01*
X0188159Y0163835D01*
X0170659Y0181335D01*
X0169777Y0181700D01*
X0150340Y0181700D01*
X0148540Y0183500D01*
X0145060Y0183500D01*
X0142600Y0181040D01*
X0142600Y0177560D01*
X0145060Y0175100D01*
X0148540Y0175100D01*
X0150340Y0176900D01*
X0168306Y0176900D01*
X0184400Y0160806D01*
X0184400Y0104264D01*
X0184200Y0104464D01*
X0184200Y0107277D01*
X0183835Y0108159D01*
X0183159Y0108835D01*
X0181000Y0110994D01*
X0181000Y0113540D01*
X0178540Y0116000D01*
X0178454Y0116000D01*
X0178835Y0116380D01*
X0179200Y0117262D01*
X0179200Y0123260D01*
X0181000Y0125060D01*
X0181000Y0128540D01*
X0178540Y0131000D01*
X0175060Y0131000D01*
X0172600Y0128540D01*
X0172600Y0125060D01*
X0174400Y0123260D01*
X0174400Y0118734D01*
X0170565Y0114899D01*
X0170200Y0114017D01*
X0170200Y0109583D01*
X0170565Y0108701D01*
X0174400Y0104866D01*
X0174400Y0075340D01*
X0172600Y0073540D01*
X0172600Y0070060D01*
X0175060Y0067600D01*
X0178540Y0067600D01*
X0181000Y0070060D01*
X0181000Y0073540D01*
X0179200Y0075340D01*
X0179200Y0099336D01*
X0179771Y0098764D01*
X0181088Y0098219D01*
X0182512Y0098219D01*
X0183829Y0098764D01*
X0184400Y0099336D01*
X0184400Y0093323D01*
X0184765Y0092441D01*
X0193749Y0083456D01*
X0193500Y0082854D01*
X0193500Y0080746D01*
X0194307Y0078798D01*
X0194608Y0078497D01*
X0192141Y0076030D01*
X0192141Y0076030D01*
X0191465Y0075355D01*
X0191100Y0074473D01*
X0191100Y0069494D01*
X0172606Y0051000D01*
X0170060Y0051000D01*
X0167600Y0048540D01*
X0167600Y0045060D01*
X0170060Y0042600D01*
X0173540Y0042600D01*
X0176000Y0045060D01*
X0176000Y0047606D01*
X0195535Y0067141D01*
X0195609Y0067320D01*
X0195917Y0067096D01*
X0196689Y0066703D01*
X0197512Y0066435D01*
X0198367Y0066300D01*
X0198600Y0066300D01*
X0198600Y0071600D01*
X0198850Y0071600D01*
X0198850Y0011600D01*
X0011600Y0011600D01*
X0011600Y0021600D01*
X0012000Y0021600D01*
X0012000Y0022000D01*
X0017300Y0022000D01*
X0017300Y0022233D01*
X0017165Y0023088D01*
X0016897Y0023911D01*
X0016504Y0024683D01*
X0015995Y0025383D01*
X0015383Y0025995D01*
X0014683Y0026504D01*
X0013911Y0026897D01*
X0013856Y0026915D01*
X0014802Y0027307D01*
X0016293Y0028798D01*
X0017100Y0030746D01*
X0017100Y0032854D01*
X0016293Y0034802D01*
X0014802Y0036293D01*
X0013578Y0036800D01*
X0014802Y0037307D01*
X0016293Y0038798D01*
X0017100Y0040746D01*
X0017100Y0042854D01*
X0016293Y0044802D01*
X0014802Y0046293D01*
X0013578Y0046800D01*
X0014802Y0047307D01*
X0016293Y0048798D01*
X0017100Y0050746D01*
X0017100Y0052854D01*
X0016293Y0054802D01*
X0015992Y0055103D01*
X0026741Y0065851D01*
X0027416Y0066526D01*
X0027781Y0067408D01*
X0027781Y0073761D01*
X0027416Y0074643D01*
X0026741Y0075318D01*
X0026741Y0075318D01*
X0024300Y0077759D01*
X0024300Y0078360D01*
X0025060Y0077600D01*
X0028540Y0077600D01*
X0031000Y0080060D01*
X0031000Y0083540D01*
X0028540Y0086000D01*
X0025060Y0086000D01*
X0024200Y0085140D01*
X0024200Y0134136D01*
X0024836Y0134771D01*
X0025381Y0136088D01*
X0025381Y0137512D01*
X0024836Y0138829D01*
X0023829Y0139836D01*
X0022512Y0140381D01*
X0021088Y0140381D01*
X0019771Y0139836D01*
X0018764Y0138829D01*
X0018219Y0137512D01*
X0018219Y0136088D01*
X0018764Y0134771D01*
X0019400Y0134136D01*
X0019400Y0082212D01*
X0019500Y0081971D01*
X0019500Y0076287D01*
X0019865Y0075405D01*
X0020240Y0075030D01*
X0019771Y0074836D01*
X0018764Y0073829D01*
X0018219Y0072512D01*
X0018219Y0071088D01*
X0018764Y0069771D01*
X0019771Y0068764D01*
X0021088Y0068219D01*
X0022320Y0068219D01*
X0017058Y0062956D01*
X0016293Y0064802D01*
X0014802Y0066293D01*
X0013856Y0066685D01*
X0013911Y0066703D01*
X0014683Y0067096D01*
X0015383Y0067605D01*
X0015995Y0068217D01*
X0016504Y0068917D01*
X0016897Y0069689D01*
X0017165Y0070512D01*
X0017300Y0071367D01*
X0017300Y0071600D01*
X0012000Y0071600D01*
X0012000Y0072000D01*
X0017300Y0072000D01*
X0017300Y0072233D01*
X0017165Y0073088D01*
X0016897Y0073911D01*
X0016504Y0074683D01*
X0015995Y0075383D01*
X0015383Y0075995D01*
X0014683Y0076504D01*
X0013911Y0076897D01*
X0013856Y0076915D01*
X0014802Y0077307D01*
X0016293Y0078798D01*
X0017100Y0080746D01*
X0017100Y0082854D01*
X0016293Y0084802D01*
X0014802Y0086293D01*
X0013578Y0086800D01*
X0014802Y0087307D01*
X0016293Y0088798D01*
X0017100Y0090746D01*
X0017100Y0092854D01*
X0016293Y0094802D01*
X0014802Y0096293D01*
X0013578Y0096800D01*
X0014802Y0097307D01*
X0016293Y0098798D01*
X0017100Y0100746D01*
X0017100Y0102854D01*
X0016293Y0104802D01*
X0014802Y0106293D01*
X0013578Y0106800D01*
X0014802Y0107307D01*
X0016293Y0108798D01*
X0017100Y0110746D01*
X0017100Y0112854D01*
X0016293Y0114802D01*
X0014802Y0116293D01*
X0013578Y0116800D01*
X0014802Y0117307D01*
X0016293Y0118798D01*
X0017100Y0120746D01*
X0017100Y0122854D01*
X0016293Y0124802D01*
X0014802Y0126293D01*
X0013578Y0126800D01*
X0014802Y0127307D01*
X0016293Y0128798D01*
X0017100Y0130746D01*
X0017100Y0132854D01*
X0016293Y0134802D01*
X0014802Y0136293D01*
X0013578Y0136800D01*
X0014802Y0137307D01*
X0016293Y0138798D01*
X0017100Y0140746D01*
X0017100Y0142854D01*
X0016293Y0144802D01*
X0014802Y0146293D01*
X0012854Y0147100D01*
X0011600Y0147100D01*
X0011600Y0162433D01*
X0012716Y0161317D01*
X0015366Y0160220D01*
X0018234Y0160220D01*
X0020884Y0161317D01*
X0022913Y0163346D01*
X0024010Y0165996D01*
X0024010Y0168864D01*
X0022913Y0171514D01*
X0020884Y0173542D01*
X0018234Y0174640D01*
X0015366Y0174640D01*
X0012716Y0173542D01*
X0011600Y0172427D01*
X0011600Y0191173D01*
X0012716Y0190058D01*
X0015366Y0188960D01*
X0018234Y0188960D01*
X0020884Y0190058D01*
X0022913Y0192086D01*
X0024010Y0194736D01*
X0024010Y0197604D01*
X0023494Y0198850D01*
X0056956Y0198850D01*
X0056483Y0197709D01*
X0056483Y0195891D01*
X0057026Y0194582D01*
X0056803Y0194674D01*
X0034672Y0194674D01*
X0033790Y0194309D01*
X0030120Y0190638D01*
X0029754Y0189756D01*
X0029754Y0188454D01*
X0028615Y0187314D01*
X0027980Y0185780D01*
X0027980Y0184119D01*
X0028615Y0182585D01*
X0029400Y0181800D01*
X0028615Y0181015D01*
X0027980Y0179481D01*
X0027980Y0177820D01*
X0028615Y0176286D01*
X0029789Y0175111D01*
X0031324Y0174476D01*
X0032612Y0174476D01*
X0032824Y0173821D01*
X0033137Y0173208D01*
X0033542Y0172651D01*
X0034029Y0172164D01*
X0034586Y0171759D01*
X0035199Y0171446D01*
X0035854Y0171234D01*
X0036534Y0171126D01*
X0036879Y0171126D01*
X0037223Y0171126D01*
X0037903Y0171234D01*
X0038558Y0171446D01*
X0039172Y0171759D01*
X0039729Y0172164D01*
X0040216Y0172651D01*
X0040620Y0173208D01*
X0040933Y0173821D01*
X0041146Y0174476D01*
X0041254Y0175156D01*
X0041254Y0175501D01*
X0041254Y0175845D01*
X0041146Y0176525D01*
X0040933Y0177180D01*
X0040620Y0177794D01*
X0040216Y0178351D01*
X0039775Y0178792D01*
X0040383Y0179400D01*
X0045806Y0179400D01*
X0064400Y0160806D01*
X0064400Y0159264D01*
X0063829Y0159836D01*
X0062512Y0160381D01*
X0061088Y0160381D01*
X0059771Y0159836D01*
X0059473Y0159538D01*
X0059135Y0160355D01*
X0058887Y0160602D01*
X0059245Y0160961D01*
X0059790Y0162277D01*
X0059790Y0163702D01*
X0059245Y0165018D01*
X0058238Y0166025D01*
X0056922Y0166570D01*
X0055497Y0166570D01*
X0054181Y0166025D01*
X0053173Y0165018D01*
X0052628Y0163702D01*
X0052628Y0162277D01*
X0052701Y0162100D01*
X0050746Y0162100D01*
X0048798Y0161293D01*
X0047307Y0159802D01*
X0046915Y0158856D01*
X0046897Y0158911D01*
X0046504Y0159683D01*
X0045995Y0160383D01*
X0045383Y0160995D01*
X0044683Y0161504D01*
X0043911Y0161897D01*
X0043088Y0162165D01*
X0042233Y0162300D01*
X0042000Y0162300D01*
X0042000Y0157000D01*
X0041600Y0157000D01*
X0041600Y0162300D01*
X0041367Y0162300D01*
X0040512Y0162165D01*
X0039689Y0161897D01*
X0038917Y0161504D01*
X0038217Y0160995D01*
X0037605Y0160383D01*
X0037096Y0159683D01*
X0036703Y0158911D01*
X0036685Y0158856D01*
X0036293Y0159802D01*
X0034802Y0161293D01*
X0032854Y0162100D01*
X0030746Y0162100D01*
X0028798Y0161293D01*
X0027307Y0159802D01*
X0026500Y0157854D01*
X0026500Y0155746D01*
X0027307Y0153798D01*
X0028798Y0152307D01*
X0029400Y0152057D01*
X0029400Y0096323D01*
X0029765Y0095441D01*
X0033219Y0091987D01*
X0033219Y0091088D01*
X0033764Y0089771D01*
X0034771Y0088764D01*
X0036088Y0088219D01*
X0037512Y0088219D01*
X0038829Y0088764D01*
X0039836Y0089771D01*
X0040381Y0091088D01*
X0040381Y0092512D01*
X0039836Y0093829D01*
X0038829Y0094836D01*
X0037512Y0095381D01*
X0036613Y0095381D01*
X0034200Y0097794D01*
X0034200Y0152057D01*
X0034802Y0152307D01*
X0036293Y0153798D01*
X0036685Y0154744D01*
X0036703Y0154689D01*
X0037096Y0153917D01*
X0037605Y0153217D01*
X0038217Y0152605D01*
X0038917Y0152096D01*
X0039689Y0151703D01*
X0040512Y0151435D01*
X0041367Y0151300D01*
X0041600Y0151300D01*
X0041600Y0156600D01*
X0042000Y0156600D01*
X0042000Y0151300D01*
X0042233Y0151300D01*
X0043088Y0151435D01*
X0043911Y0151703D01*
X0044683Y0152096D01*
X0045383Y0152605D01*
X0045995Y0153217D01*
X0046504Y0153917D01*
X0046897Y0154689D01*
X0046915Y0154744D01*
X0047307Y0153798D01*
X0048798Y0152307D01*
X0050746Y0151500D01*
X0052854Y0151500D01*
X0054700Y0152265D01*
X0054700Y0041023D01*
X0055065Y0040141D01*
X0055741Y0039465D01*
X0058219Y0036987D01*
X0058219Y0036088D01*
X0058764Y0034771D01*
X0059771Y0033764D01*
X0061088Y0033219D01*
X0062512Y0033219D01*
X0063829Y0033764D01*
X0064836Y0034771D01*
X0065381Y0036088D01*
X0065381Y0037512D01*
X0064836Y0038829D01*
X0063829Y0039836D01*
X0062512Y0040381D01*
X0061613Y0040381D01*
X0059500Y0042494D01*
X0059500Y0139036D01*
X0059771Y0138764D01*
X0061088Y0138219D01*
X0062512Y0138219D01*
X0063829Y0138764D01*
X0064400Y0139336D01*
X0064400Y0099464D01*
X0063764Y0098829D01*
X0063219Y0097512D01*
X0063219Y0096088D01*
X0063764Y0094771D01*
X0064771Y0093764D01*
X0066088Y0093219D01*
X0067512Y0093219D01*
X0068829Y0093764D01*
X0069836Y0094771D01*
X0070381Y0096088D01*
X0070381Y0097512D01*
X0069836Y0098829D01*
X0069200Y0099464D01*
X0069200Y0104336D01*
X0069771Y0103764D01*
X0071088Y0103219D01*
X0072512Y0103219D01*
X0073829Y0103764D01*
X0074400Y0104336D01*
X0074400Y0049464D01*
X0073764Y0048829D01*
X0073219Y0047512D01*
X0073219Y0046088D01*
X0073764Y0044771D01*
X0074771Y0043764D01*
X0076088Y0043219D01*
X0077512Y0043219D01*
X0078829Y0043764D01*
X0079836Y0044771D01*
X0080381Y0046088D01*
X0080381Y0047512D01*
X0079836Y0048829D01*
X0079200Y0049464D01*
X0079200Y0120806D01*
X0080000Y0121606D01*
X0080000Y0120965D01*
X0080639Y0119421D01*
X0081821Y0118239D01*
X0083365Y0117600D01*
X0090235Y0117600D01*
X0091779Y0118239D01*
X0092961Y0119421D01*
X0093600Y0120965D01*
X0093600Y0122635D01*
X0092961Y0124179D01*
X0091779Y0125361D01*
X0090235Y0126000D01*
X0084394Y0126000D01*
X0085994Y0127600D01*
X0090235Y0127600D01*
X0091779Y0128239D01*
X0092961Y0129421D01*
X0093600Y0130965D01*
X0093600Y0132635D01*
X0092961Y0134179D01*
X0091779Y0135361D01*
X0090235Y0136000D01*
X0083365Y0136000D01*
X0081821Y0135361D01*
X0080639Y0134179D01*
X0080165Y0133034D01*
X0079836Y0133829D01*
X0079200Y0134464D01*
X0079200Y0144136D01*
X0079836Y0144771D01*
X0080381Y0146088D01*
X0080381Y0147512D01*
X0079836Y0148829D01*
X0078829Y0149836D01*
X0077512Y0150381D01*
X0076088Y0150381D01*
X0074771Y0149836D01*
X0074200Y0149264D01*
X0074200Y0177277D01*
X0073835Y0178159D01*
X0073159Y0178835D01*
X0059493Y0192501D01*
X0060143Y0192231D01*
X0061961Y0192231D01*
X0063640Y0192927D01*
X0064925Y0194212D01*
X0065202Y0194881D01*
X0065387Y0194435D01*
X0066561Y0193261D01*
X0068096Y0192625D01*
X0069756Y0192625D01*
X0071291Y0193261D01*
X0072465Y0194435D01*
X0072863Y0195396D01*
X0073261Y0194435D01*
X0074435Y0193261D01*
X0075970Y0192625D01*
X0077630Y0192625D01*
X0079165Y0193261D01*
X0080339Y0194435D01*
X0080737Y0195396D01*
X0081135Y0194435D01*
X0082309Y0193261D01*
X0083844Y0192625D01*
X0085504Y0192625D01*
X0087039Y0193261D01*
X0088213Y0194435D01*
X0088398Y0194881D01*
X0088675Y0194212D01*
X0089960Y0192927D01*
X0091639Y0192231D01*
X0093457Y0192231D01*
X0095136Y0192927D01*
X0096421Y0194212D01*
X0097117Y0195891D01*
X0097117Y0197709D01*
X0096644Y0198850D01*
X0198850Y0198850D01*
X0198850Y0147100D01*
X0198850Y0147469D02*
X0189200Y0147469D01*
X0189200Y0145870D02*
X0195375Y0145870D01*
X0194087Y0144272D02*
X0189200Y0144272D01*
X0189200Y0142673D02*
X0193500Y0142673D01*
X0193500Y0141075D02*
X0189200Y0141075D01*
X0189200Y0139476D02*
X0194026Y0139476D01*
X0195227Y0137878D02*
X0189200Y0137878D01*
X0189200Y0136279D02*
X0195784Y0136279D01*
X0194257Y0134681D02*
X0189200Y0134681D01*
X0189200Y0133082D02*
X0193595Y0133082D01*
X0193500Y0131484D02*
X0189200Y0131484D01*
X0189200Y0129885D02*
X0193856Y0129885D01*
X0194818Y0128287D02*
X0189200Y0128287D01*
X0189200Y0126688D02*
X0196752Y0126688D01*
X0194595Y0125090D02*
X0189200Y0125090D01*
X0189200Y0123491D02*
X0193764Y0123491D01*
X0193500Y0121893D02*
X0189200Y0121893D01*
X0189200Y0120294D02*
X0193687Y0120294D01*
X0194409Y0118696D02*
X0189200Y0118696D01*
X0189200Y0117097D02*
X0196304Y0117097D01*
X0195003Y0115499D02*
X0189200Y0115499D01*
X0189200Y0113900D02*
X0193933Y0113900D01*
X0193500Y0112302D02*
X0189200Y0112302D01*
X0189200Y0110703D02*
X0193518Y0110703D01*
X0194180Y0109105D02*
X0189200Y0109105D01*
X0189200Y0107506D02*
X0195598Y0107506D01*
X0195412Y0105908D02*
X0189200Y0105908D01*
X0189200Y0104309D02*
X0194103Y0104309D01*
X0193500Y0102711D02*
X0189200Y0102711D01*
X0189200Y0101112D02*
X0193500Y0101112D01*
X0194010Y0099514D02*
X0189200Y0099514D01*
X0189200Y0097915D02*
X0195190Y0097915D01*
X0195855Y0096317D02*
X0189200Y0096317D01*
X0189276Y0094718D02*
X0194272Y0094718D01*
X0193610Y0093120D02*
X0190874Y0093120D01*
X0192473Y0091521D02*
X0193500Y0091521D01*
X0188882Y0088324D02*
X0179200Y0088324D01*
X0179200Y0086726D02*
X0190480Y0086726D01*
X0192079Y0085127D02*
X0179200Y0085127D01*
X0179200Y0083529D02*
X0193677Y0083529D01*
X0193500Y0081930D02*
X0179200Y0081930D01*
X0179200Y0080332D02*
X0193672Y0080332D01*
X0194372Y0078733D02*
X0179200Y0078733D01*
X0179200Y0077134D02*
X0193245Y0077134D01*
X0191647Y0075536D02*
X0179200Y0075536D01*
X0180602Y0073937D02*
X0191100Y0073937D01*
X0191100Y0072339D02*
X0181000Y0072339D01*
X0181000Y0070740D02*
X0191100Y0070740D01*
X0190748Y0069142D02*
X0180082Y0069142D01*
X0176800Y0071800D02*
X0176800Y0105860D01*
X0172600Y0110060D01*
X0172600Y0113540D01*
X0176800Y0117740D01*
X0176800Y0126800D01*
X0173946Y0129885D02*
X0139937Y0129885D01*
X0141200Y0128623D02*
X0138623Y0131200D01*
X0136800Y0131200D01*
X0136800Y0126800D01*
X0141200Y0126800D01*
X0141200Y0128623D01*
X0141200Y0128287D02*
X0172600Y0128287D01*
X0172600Y0126688D02*
X0141200Y0126688D01*
X0141200Y0126800D02*
X0136800Y0126800D01*
X0136800Y0126800D01*
X0136800Y0126800D01*
X0136800Y0122400D01*
X0138623Y0122400D01*
X0141200Y0124977D01*
X0141200Y0126800D01*
X0141200Y0125090D02*
X0172600Y0125090D01*
X0174169Y0123491D02*
X0139714Y0123491D01*
X0136800Y0123491D02*
X0136800Y0123491D01*
X0136800Y0122400D02*
X0136800Y0126800D01*
X0136800Y0126800D01*
X0136800Y0126800D01*
X0132400Y0126800D01*
X0132400Y0128623D01*
X0134977Y0131200D01*
X0136800Y0131200D01*
X0136800Y0126800D01*
X0132400Y0126800D01*
X0132400Y0124977D01*
X0134977Y0122400D01*
X0136800Y0122400D01*
X0136800Y0125090D02*
X0136800Y0125090D01*
X0136800Y0126688D02*
X0136800Y0126688D01*
X0136800Y0128287D02*
X0136800Y0128287D01*
X0136800Y0129885D02*
X0136800Y0129885D01*
X0133663Y0129885D02*
X0128279Y0129885D01*
X0128835Y0130441D02*
X0129200Y0131323D01*
X0129200Y0162277D01*
X0128835Y0163159D01*
X0128159Y0163835D01*
X0122767Y0169227D01*
X0122961Y0169421D01*
X0123600Y0170965D01*
X0123600Y0172635D01*
X0122961Y0174179D01*
X0121779Y0175361D01*
X0120235Y0176000D01*
X0113365Y0176000D01*
X0111821Y0175361D01*
X0110639Y0174179D01*
X0110000Y0172635D01*
X0110000Y0170965D01*
X0110639Y0169421D01*
X0111821Y0168239D01*
X0113365Y0167600D01*
X0117606Y0167600D01*
X0119006Y0166200D01*
X0116800Y0166200D01*
X0116800Y0161800D01*
X0116800Y0161800D01*
X0116800Y0157400D01*
X0119746Y0157400D01*
X0120430Y0157508D01*
X0121089Y0157722D01*
X0121706Y0158037D01*
X0122266Y0158444D01*
X0122756Y0158934D01*
X0123163Y0159494D01*
X0123478Y0160111D01*
X0123692Y0160770D01*
X0123793Y0161412D01*
X0124400Y0160806D01*
X0124400Y0132794D01*
X0123600Y0131994D01*
X0123600Y0132635D01*
X0122961Y0134179D01*
X0121779Y0135361D01*
X0120235Y0136000D01*
X0113365Y0136000D01*
X0111821Y0135361D01*
X0110639Y0134179D01*
X0110000Y0132635D01*
X0110000Y0130965D01*
X0110639Y0129421D01*
X0111821Y0128239D01*
X0113365Y0127600D01*
X0119206Y0127600D01*
X0117606Y0126000D01*
X0113365Y0126000D01*
X0111821Y0125361D01*
X0110639Y0124179D01*
X0110000Y0122635D01*
X0110000Y0120965D01*
X0110639Y0119421D01*
X0111821Y0118239D01*
X0113365Y0117600D01*
X0117606Y0117600D01*
X0119206Y0116000D01*
X0113365Y0116000D01*
X0111821Y0115361D01*
X0110639Y0114179D01*
X0110000Y0112635D01*
X0110000Y0110965D01*
X0110639Y0109421D01*
X0111821Y0108239D01*
X0113365Y0107600D01*
X0120235Y0107600D01*
X0121779Y0108239D01*
X0122961Y0109421D01*
X0123435Y0110566D01*
X0123764Y0109771D01*
X0124771Y0108764D01*
X0126088Y0108219D01*
X0127512Y0108219D01*
X0128829Y0108764D01*
X0129836Y0109771D01*
X0130381Y0111088D01*
X0130381Y0112512D01*
X0129836Y0113829D01*
X0128829Y0114836D01*
X0127512Y0115381D01*
X0126613Y0115381D01*
X0122767Y0119227D01*
X0122961Y0119421D01*
X0123600Y0120965D01*
X0123600Y0122635D01*
X0122961Y0124179D01*
X0122767Y0124373D01*
X0128835Y0130441D01*
X0129200Y0131484D02*
X0184400Y0131484D01*
X0184400Y0133082D02*
X0129200Y0133082D01*
X0129200Y0134681D02*
X0184400Y0134681D01*
X0184400Y0136279D02*
X0129200Y0136279D01*
X0129200Y0137878D02*
X0184400Y0137878D01*
X0184400Y0139476D02*
X0129200Y0139476D01*
X0129200Y0141075D02*
X0184400Y0141075D01*
X0184400Y0142673D02*
X0129200Y0142673D01*
X0129200Y0144272D02*
X0184400Y0144272D01*
X0184400Y0145870D02*
X0129200Y0145870D01*
X0129200Y0147469D02*
X0184400Y0147469D01*
X0184400Y0149068D02*
X0129200Y0149068D01*
X0129200Y0150666D02*
X0184400Y0150666D01*
X0184400Y0152265D02*
X0129200Y0152265D01*
X0129200Y0153863D02*
X0184400Y0153863D01*
X0184400Y0155462D02*
X0129200Y0155462D01*
X0129200Y0157060D02*
X0184400Y0157060D01*
X0184400Y0158659D02*
X0129200Y0158659D01*
X0129200Y0160257D02*
X0184400Y0160257D01*
X0183350Y0161856D02*
X0129200Y0161856D01*
X0128540Y0163454D02*
X0181752Y0163454D01*
X0180153Y0165053D02*
X0126941Y0165053D01*
X0125343Y0166651D02*
X0178555Y0166651D01*
X0176956Y0168250D02*
X0154189Y0168250D01*
X0153540Y0167600D02*
X0156000Y0170060D01*
X0156000Y0173540D01*
X0153540Y0176000D01*
X0150060Y0176000D01*
X0147600Y0173540D01*
X0147600Y0170060D01*
X0150060Y0167600D01*
X0153540Y0167600D01*
X0155788Y0169848D02*
X0175358Y0169848D01*
X0173759Y0171447D02*
X0156000Y0171447D01*
X0156000Y0173045D02*
X0172161Y0173045D01*
X0170562Y0174644D02*
X0154896Y0174644D01*
X0149682Y0176242D02*
X0168964Y0176242D01*
X0169300Y0179300D02*
X0186800Y0161800D01*
X0186800Y0093800D01*
X0198800Y0081800D01*
X0198800Y0079295D01*
X0193500Y0073995D01*
X0193500Y0068500D01*
X0171800Y0046800D01*
X0174505Y0043566D02*
X0178812Y0043566D01*
X0179977Y0042400D02*
X0181800Y0042400D01*
X0183623Y0042400D01*
X0186200Y0044977D01*
X0186200Y0046800D01*
X0186200Y0048623D01*
X0183623Y0051200D01*
X0181800Y0051200D01*
X0181800Y0046800D01*
X0186200Y0046800D01*
X0181800Y0046800D01*
X0181800Y0046800D01*
X0181800Y0046800D01*
X0181800Y0042400D01*
X0181800Y0046800D01*
X0181800Y0046800D01*
X0181800Y0046800D01*
X0177400Y0046800D01*
X0177400Y0048623D01*
X0179977Y0051200D01*
X0181800Y0051200D01*
X0181800Y0046800D01*
X0177400Y0046800D01*
X0177400Y0044977D01*
X0179977Y0042400D01*
X0181800Y0043566D02*
X0181800Y0043566D01*
X0181800Y0045164D02*
X0181800Y0045164D01*
X0181800Y0046763D02*
X0181800Y0046763D01*
X0181800Y0048361D02*
X0181800Y0048361D01*
X0181800Y0049960D02*
X0181800Y0049960D01*
X0179952Y0051558D02*
X0198850Y0051558D01*
X0198850Y0049960D02*
X0184863Y0049960D01*
X0186200Y0048361D02*
X0198850Y0048361D01*
X0198850Y0046763D02*
X0186200Y0046763D01*
X0186200Y0045164D02*
X0198850Y0045164D01*
X0198850Y0043566D02*
X0184788Y0043566D01*
X0178737Y0049960D02*
X0178354Y0049960D01*
X0177400Y0048361D02*
X0176755Y0048361D01*
X0177400Y0046763D02*
X0176000Y0046763D01*
X0176000Y0045164D02*
X0177400Y0045164D01*
X0173164Y0051558D02*
X0164200Y0051558D01*
X0164200Y0049960D02*
X0169020Y0049960D01*
X0167600Y0048361D02*
X0164200Y0048361D01*
X0164200Y0046763D02*
X0167600Y0046763D01*
X0167600Y0045164D02*
X0164200Y0045164D01*
X0164200Y0043566D02*
X0169095Y0043566D01*
X0164200Y0041967D02*
X0198850Y0041967D01*
X0198850Y0040369D02*
X0164200Y0040369D01*
X0164200Y0038770D02*
X0198850Y0038770D01*
X0198850Y0037172D02*
X0164200Y0037172D01*
X0164200Y0035573D02*
X0198850Y0035573D01*
X0198850Y0033975D02*
X0164200Y0033975D01*
X0164200Y0032376D02*
X0198850Y0032376D01*
X0198850Y0030778D02*
X0164200Y0030778D01*
X0164200Y0029179D02*
X0198850Y0029179D01*
X0198850Y0027581D02*
X0164413Y0027581D01*
X0164200Y0027794D02*
X0164200Y0068460D01*
X0165060Y0067600D01*
X0168540Y0067600D01*
X0171000Y0070060D01*
X0171000Y0073540D01*
X0168540Y0076000D01*
X0165060Y0076000D01*
X0164200Y0075140D01*
X0164200Y0084136D01*
X0164836Y0084771D01*
X0165381Y0086088D01*
X0165381Y0087512D01*
X0164836Y0088829D01*
X0163829Y0089836D01*
X0162512Y0090381D01*
X0161088Y0090381D01*
X0159771Y0089836D01*
X0158764Y0088829D01*
X0158219Y0087512D01*
X0158219Y0086088D01*
X0158764Y0084771D01*
X0159400Y0084136D01*
X0159400Y0026323D01*
X0159765Y0025441D01*
X0162600Y0022606D01*
X0162600Y0020965D01*
X0163239Y0019421D01*
X0164421Y0018239D01*
X0165965Y0017600D01*
X0167635Y0017600D01*
X0169179Y0018239D01*
X0170361Y0019421D01*
X0171000Y0020965D01*
X0171000Y0022635D01*
X0170361Y0024179D01*
X0169179Y0025361D01*
X0167635Y0026000D01*
X0165994Y0026000D01*
X0164200Y0027794D01*
X0161800Y0026800D02*
X0166800Y0021800D01*
X0163170Y0019588D02*
X0140811Y0019588D01*
X0141200Y0019977D02*
X0141200Y0021800D01*
X0141200Y0023623D01*
X0138623Y0026200D01*
X0136800Y0026200D01*
X0136800Y0021800D01*
X0141200Y0021800D01*
X0136800Y0021800D01*
X0136800Y0021800D01*
X0136800Y0021800D01*
X0136800Y0017400D01*
X0138623Y0017400D01*
X0141200Y0019977D01*
X0141200Y0021187D02*
X0162600Y0021187D01*
X0162421Y0022785D02*
X0141200Y0022785D01*
X0140439Y0024384D02*
X0160822Y0024384D01*
X0159541Y0025982D02*
X0138840Y0025982D01*
X0136800Y0025982D02*
X0136800Y0025982D01*
X0136800Y0026200D02*
X0134977Y0026200D01*
X0132400Y0023623D01*
X0132400Y0021800D01*
X0136800Y0021800D01*
X0136800Y0021800D01*
X0136800Y0021800D01*
X0136800Y0026200D01*
X0136800Y0024384D02*
X0136800Y0024384D01*
X0136800Y0022785D02*
X0136800Y0022785D01*
X0136800Y0021800D02*
X0132400Y0021800D01*
X0132400Y0019977D01*
X0134977Y0017400D01*
X0136800Y0017400D01*
X0136800Y0021800D01*
X0136800Y0021187D02*
X0136800Y0021187D01*
X0136800Y0019588D02*
X0136800Y0019588D01*
X0136800Y0017990D02*
X0136800Y0017990D01*
X0139212Y0017990D02*
X0165024Y0017990D01*
X0168576Y0017990D02*
X0184388Y0017990D01*
X0184977Y0017400D02*
X0186800Y0017400D01*
X0188623Y0017400D01*
X0191200Y0019977D01*
X0191200Y0021800D01*
X0191200Y0023623D01*
X0188623Y0026200D01*
X0186800Y0026200D01*
X0186800Y0021800D01*
X0191200Y0021800D01*
X0186800Y0021800D01*
X0186800Y0021800D01*
X0186800Y0021800D01*
X0186800Y0017400D01*
X0186800Y0021800D01*
X0186800Y0021800D01*
X0186800Y0021800D01*
X0182400Y0021800D01*
X0182400Y0023623D01*
X0184977Y0026200D01*
X0186800Y0026200D01*
X0186800Y0021800D01*
X0182400Y0021800D01*
X0182400Y0019977D01*
X0184977Y0017400D01*
X0186800Y0017990D02*
X0186800Y0017990D01*
X0186800Y0019588D02*
X0186800Y0019588D01*
X0186800Y0021187D02*
X0186800Y0021187D01*
X0186800Y0022785D02*
X0186800Y0022785D01*
X0186800Y0024384D02*
X0186800Y0024384D01*
X0186800Y0025982D02*
X0186800Y0025982D01*
X0188840Y0025982D02*
X0198850Y0025982D01*
X0198850Y0024384D02*
X0190439Y0024384D01*
X0191200Y0022785D02*
X0198850Y0022785D01*
X0198850Y0021187D02*
X0191200Y0021187D01*
X0190811Y0019588D02*
X0198850Y0019588D01*
X0198850Y0017990D02*
X0189212Y0017990D01*
X0182789Y0019588D02*
X0170430Y0019588D01*
X0171000Y0021187D02*
X0182400Y0021187D01*
X0182400Y0022785D02*
X0170938Y0022785D01*
X0170156Y0024384D02*
X0183161Y0024384D01*
X0184760Y0025982D02*
X0167679Y0025982D01*
X0161800Y0026800D02*
X0161800Y0086800D01*
X0165045Y0088324D02*
X0174400Y0088324D01*
X0174400Y0086726D02*
X0165381Y0086726D01*
X0164983Y0085127D02*
X0174400Y0085127D01*
X0174400Y0083529D02*
X0164200Y0083529D01*
X0164200Y0081930D02*
X0174400Y0081930D01*
X0174400Y0080332D02*
X0164200Y0080332D01*
X0164200Y0078733D02*
X0174400Y0078733D01*
X0174400Y0077134D02*
X0164200Y0077134D01*
X0164200Y0075536D02*
X0164596Y0075536D01*
X0169004Y0075536D02*
X0174400Y0075536D01*
X0172998Y0073937D02*
X0170602Y0073937D01*
X0171000Y0072339D02*
X0172600Y0072339D01*
X0172600Y0070740D02*
X0171000Y0070740D01*
X0170082Y0069142D02*
X0173518Y0069142D01*
X0164200Y0067543D02*
X0189149Y0067543D01*
X0187551Y0065945D02*
X0164200Y0065945D01*
X0164200Y0064346D02*
X0185952Y0064346D01*
X0184354Y0062748D02*
X0164200Y0062748D01*
X0164200Y0061149D02*
X0182755Y0061149D01*
X0181157Y0059551D02*
X0164200Y0059551D01*
X0164200Y0057952D02*
X0179558Y0057952D01*
X0177960Y0056354D02*
X0164200Y0056354D01*
X0164200Y0054755D02*
X0176361Y0054755D01*
X0174763Y0053157D02*
X0164200Y0053157D01*
X0159400Y0053157D02*
X0144200Y0053157D01*
X0144200Y0054755D02*
X0159400Y0054755D01*
X0159400Y0056354D02*
X0144200Y0056354D01*
X0144200Y0057952D02*
X0159400Y0057952D01*
X0159400Y0059551D02*
X0144200Y0059551D01*
X0144200Y0061149D02*
X0159400Y0061149D01*
X0159400Y0062748D02*
X0144200Y0062748D01*
X0144200Y0064346D02*
X0159400Y0064346D01*
X0159400Y0065945D02*
X0144200Y0065945D01*
X0144200Y0067543D02*
X0149834Y0067543D01*
X0149977Y0067400D02*
X0151800Y0067400D01*
X0153623Y0067400D01*
X0156200Y0069977D01*
X0156200Y0071800D01*
X0156200Y0073623D01*
X0153623Y0076200D01*
X0151800Y0076200D01*
X0151800Y0071800D01*
X0156200Y0071800D01*
X0151800Y0071800D01*
X0151800Y0071800D01*
X0151800Y0071800D01*
X0151800Y0067400D01*
X0151800Y0071800D01*
X0151800Y0071800D01*
X0151800Y0071800D01*
X0147400Y0071800D01*
X0147400Y0073623D01*
X0149977Y0076200D01*
X0151800Y0076200D01*
X0151800Y0071800D01*
X0147400Y0071800D01*
X0147400Y0069977D01*
X0149977Y0067400D01*
X0151800Y0067543D02*
X0151800Y0067543D01*
X0151800Y0069142D02*
X0151800Y0069142D01*
X0151800Y0070740D02*
X0151800Y0070740D01*
X0151800Y0072339D02*
X0151800Y0072339D01*
X0151800Y0073937D02*
X0151800Y0073937D01*
X0151800Y0075536D02*
X0151800Y0075536D01*
X0154287Y0075536D02*
X0159400Y0075536D01*
X0159400Y0077134D02*
X0144200Y0077134D01*
X0144200Y0075536D02*
X0149313Y0075536D01*
X0147715Y0073937D02*
X0145602Y0073937D01*
X0146000Y0073540D02*
X0144200Y0075340D01*
X0144200Y0093260D01*
X0146000Y0095060D01*
X0146000Y0098540D01*
X0143540Y0101000D01*
X0140060Y0101000D01*
X0137600Y0098540D01*
X0137600Y0095060D01*
X0139400Y0093260D01*
X0139400Y0075340D01*
X0137600Y0073540D01*
X0137600Y0070060D01*
X0139400Y0068260D01*
X0139400Y0052794D01*
X0137606Y0051000D01*
X0135060Y0051000D01*
X0132600Y0048540D01*
X0132600Y0045060D01*
X0135060Y0042600D01*
X0138540Y0042600D01*
X0141000Y0045060D01*
X0141000Y0047606D01*
X0143835Y0050441D01*
X0144200Y0051323D01*
X0144200Y0068260D01*
X0146000Y0070060D01*
X0146000Y0073540D01*
X0146000Y0072339D02*
X0147400Y0072339D01*
X0147400Y0070740D02*
X0146000Y0070740D01*
X0145082Y0069142D02*
X0148236Y0069142D01*
X0153766Y0067543D02*
X0159400Y0067543D01*
X0159400Y0069142D02*
X0155364Y0069142D01*
X0156200Y0070740D02*
X0159400Y0070740D01*
X0159400Y0072339D02*
X0156200Y0072339D01*
X0155885Y0073937D02*
X0159400Y0073937D01*
X0159400Y0078733D02*
X0144200Y0078733D01*
X0144200Y0080332D02*
X0159400Y0080332D01*
X0159400Y0081930D02*
X0144200Y0081930D01*
X0144200Y0083529D02*
X0159400Y0083529D01*
X0158617Y0085127D02*
X0144200Y0085127D01*
X0144200Y0086726D02*
X0158219Y0086726D01*
X0158555Y0088324D02*
X0144200Y0088324D01*
X0144200Y0089923D02*
X0159981Y0089923D01*
X0163619Y0089923D02*
X0174400Y0089923D01*
X0174400Y0091521D02*
X0144200Y0091521D01*
X0144200Y0093120D02*
X0149258Y0093120D01*
X0149977Y0092400D02*
X0151800Y0092400D01*
X0153623Y0092400D01*
X0156200Y0094977D01*
X0156200Y0096800D01*
X0156200Y0098623D01*
X0153623Y0101200D01*
X0151800Y0101200D01*
X0151800Y0096800D01*
X0156200Y0096800D01*
X0151800Y0096800D01*
X0151800Y0096800D01*
X0151800Y0096800D01*
X0151800Y0092400D01*
X0151800Y0096800D01*
X0151800Y0096800D01*
X0151800Y0096800D01*
X0147400Y0096800D01*
X0147400Y0098623D01*
X0149977Y0101200D01*
X0151800Y0101200D01*
X0151800Y0096800D01*
X0147400Y0096800D01*
X0147400Y0094977D01*
X0149977Y0092400D01*
X0151800Y0093120D02*
X0151800Y0093120D01*
X0151800Y0094718D02*
X0151800Y0094718D01*
X0151800Y0096317D02*
X0151800Y0096317D01*
X0151800Y0097915D02*
X0151800Y0097915D01*
X0151800Y0099514D02*
X0151800Y0099514D01*
X0151800Y0101112D02*
X0151800Y0101112D01*
X0153710Y0101112D02*
X0174400Y0101112D01*
X0174400Y0099514D02*
X0155309Y0099514D01*
X0156200Y0097915D02*
X0174400Y0097915D01*
X0174400Y0096317D02*
X0156200Y0096317D01*
X0155941Y0094718D02*
X0174400Y0094718D01*
X0174400Y0093120D02*
X0154342Y0093120D01*
X0147659Y0094718D02*
X0145658Y0094718D01*
X0146000Y0096317D02*
X0147400Y0096317D01*
X0147400Y0097915D02*
X0146000Y0097915D01*
X0145026Y0099514D02*
X0148291Y0099514D01*
X0149890Y0101112D02*
X0139506Y0101112D01*
X0138574Y0099514D02*
X0137908Y0099514D01*
X0137600Y0097915D02*
X0136309Y0097915D01*
X0137600Y0096317D02*
X0134711Y0096317D01*
X0134200Y0095806D02*
X0141613Y0103219D01*
X0142512Y0103219D01*
X0143829Y0103764D01*
X0144836Y0104771D01*
X0145381Y0106088D01*
X0145381Y0107512D01*
X0144836Y0108829D01*
X0143829Y0109836D01*
X0142512Y0110381D01*
X0141088Y0110381D01*
X0141000Y0110345D01*
X0141000Y0113540D01*
X0138540Y0116000D01*
X0135060Y0116000D01*
X0132600Y0113540D01*
X0132600Y0110994D01*
X0124765Y0103159D01*
X0124400Y0102277D01*
X0124400Y0019464D01*
X0123764Y0018829D01*
X0123219Y0017512D01*
X0123219Y0016088D01*
X0123764Y0014771D01*
X0124771Y0013764D01*
X0126088Y0013219D01*
X0127512Y0013219D01*
X0128829Y0013764D01*
X0129836Y0014771D01*
X0130381Y0016088D01*
X0130381Y0017512D01*
X0129836Y0018829D01*
X0129200Y0019464D01*
X0129200Y0074336D01*
X0129771Y0073764D01*
X0131088Y0073219D01*
X0132512Y0073219D01*
X0133829Y0073764D01*
X0134836Y0074771D01*
X0135381Y0076088D01*
X0135381Y0077512D01*
X0134836Y0078829D01*
X0134200Y0079464D01*
X0134200Y0095806D01*
X0134200Y0094718D02*
X0137942Y0094718D01*
X0139400Y0093120D02*
X0134200Y0093120D01*
X0134200Y0091521D02*
X0139400Y0091521D01*
X0139400Y0089923D02*
X0134200Y0089923D01*
X0134200Y0088324D02*
X0139400Y0088324D01*
X0139400Y0086726D02*
X0134200Y0086726D01*
X0134200Y0085127D02*
X0139400Y0085127D01*
X0139400Y0083529D02*
X0134200Y0083529D01*
X0134200Y0081930D02*
X0139400Y0081930D01*
X0139400Y0080332D02*
X0134200Y0080332D01*
X0134875Y0078733D02*
X0139400Y0078733D01*
X0139400Y0077134D02*
X0135381Y0077134D01*
X0135153Y0075536D02*
X0139400Y0075536D01*
X0137998Y0073937D02*
X0134002Y0073937D01*
X0131800Y0076800D02*
X0131800Y0096800D01*
X0141800Y0106800D01*
X0144374Y0104309D02*
X0174400Y0104309D01*
X0174400Y0102711D02*
X0141105Y0102711D01*
X0145307Y0105908D02*
X0173358Y0105908D01*
X0171760Y0107506D02*
X0145381Y0107506D01*
X0144560Y0109105D02*
X0170398Y0109105D01*
X0170200Y0110703D02*
X0141000Y0110703D01*
X0141000Y0112302D02*
X0170200Y0112302D01*
X0170200Y0113900D02*
X0140639Y0113900D01*
X0139041Y0115499D02*
X0171165Y0115499D01*
X0172763Y0117097D02*
X0124897Y0117097D01*
X0126495Y0115499D02*
X0134559Y0115499D01*
X0132961Y0113900D02*
X0129764Y0113900D01*
X0130381Y0112302D02*
X0132600Y0112302D01*
X0132309Y0110703D02*
X0130222Y0110703D01*
X0130711Y0109105D02*
X0129169Y0109105D01*
X0129112Y0107506D02*
X0099200Y0107506D01*
X0099200Y0105908D02*
X0113142Y0105908D01*
X0113365Y0106000D02*
X0111821Y0105361D01*
X0110639Y0104179D01*
X0110000Y0102635D01*
X0110000Y0100965D01*
X0110639Y0099421D01*
X0111821Y0098239D01*
X0113365Y0097600D01*
X0120235Y0097600D01*
X0121779Y0098239D01*
X0122961Y0099421D01*
X0123600Y0100965D01*
X0123600Y0102635D01*
X0122961Y0104179D01*
X0121779Y0105361D01*
X0120235Y0106000D01*
X0113365Y0106000D01*
X0110770Y0104309D02*
X0099200Y0104309D01*
X0099200Y0102711D02*
X0110031Y0102711D01*
X0110000Y0101112D02*
X0099200Y0101112D01*
X0099200Y0099514D02*
X0110601Y0099514D01*
X0112604Y0097915D02*
X0099200Y0097915D01*
X0099200Y0096317D02*
X0124400Y0096317D01*
X0124400Y0097915D02*
X0120996Y0097915D01*
X0120235Y0096000D02*
X0121779Y0095361D01*
X0122961Y0094179D01*
X0123600Y0092635D01*
X0123600Y0090965D01*
X0122961Y0089421D01*
X0121779Y0088239D01*
X0120235Y0087600D01*
X0113365Y0087600D01*
X0111821Y0088239D01*
X0110639Y0089421D01*
X0110000Y0090965D01*
X0110000Y0092635D01*
X0110639Y0094179D01*
X0111821Y0095361D01*
X0113365Y0096000D01*
X0120235Y0096000D01*
X0122422Y0094718D02*
X0124400Y0094718D01*
X0124400Y0093120D02*
X0123399Y0093120D01*
X0123600Y0091521D02*
X0124400Y0091521D01*
X0124400Y0089923D02*
X0123168Y0089923D01*
X0124400Y0088324D02*
X0121864Y0088324D01*
X0121089Y0085878D02*
X0120430Y0086092D01*
X0119746Y0086200D01*
X0116800Y0086200D01*
X0116800Y0081800D01*
X0116800Y0081800D01*
X0123800Y0081800D01*
X0123800Y0082146D01*
X0123692Y0082830D01*
X0123478Y0083489D01*
X0123163Y0084106D01*
X0122756Y0084666D01*
X0122266Y0085156D01*
X0121706Y0085563D01*
X0121089Y0085878D01*
X0122295Y0085127D02*
X0124400Y0085127D01*
X0124400Y0083529D02*
X0123457Y0083529D01*
X0123800Y0081930D02*
X0124400Y0081930D01*
X0123800Y0081800D02*
X0123800Y0081454D01*
X0123692Y0080770D01*
X0123478Y0080111D01*
X0123163Y0079494D01*
X0122756Y0078934D01*
X0122266Y0078444D01*
X0121706Y0078037D01*
X0121089Y0077722D01*
X0120430Y0077508D01*
X0119746Y0077400D01*
X0116800Y0077400D01*
X0116800Y0081800D01*
X0116800Y0081800D01*
X0116800Y0081800D01*
X0116800Y0081800D01*
X0109800Y0081800D01*
X0109800Y0082146D01*
X0109908Y0082830D01*
X0110122Y0083489D01*
X0110437Y0084106D01*
X0110844Y0084666D01*
X0111334Y0085156D01*
X0111894Y0085563D01*
X0112511Y0085878D01*
X0113170Y0086092D01*
X0113854Y0086200D01*
X0116800Y0086200D01*
X0116800Y0081800D01*
X0123800Y0081800D01*
X0123549Y0080332D02*
X0124400Y0080332D01*
X0124400Y0078733D02*
X0122556Y0078733D01*
X0124400Y0077134D02*
X0079200Y0077134D01*
X0079200Y0075536D02*
X0082244Y0075536D01*
X0081821Y0075361D02*
X0080639Y0074179D01*
X0080000Y0072635D01*
X0080000Y0070965D01*
X0080639Y0069421D01*
X0081821Y0068239D01*
X0083365Y0067600D01*
X0087606Y0067600D01*
X0089206Y0066000D01*
X0083365Y0066000D01*
X0081821Y0065361D01*
X0080639Y0064179D01*
X0080000Y0062635D01*
X0080000Y0060965D01*
X0080639Y0059421D01*
X0081821Y0058239D01*
X0083365Y0057600D01*
X0090235Y0057600D01*
X0091779Y0058239D01*
X0092961Y0059421D01*
X0093600Y0060965D01*
X0093600Y0061606D01*
X0094400Y0060806D01*
X0094400Y0032794D01*
X0091106Y0029500D01*
X0089127Y0029500D01*
X0088245Y0029135D01*
X0083311Y0024200D01*
X0076543Y0024200D01*
X0076293Y0024802D01*
X0074802Y0026293D01*
X0072854Y0027100D01*
X0070746Y0027100D01*
X0068798Y0026293D01*
X0067307Y0024802D01*
X0066500Y0022854D01*
X0066500Y0020746D01*
X0067307Y0018798D01*
X0068798Y0017307D01*
X0070746Y0016500D01*
X0072854Y0016500D01*
X0074802Y0017307D01*
X0076293Y0018798D01*
X0076543Y0019400D01*
X0084782Y0019400D01*
X0085664Y0019765D01*
X0086432Y0020533D01*
X0086435Y0020512D01*
X0086703Y0019689D01*
X0087096Y0018917D01*
X0087605Y0018217D01*
X0088217Y0017605D01*
X0088917Y0017096D01*
X0089689Y0016703D01*
X0090512Y0016435D01*
X0091367Y0016300D01*
X0091600Y0016300D01*
X0091600Y0021600D01*
X0092000Y0021600D01*
X0092000Y0022000D01*
X0097300Y0022000D01*
X0097300Y0022233D01*
X0097165Y0023088D01*
X0096897Y0023911D01*
X0096504Y0024683D01*
X0095995Y0025383D01*
X0095383Y0025995D01*
X0094807Y0026413D01*
X0098159Y0029765D01*
X0098835Y0030441D01*
X0099200Y0031323D01*
X0099200Y0044336D01*
X0099771Y0043764D01*
X0101088Y0043219D01*
X0101987Y0043219D01*
X0114400Y0030806D01*
X0114400Y0025340D01*
X0113239Y0024179D01*
X0112600Y0022635D01*
X0112600Y0020965D01*
X0113239Y0019421D01*
X0114421Y0018239D01*
X0115965Y0017600D01*
X0117635Y0017600D01*
X0119179Y0018239D01*
X0120361Y0019421D01*
X0121000Y0020965D01*
X0121000Y0022635D01*
X0120361Y0024179D01*
X0119200Y0025340D01*
X0119200Y0032277D01*
X0118835Y0033159D01*
X0114394Y0037600D01*
X0120235Y0037600D01*
X0121779Y0038239D01*
X0122961Y0039421D01*
X0123600Y0040965D01*
X0123600Y0042635D01*
X0122961Y0044179D01*
X0121779Y0045361D01*
X0120235Y0046000D01*
X0113365Y0046000D01*
X0111821Y0045361D01*
X0110639Y0044179D01*
X0110000Y0042635D01*
X0110000Y0041994D01*
X0105381Y0046613D01*
X0105381Y0047512D01*
X0104836Y0048829D01*
X0103829Y0049836D01*
X0102512Y0050381D01*
X0101088Y0050381D01*
X0099771Y0049836D01*
X0099200Y0049264D01*
X0099200Y0062277D01*
X0098835Y0063159D01*
X0092767Y0069227D01*
X0092961Y0069421D01*
X0093600Y0070965D01*
X0093600Y0072635D01*
X0092961Y0074179D01*
X0091779Y0075361D01*
X0090235Y0076000D01*
X0083365Y0076000D01*
X0081821Y0075361D01*
X0080539Y0073937D02*
X0079200Y0073937D01*
X0079200Y0072339D02*
X0080000Y0072339D01*
X0080093Y0070740D02*
X0079200Y0070740D01*
X0079200Y0069142D02*
X0080918Y0069142D01*
X0079200Y0067543D02*
X0087662Y0067543D01*
X0086800Y0071800D02*
X0096800Y0061800D01*
X0096800Y0031800D01*
X0092100Y0027100D01*
X0089605Y0027100D01*
X0084305Y0021800D01*
X0071800Y0021800D01*
X0075485Y0017990D02*
X0087832Y0017990D01*
X0086754Y0019588D02*
X0085236Y0019588D01*
X0083494Y0024384D02*
X0076466Y0024384D01*
X0075113Y0025982D02*
X0085093Y0025982D01*
X0086691Y0027581D02*
X0015076Y0027581D01*
X0015396Y0025982D02*
X0028487Y0025982D01*
X0028798Y0026293D02*
X0027307Y0024802D01*
X0026500Y0022854D01*
X0026500Y0020746D01*
X0027307Y0018798D01*
X0028798Y0017307D01*
X0030746Y0016500D01*
X0032854Y0016500D01*
X0034802Y0017307D01*
X0036293Y0018798D01*
X0037100Y0020746D01*
X0037100Y0022854D01*
X0036293Y0024802D01*
X0034802Y0026293D01*
X0032854Y0027100D01*
X0030746Y0027100D01*
X0028798Y0026293D01*
X0027134Y0024384D02*
X0016656Y0024384D01*
X0017213Y0022785D02*
X0026500Y0022785D01*
X0026500Y0021187D02*
X0017271Y0021187D01*
X0017300Y0021367D02*
X0017300Y0021600D01*
X0012000Y0021600D01*
X0012000Y0016300D01*
X0012233Y0016300D01*
X0013088Y0016435D01*
X0013911Y0016703D01*
X0014683Y0017096D01*
X0015383Y0017605D01*
X0015995Y0018217D01*
X0016504Y0018917D01*
X0016897Y0019689D01*
X0017165Y0020512D01*
X0017300Y0021367D01*
X0016846Y0019588D02*
X0026980Y0019588D01*
X0028115Y0017990D02*
X0015768Y0017990D01*
X0012808Y0016391D02*
X0050792Y0016391D01*
X0050512Y0016435D02*
X0051367Y0016300D01*
X0051600Y0016300D01*
X0051600Y0021600D01*
X0046300Y0021600D01*
X0046300Y0021367D01*
X0046435Y0020512D01*
X0046703Y0019689D01*
X0047096Y0018917D01*
X0047605Y0018217D01*
X0048217Y0017605D01*
X0048917Y0017096D01*
X0049689Y0016703D01*
X0050512Y0016435D01*
X0051600Y0016391D02*
X0052000Y0016391D01*
X0052000Y0016300D02*
X0052233Y0016300D01*
X0053088Y0016435D01*
X0053911Y0016703D01*
X0054683Y0017096D01*
X0055383Y0017605D01*
X0055995Y0018217D01*
X0056504Y0018917D01*
X0056897Y0019689D01*
X0057165Y0020512D01*
X0057300Y0021367D01*
X0057300Y0021600D01*
X0052000Y0021600D01*
X0052000Y0022000D01*
X0051600Y0022000D01*
X0051600Y0027300D01*
X0051367Y0027300D01*
X0050512Y0027165D01*
X0049689Y0026897D01*
X0048917Y0026504D01*
X0048217Y0025995D01*
X0047605Y0025383D01*
X0047096Y0024683D01*
X0046703Y0023911D01*
X0046435Y0023088D01*
X0046300Y0022233D01*
X0046300Y0022000D01*
X0051600Y0022000D01*
X0051600Y0021600D01*
X0052000Y0021600D01*
X0052000Y0016300D01*
X0052808Y0016391D02*
X0090792Y0016391D01*
X0091600Y0016391D02*
X0092000Y0016391D01*
X0092000Y0016300D02*
X0092233Y0016300D01*
X0093088Y0016435D01*
X0093911Y0016703D01*
X0094683Y0017096D01*
X0095383Y0017605D01*
X0095995Y0018217D01*
X0096504Y0018917D01*
X0096897Y0019689D01*
X0097165Y0020512D01*
X0097300Y0021367D01*
X0097300Y0021600D01*
X0092000Y0021600D01*
X0092000Y0016300D01*
X0092808Y0016391D02*
X0123219Y0016391D01*
X0123417Y0017990D02*
X0118576Y0017990D01*
X0120430Y0019588D02*
X0124400Y0019588D01*
X0124400Y0021187D02*
X0121000Y0021187D01*
X0120938Y0022785D02*
X0124400Y0022785D01*
X0124400Y0024384D02*
X0120156Y0024384D01*
X0119200Y0025982D02*
X0124400Y0025982D01*
X0124400Y0027581D02*
X0119200Y0027581D01*
X0119200Y0029179D02*
X0124400Y0029179D01*
X0124400Y0030778D02*
X0119200Y0030778D01*
X0119159Y0032376D02*
X0124400Y0032376D01*
X0124400Y0033975D02*
X0118019Y0033975D01*
X0116421Y0035573D02*
X0124400Y0035573D01*
X0124400Y0037172D02*
X0114822Y0037172D01*
X0111231Y0033975D02*
X0099200Y0033975D01*
X0099200Y0035573D02*
X0109633Y0035573D01*
X0108034Y0037172D02*
X0099200Y0037172D01*
X0099200Y0038770D02*
X0106436Y0038770D01*
X0104837Y0040369D02*
X0099200Y0040369D01*
X0099200Y0041967D02*
X0103239Y0041967D01*
X0100250Y0043566D02*
X0099200Y0043566D01*
X0101800Y0046800D02*
X0116800Y0031800D01*
X0116800Y0021800D01*
X0115024Y0017990D02*
X0095768Y0017990D01*
X0096846Y0019588D02*
X0113170Y0019588D01*
X0112600Y0021187D02*
X0097271Y0021187D01*
X0097213Y0022785D02*
X0112662Y0022785D01*
X0113444Y0024384D02*
X0096656Y0024384D01*
X0095396Y0025982D02*
X0114400Y0025982D01*
X0114400Y0027581D02*
X0095975Y0027581D01*
X0097573Y0029179D02*
X0114400Y0029179D01*
X0114400Y0030778D02*
X0098974Y0030778D01*
X0099200Y0032376D02*
X0112830Y0032376D01*
X0122310Y0038770D02*
X0124400Y0038770D01*
X0124400Y0040369D02*
X0123353Y0040369D01*
X0123600Y0041967D02*
X0124400Y0041967D01*
X0124400Y0043566D02*
X0123215Y0043566D01*
X0124400Y0045164D02*
X0121975Y0045164D01*
X0120235Y0047600D02*
X0121779Y0048239D01*
X0122961Y0049421D01*
X0123600Y0050965D01*
X0123600Y0052635D01*
X0122961Y0054179D01*
X0121779Y0055361D01*
X0120235Y0056000D01*
X0113365Y0056000D01*
X0111821Y0055361D01*
X0110639Y0054179D01*
X0110000Y0052635D01*
X0110000Y0050965D01*
X0110639Y0049421D01*
X0111821Y0048239D01*
X0113365Y0047600D01*
X0120235Y0047600D01*
X0121901Y0048361D02*
X0124400Y0048361D01*
X0124400Y0046763D02*
X0105381Y0046763D01*
X0105029Y0048361D02*
X0111699Y0048361D01*
X0110416Y0049960D02*
X0103529Y0049960D01*
X0100071Y0049960D02*
X0099200Y0049960D01*
X0099200Y0051558D02*
X0110000Y0051558D01*
X0110216Y0053157D02*
X0099200Y0053157D01*
X0099200Y0054755D02*
X0111216Y0054755D01*
X0111821Y0058239D02*
X0113365Y0057600D01*
X0120235Y0057600D01*
X0121779Y0058239D01*
X0122961Y0059421D01*
X0123600Y0060965D01*
X0123600Y0062635D01*
X0122961Y0064179D01*
X0121779Y0065361D01*
X0120235Y0066000D01*
X0113365Y0066000D01*
X0111821Y0065361D01*
X0110639Y0064179D01*
X0110000Y0062635D01*
X0110000Y0060965D01*
X0110639Y0059421D01*
X0111821Y0058239D01*
X0112514Y0057952D02*
X0099200Y0057952D01*
X0099200Y0056354D02*
X0124400Y0056354D01*
X0124400Y0057952D02*
X0121086Y0057952D01*
X0123014Y0059551D02*
X0124400Y0059551D01*
X0124400Y0061149D02*
X0123600Y0061149D01*
X0123553Y0062748D02*
X0124400Y0062748D01*
X0124400Y0064346D02*
X0122793Y0064346D01*
X0124400Y0065945D02*
X0120368Y0065945D01*
X0120235Y0067600D02*
X0121779Y0068239D01*
X0122961Y0069421D01*
X0123600Y0070965D01*
X0123600Y0072635D01*
X0122961Y0074179D01*
X0121779Y0075361D01*
X0120235Y0076000D01*
X0113365Y0076000D01*
X0111821Y0075361D01*
X0110639Y0074179D01*
X0110000Y0072635D01*
X0110000Y0070965D01*
X0110639Y0069421D01*
X0111821Y0068239D01*
X0113365Y0067600D01*
X0120235Y0067600D01*
X0122682Y0069142D02*
X0124400Y0069142D01*
X0124400Y0070740D02*
X0123507Y0070740D01*
X0123600Y0072339D02*
X0124400Y0072339D01*
X0124400Y0073937D02*
X0123061Y0073937D01*
X0124400Y0075536D02*
X0121356Y0075536D01*
X0116800Y0077400D02*
X0116800Y0081800D01*
X0109800Y0081800D01*
X0109800Y0081454D01*
X0109908Y0080770D01*
X0110122Y0080111D01*
X0110437Y0079494D01*
X0110844Y0078934D01*
X0111334Y0078444D01*
X0111894Y0078037D01*
X0112511Y0077722D01*
X0113170Y0077508D01*
X0113854Y0077400D01*
X0116800Y0077400D01*
X0116800Y0078733D02*
X0116800Y0078733D01*
X0116800Y0080332D02*
X0116800Y0080332D01*
X0116800Y0081930D02*
X0116800Y0081930D01*
X0116800Y0083529D02*
X0116800Y0083529D01*
X0116800Y0085127D02*
X0116800Y0085127D01*
X0111736Y0088324D02*
X0096718Y0088324D01*
X0095120Y0086726D02*
X0124400Y0086726D01*
X0124400Y0099514D02*
X0122999Y0099514D01*
X0123600Y0101112D02*
X0124400Y0101112D01*
X0124579Y0102711D02*
X0123569Y0102711D01*
X0122830Y0104309D02*
X0125915Y0104309D01*
X0127514Y0105908D02*
X0120458Y0105908D01*
X0122644Y0109105D02*
X0124431Y0109105D01*
X0126800Y0111800D02*
X0116800Y0121800D01*
X0126800Y0131800D01*
X0126800Y0161800D01*
X0116800Y0171800D01*
X0111811Y0168250D02*
X0099200Y0168250D01*
X0099200Y0169848D02*
X0110462Y0169848D01*
X0110000Y0171447D02*
X0099200Y0171447D01*
X0099200Y0173045D02*
X0110170Y0173045D01*
X0111104Y0174644D02*
X0099200Y0174644D01*
X0099200Y0176242D02*
X0143918Y0176242D01*
X0143623Y0176200D02*
X0141800Y0176200D01*
X0141800Y0171800D01*
X0146200Y0171800D01*
X0146200Y0173623D01*
X0143623Y0176200D01*
X0141800Y0176200D02*
X0139977Y0176200D01*
X0137400Y0173623D01*
X0137400Y0171800D01*
X0141800Y0171800D01*
X0141800Y0171800D01*
X0141800Y0171800D01*
X0146200Y0171800D01*
X0146200Y0169977D01*
X0143623Y0167400D01*
X0141800Y0167400D01*
X0141800Y0171800D01*
X0141800Y0171800D01*
X0141800Y0171800D01*
X0141800Y0176200D01*
X0141800Y0174644D02*
X0141800Y0174644D01*
X0141800Y0173045D02*
X0141800Y0173045D01*
X0141800Y0171800D02*
X0137400Y0171800D01*
X0137400Y0169977D01*
X0139977Y0167400D01*
X0141800Y0167400D01*
X0141800Y0171800D01*
X0141800Y0171447D02*
X0141800Y0171447D01*
X0141800Y0169848D02*
X0141800Y0169848D01*
X0141800Y0168250D02*
X0141800Y0168250D01*
X0144472Y0168250D02*
X0149411Y0168250D01*
X0147812Y0169848D02*
X0146071Y0169848D01*
X0146200Y0171447D02*
X0147600Y0171447D01*
X0147600Y0173045D02*
X0146200Y0173045D01*
X0145179Y0174644D02*
X0148704Y0174644D01*
X0146800Y0179300D02*
X0169300Y0179300D01*
X0170956Y0181038D02*
X0198850Y0181038D01*
X0198850Y0182636D02*
X0149403Y0182636D01*
X0144197Y0182636D02*
X0100330Y0182636D01*
X0100381Y0182512D02*
X0099836Y0183829D01*
X0098829Y0184836D01*
X0097512Y0185381D01*
X0096088Y0185381D01*
X0094771Y0184836D01*
X0093764Y0183829D01*
X0093219Y0182512D01*
X0093219Y0181088D01*
X0093764Y0179771D01*
X0094400Y0179136D01*
X0094400Y0092794D01*
X0093600Y0091994D01*
X0093600Y0092635D01*
X0092961Y0094179D01*
X0091779Y0095361D01*
X0090235Y0096000D01*
X0083365Y0096000D01*
X0081821Y0095361D01*
X0080639Y0094179D01*
X0080000Y0092635D01*
X0080000Y0090965D01*
X0080639Y0089421D01*
X0081821Y0088239D01*
X0083365Y0087600D01*
X0089206Y0087600D01*
X0087606Y0086000D01*
X0083365Y0086000D01*
X0081821Y0085361D01*
X0080639Y0084179D01*
X0080000Y0082635D01*
X0080000Y0080965D01*
X0080639Y0079421D01*
X0081821Y0078239D01*
X0083365Y0077600D01*
X0090235Y0077600D01*
X0091779Y0078239D01*
X0092961Y0079421D01*
X0093600Y0080965D01*
X0093600Y0082635D01*
X0092961Y0084179D01*
X0092767Y0084373D01*
X0098835Y0090441D01*
X0099200Y0091323D01*
X0099200Y0179136D01*
X0099836Y0179771D01*
X0100381Y0181088D01*
X0100381Y0182512D01*
X0100360Y0181038D02*
X0142600Y0181038D01*
X0142600Y0179439D02*
X0099504Y0179439D01*
X0099200Y0177841D02*
X0142600Y0177841D01*
X0138421Y0174644D02*
X0122496Y0174644D01*
X0123430Y0173045D02*
X0137400Y0173045D01*
X0137400Y0171447D02*
X0123600Y0171447D01*
X0123138Y0169848D02*
X0137529Y0169848D01*
X0139128Y0168250D02*
X0123744Y0168250D01*
X0118555Y0166651D02*
X0099200Y0166651D01*
X0099200Y0165053D02*
X0105295Y0165053D01*
X0104771Y0164836D02*
X0106088Y0165381D01*
X0107512Y0165381D01*
X0108829Y0164836D01*
X0109836Y0163829D01*
X0110058Y0163292D01*
X0110122Y0163489D01*
X0110437Y0164106D01*
X0110844Y0164666D01*
X0111334Y0165156D01*
X0111894Y0165563D01*
X0112511Y0165878D01*
X0113170Y0166092D01*
X0113854Y0166200D01*
X0116800Y0166200D01*
X0116800Y0161800D01*
X0116800Y0161800D01*
X0116800Y0157400D01*
X0113854Y0157400D01*
X0113170Y0157508D01*
X0112511Y0157722D01*
X0111894Y0158037D01*
X0111334Y0158444D01*
X0110844Y0158934D01*
X0110437Y0159494D01*
X0110122Y0160111D01*
X0110058Y0160308D01*
X0109836Y0159771D01*
X0109200Y0159136D01*
X0109200Y0119464D01*
X0109836Y0118829D01*
X0110381Y0117512D01*
X0110381Y0116088D01*
X0109836Y0114771D01*
X0108829Y0113764D01*
X0107512Y0113219D01*
X0106088Y0113219D01*
X0104771Y0113764D01*
X0103764Y0114771D01*
X0103219Y0116088D01*
X0103219Y0117512D01*
X0103764Y0118829D01*
X0104400Y0119464D01*
X0104400Y0159136D01*
X0103764Y0159771D01*
X0103219Y0161088D01*
X0103219Y0162512D01*
X0103764Y0163829D01*
X0104771Y0164836D01*
X0103609Y0163454D02*
X0099200Y0163454D01*
X0099200Y0161856D02*
X0103219Y0161856D01*
X0103563Y0160257D02*
X0099200Y0160257D01*
X0099200Y0158659D02*
X0104400Y0158659D01*
X0104400Y0157060D02*
X0099200Y0157060D01*
X0099200Y0155462D02*
X0104400Y0155462D01*
X0104400Y0153863D02*
X0099200Y0153863D01*
X0099200Y0152265D02*
X0104400Y0152265D01*
X0104400Y0150666D02*
X0099200Y0150666D01*
X0099200Y0149068D02*
X0104400Y0149068D01*
X0104400Y0147469D02*
X0099200Y0147469D01*
X0099200Y0145870D02*
X0104400Y0145870D01*
X0104400Y0144272D02*
X0099200Y0144272D01*
X0099200Y0142673D02*
X0104400Y0142673D01*
X0104400Y0141075D02*
X0099200Y0141075D01*
X0099200Y0139476D02*
X0104400Y0139476D01*
X0104400Y0137878D02*
X0099200Y0137878D01*
X0099200Y0136279D02*
X0104400Y0136279D01*
X0104400Y0134681D02*
X0099200Y0134681D01*
X0099200Y0133082D02*
X0104400Y0133082D01*
X0104400Y0131484D02*
X0099200Y0131484D01*
X0099200Y0129885D02*
X0104400Y0129885D01*
X0104400Y0128287D02*
X0099200Y0128287D01*
X0099200Y0126688D02*
X0104400Y0126688D01*
X0104400Y0125090D02*
X0099200Y0125090D01*
X0099200Y0123491D02*
X0104400Y0123491D01*
X0104400Y0121893D02*
X0099200Y0121893D01*
X0099200Y0120294D02*
X0104400Y0120294D01*
X0103709Y0118696D02*
X0099200Y0118696D01*
X0099200Y0117097D02*
X0103219Y0117097D01*
X0103463Y0115499D02*
X0099200Y0115499D01*
X0099200Y0113900D02*
X0104635Y0113900D01*
X0106800Y0116800D02*
X0106800Y0161800D01*
X0108305Y0165053D02*
X0111230Y0165053D01*
X0110111Y0163454D02*
X0109991Y0163454D01*
X0110037Y0160257D02*
X0110075Y0160257D01*
X0109200Y0158659D02*
X0111119Y0158659D01*
X0109200Y0157060D02*
X0124400Y0157060D01*
X0124400Y0155462D02*
X0121535Y0155462D01*
X0121779Y0155361D02*
X0120235Y0156000D01*
X0113365Y0156000D01*
X0111821Y0155361D01*
X0110639Y0154179D01*
X0110000Y0152635D01*
X0110000Y0150965D01*
X0110639Y0149421D01*
X0111821Y0148239D01*
X0113365Y0147600D01*
X0120235Y0147600D01*
X0121779Y0148239D01*
X0122961Y0149421D01*
X0123600Y0150965D01*
X0123600Y0152635D01*
X0122961Y0154179D01*
X0121779Y0155361D01*
X0123091Y0153863D02*
X0124400Y0153863D01*
X0124400Y0152265D02*
X0123600Y0152265D01*
X0123476Y0150666D02*
X0124400Y0150666D01*
X0124400Y0149068D02*
X0122607Y0149068D01*
X0124400Y0147469D02*
X0109200Y0147469D01*
X0109200Y0145870D02*
X0113052Y0145870D01*
X0113365Y0146000D02*
X0111821Y0145361D01*
X0110639Y0144179D01*
X0110000Y0142635D01*
X0110000Y0140965D01*
X0110639Y0139421D01*
X0111821Y0138239D01*
X0113365Y0137600D01*
X0120235Y0137600D01*
X0121779Y0138239D01*
X0122961Y0139421D01*
X0123600Y0140965D01*
X0123600Y0142635D01*
X0122961Y0144179D01*
X0121779Y0145361D01*
X0120235Y0146000D01*
X0113365Y0146000D01*
X0110732Y0144272D02*
X0109200Y0144272D01*
X0109200Y0142673D02*
X0110016Y0142673D01*
X0110000Y0141075D02*
X0109200Y0141075D01*
X0109200Y0139476D02*
X0110616Y0139476D01*
X0109200Y0137878D02*
X0112694Y0137878D01*
X0111141Y0134681D02*
X0109200Y0134681D01*
X0109200Y0136279D02*
X0124400Y0136279D01*
X0124400Y0134681D02*
X0122459Y0134681D01*
X0123415Y0133082D02*
X0124400Y0133082D01*
X0124400Y0137878D02*
X0120906Y0137878D01*
X0122984Y0139476D02*
X0124400Y0139476D01*
X0124400Y0141075D02*
X0123600Y0141075D01*
X0123584Y0142673D02*
X0124400Y0142673D01*
X0124400Y0144272D02*
X0122868Y0144272D01*
X0124400Y0145870D02*
X0120548Y0145870D01*
X0112065Y0155462D02*
X0109200Y0155462D01*
X0109200Y0153863D02*
X0110509Y0153863D01*
X0110000Y0152265D02*
X0109200Y0152265D01*
X0109200Y0150666D02*
X0110124Y0150666D01*
X0110993Y0149068D02*
X0109200Y0149068D01*
X0116800Y0158659D02*
X0116800Y0158659D01*
X0116800Y0160257D02*
X0116800Y0160257D01*
X0116800Y0161856D02*
X0116800Y0161856D01*
X0116800Y0163454D02*
X0116800Y0163454D01*
X0116800Y0165053D02*
X0116800Y0165053D01*
X0123525Y0160257D02*
X0124400Y0160257D01*
X0124400Y0158659D02*
X0122481Y0158659D01*
X0110185Y0133082D02*
X0109200Y0133082D01*
X0109200Y0131484D02*
X0110000Y0131484D01*
X0110447Y0129885D02*
X0109200Y0129885D01*
X0109200Y0128287D02*
X0111773Y0128287D01*
X0111550Y0125090D02*
X0109200Y0125090D01*
X0109200Y0126688D02*
X0118294Y0126688D01*
X0123484Y0125090D02*
X0132400Y0125090D01*
X0132400Y0126688D02*
X0125082Y0126688D01*
X0126681Y0128287D02*
X0132400Y0128287D01*
X0133886Y0123491D02*
X0123245Y0123491D01*
X0123600Y0121893D02*
X0174400Y0121893D01*
X0174400Y0120294D02*
X0123322Y0120294D01*
X0123298Y0118696D02*
X0174362Y0118696D01*
X0179200Y0118696D02*
X0184400Y0118696D01*
X0184400Y0120294D02*
X0179200Y0120294D01*
X0179200Y0121893D02*
X0184400Y0121893D01*
X0184400Y0123491D02*
X0179431Y0123491D01*
X0181000Y0125090D02*
X0184400Y0125090D01*
X0184400Y0126688D02*
X0181000Y0126688D01*
X0181000Y0128287D02*
X0184400Y0128287D01*
X0184400Y0129885D02*
X0179654Y0129885D01*
X0179132Y0117097D02*
X0184400Y0117097D01*
X0184400Y0115499D02*
X0179041Y0115499D01*
X0180639Y0113900D02*
X0184400Y0113900D01*
X0184400Y0112302D02*
X0181000Y0112302D01*
X0181291Y0110703D02*
X0184400Y0110703D01*
X0184400Y0109105D02*
X0182889Y0109105D01*
X0184105Y0107506D02*
X0184400Y0107506D01*
X0184400Y0105908D02*
X0184200Y0105908D01*
X0184355Y0104309D02*
X0184400Y0104309D01*
X0181800Y0106800D02*
X0181800Y0101800D01*
X0179200Y0097915D02*
X0184400Y0097915D01*
X0184400Y0096317D02*
X0179200Y0096317D01*
X0179200Y0094718D02*
X0184400Y0094718D01*
X0184484Y0093120D02*
X0179200Y0093120D01*
X0179200Y0091521D02*
X0185685Y0091521D01*
X0187283Y0089923D02*
X0179200Y0089923D01*
X0181800Y0106800D02*
X0176800Y0111800D01*
X0141800Y0096800D02*
X0141800Y0071800D01*
X0141800Y0051800D01*
X0136800Y0046800D01*
X0134095Y0043566D02*
X0129200Y0043566D01*
X0129200Y0045164D02*
X0132600Y0045164D01*
X0132600Y0046763D02*
X0129200Y0046763D01*
X0129200Y0048361D02*
X0132600Y0048361D01*
X0134020Y0049960D02*
X0129200Y0049960D01*
X0129200Y0051558D02*
X0138164Y0051558D01*
X0139400Y0053157D02*
X0129200Y0053157D01*
X0129200Y0054755D02*
X0139400Y0054755D01*
X0139400Y0056354D02*
X0129200Y0056354D01*
X0129200Y0057952D02*
X0139400Y0057952D01*
X0139400Y0059551D02*
X0129200Y0059551D01*
X0129200Y0061149D02*
X0139400Y0061149D01*
X0139400Y0062748D02*
X0129200Y0062748D01*
X0129200Y0064346D02*
X0139400Y0064346D01*
X0139400Y0065945D02*
X0129200Y0065945D01*
X0129200Y0067543D02*
X0139400Y0067543D01*
X0138518Y0069142D02*
X0129200Y0069142D01*
X0129200Y0070740D02*
X0137600Y0070740D01*
X0137600Y0072339D02*
X0129200Y0072339D01*
X0129200Y0073937D02*
X0129598Y0073937D01*
X0124400Y0067543D02*
X0094451Y0067543D01*
X0096049Y0065945D02*
X0113232Y0065945D01*
X0110807Y0064346D02*
X0097648Y0064346D01*
X0099005Y0062748D02*
X0110047Y0062748D01*
X0110000Y0061149D02*
X0099200Y0061149D01*
X0099200Y0059551D02*
X0110586Y0059551D01*
X0110918Y0069142D02*
X0092852Y0069142D01*
X0093507Y0070740D02*
X0110093Y0070740D01*
X0110000Y0072339D02*
X0093600Y0072339D01*
X0093061Y0073937D02*
X0110539Y0073937D01*
X0112244Y0075536D02*
X0091356Y0075536D01*
X0092273Y0078733D02*
X0111044Y0078733D01*
X0110051Y0080332D02*
X0093338Y0080332D01*
X0093600Y0081930D02*
X0109800Y0081930D01*
X0110143Y0083529D02*
X0093230Y0083529D01*
X0093521Y0085127D02*
X0111305Y0085127D01*
X0110432Y0089923D02*
X0098317Y0089923D01*
X0099200Y0091521D02*
X0110000Y0091521D01*
X0110201Y0093120D02*
X0099200Y0093120D01*
X0099200Y0094718D02*
X0111178Y0094718D01*
X0110956Y0109105D02*
X0099200Y0109105D01*
X0099200Y0110703D02*
X0110108Y0110703D01*
X0110000Y0112302D02*
X0099200Y0112302D01*
X0094400Y0112302D02*
X0093600Y0112302D01*
X0093600Y0112635D02*
X0092961Y0114179D01*
X0091779Y0115361D01*
X0090235Y0116000D01*
X0083365Y0116000D01*
X0081821Y0115361D01*
X0080639Y0114179D01*
X0080000Y0112635D01*
X0080000Y0110965D01*
X0080639Y0109421D01*
X0081821Y0108239D01*
X0083365Y0107600D01*
X0090235Y0107600D01*
X0091779Y0108239D01*
X0092961Y0109421D01*
X0093600Y0110965D01*
X0093600Y0112635D01*
X0093076Y0113900D02*
X0094400Y0113900D01*
X0094400Y0115499D02*
X0091445Y0115499D01*
X0092235Y0118696D02*
X0094400Y0118696D01*
X0094400Y0120294D02*
X0093322Y0120294D01*
X0093600Y0121893D02*
X0094400Y0121893D01*
X0094400Y0123491D02*
X0093245Y0123491D01*
X0094400Y0125090D02*
X0092050Y0125090D01*
X0091827Y0128287D02*
X0094400Y0128287D01*
X0094400Y0129885D02*
X0093153Y0129885D01*
X0093600Y0131484D02*
X0094400Y0131484D01*
X0094400Y0133082D02*
X0093415Y0133082D01*
X0092459Y0134681D02*
X0094400Y0134681D01*
X0094400Y0136279D02*
X0079200Y0136279D01*
X0079200Y0134681D02*
X0081141Y0134681D01*
X0080185Y0133082D02*
X0080145Y0133082D01*
X0076800Y0131800D02*
X0076800Y0146800D01*
X0079336Y0144272D02*
X0080732Y0144272D01*
X0080639Y0144179D02*
X0080000Y0142635D01*
X0080000Y0140965D01*
X0080639Y0139421D01*
X0081821Y0138239D01*
X0083365Y0137600D01*
X0090235Y0137600D01*
X0091779Y0138239D01*
X0092961Y0139421D01*
X0093600Y0140965D01*
X0093600Y0142635D01*
X0092961Y0144179D01*
X0091779Y0145361D01*
X0090235Y0146000D01*
X0083365Y0146000D01*
X0081821Y0145361D01*
X0080639Y0144179D01*
X0080016Y0142673D02*
X0079200Y0142673D01*
X0079200Y0141075D02*
X0080000Y0141075D01*
X0080616Y0139476D02*
X0079200Y0139476D01*
X0079200Y0137878D02*
X0082694Y0137878D01*
X0086800Y0131800D02*
X0076800Y0121800D01*
X0076800Y0046800D01*
X0073219Y0046763D02*
X0059500Y0046763D01*
X0059500Y0048361D02*
X0064299Y0048361D01*
X0065060Y0047600D02*
X0062600Y0050060D01*
X0062600Y0053540D01*
X0065060Y0056000D01*
X0068540Y0056000D01*
X0071000Y0053540D01*
X0071000Y0050060D01*
X0068540Y0047600D01*
X0065060Y0047600D01*
X0062700Y0049960D02*
X0059500Y0049960D01*
X0059500Y0051558D02*
X0062600Y0051558D01*
X0062600Y0053157D02*
X0059500Y0053157D01*
X0059500Y0054755D02*
X0063816Y0054755D01*
X0064771Y0058764D02*
X0063764Y0059771D01*
X0063219Y0061088D01*
X0063219Y0062512D01*
X0063764Y0063829D01*
X0064400Y0064464D01*
X0064400Y0078260D01*
X0062600Y0080060D01*
X0062600Y0083540D01*
X0065060Y0086000D01*
X0068540Y0086000D01*
X0071000Y0083540D01*
X0071000Y0080060D01*
X0069200Y0078260D01*
X0069200Y0064464D01*
X0069836Y0063829D01*
X0070381Y0062512D01*
X0070381Y0061088D01*
X0069836Y0059771D01*
X0068829Y0058764D01*
X0067512Y0058219D01*
X0066088Y0058219D01*
X0064771Y0058764D01*
X0063985Y0059551D02*
X0059500Y0059551D01*
X0059500Y0061149D02*
X0063219Y0061149D01*
X0063316Y0062748D02*
X0059500Y0062748D01*
X0059500Y0064346D02*
X0064282Y0064346D01*
X0064400Y0065945D02*
X0059500Y0065945D01*
X0059500Y0067543D02*
X0064400Y0067543D01*
X0064400Y0069142D02*
X0059500Y0069142D01*
X0059500Y0070740D02*
X0064400Y0070740D01*
X0064400Y0072339D02*
X0059500Y0072339D01*
X0059500Y0073937D02*
X0064400Y0073937D01*
X0064400Y0075536D02*
X0059500Y0075536D01*
X0059500Y0077134D02*
X0064400Y0077134D01*
X0063927Y0078733D02*
X0059500Y0078733D01*
X0059500Y0080332D02*
X0062600Y0080332D01*
X0062600Y0081930D02*
X0059500Y0081930D01*
X0059500Y0083529D02*
X0062600Y0083529D01*
X0064187Y0085127D02*
X0059500Y0085127D01*
X0059500Y0086726D02*
X0074400Y0086726D01*
X0074400Y0088324D02*
X0059500Y0088324D01*
X0059500Y0089923D02*
X0074400Y0089923D01*
X0074400Y0091521D02*
X0059500Y0091521D01*
X0059500Y0093120D02*
X0074400Y0093120D01*
X0074400Y0094718D02*
X0069783Y0094718D01*
X0070381Y0096317D02*
X0074400Y0096317D01*
X0074400Y0097915D02*
X0070214Y0097915D01*
X0069200Y0099514D02*
X0074400Y0099514D01*
X0074400Y0101112D02*
X0069200Y0101112D01*
X0069200Y0102711D02*
X0074400Y0102711D01*
X0074374Y0104309D02*
X0074400Y0104309D01*
X0071800Y0106800D02*
X0071800Y0176800D01*
X0056326Y0192274D01*
X0035149Y0192274D01*
X0032154Y0189279D01*
X0032154Y0184950D01*
X0028732Y0187432D02*
X0011600Y0187432D01*
X0011600Y0189030D02*
X0015196Y0189030D01*
X0018404Y0189030D02*
X0029754Y0189030D01*
X0030116Y0190629D02*
X0021456Y0190629D01*
X0022971Y0192227D02*
X0031709Y0192227D01*
X0033307Y0193826D02*
X0023633Y0193826D01*
X0024010Y0195424D02*
X0056677Y0195424D01*
X0056483Y0197023D02*
X0024010Y0197023D01*
X0023589Y0198621D02*
X0056861Y0198621D01*
X0059767Y0192227D02*
X0198850Y0192227D01*
X0198850Y0190629D02*
X0061365Y0190629D01*
X0062964Y0189030D02*
X0198850Y0189030D01*
X0198850Y0187432D02*
X0064562Y0187432D01*
X0066161Y0185833D02*
X0198850Y0185833D01*
X0198850Y0184235D02*
X0099430Y0184235D01*
X0096800Y0181800D02*
X0096800Y0091800D01*
X0086800Y0081800D01*
X0088331Y0086726D02*
X0079200Y0086726D01*
X0079200Y0088324D02*
X0081736Y0088324D01*
X0080432Y0089923D02*
X0079200Y0089923D01*
X0079200Y0091521D02*
X0080000Y0091521D01*
X0080201Y0093120D02*
X0079200Y0093120D01*
X0079200Y0094718D02*
X0081178Y0094718D01*
X0079200Y0096317D02*
X0094400Y0096317D01*
X0094400Y0097915D02*
X0091467Y0097915D01*
X0091706Y0098037D02*
X0092266Y0098444D01*
X0092756Y0098934D01*
X0093163Y0099494D01*
X0093478Y0100111D01*
X0093692Y0100770D01*
X0093800Y0101454D01*
X0093800Y0101800D01*
X0093800Y0102146D01*
X0093692Y0102830D01*
X0093478Y0103489D01*
X0093163Y0104106D01*
X0092756Y0104666D01*
X0092266Y0105156D01*
X0091706Y0105563D01*
X0091089Y0105878D01*
X0090430Y0106092D01*
X0089746Y0106200D01*
X0086800Y0106200D01*
X0086800Y0101800D01*
X0086800Y0101800D01*
X0093800Y0101800D01*
X0086800Y0101800D01*
X0086800Y0101800D01*
X0086800Y0097400D01*
X0089746Y0097400D01*
X0090430Y0097508D01*
X0091089Y0097722D01*
X0091706Y0098037D01*
X0093173Y0099514D02*
X0094400Y0099514D01*
X0094400Y0101112D02*
X0093746Y0101112D01*
X0093711Y0102711D02*
X0094400Y0102711D01*
X0094400Y0104309D02*
X0093016Y0104309D01*
X0094400Y0105908D02*
X0090996Y0105908D01*
X0092644Y0109105D02*
X0094400Y0109105D01*
X0094400Y0110703D02*
X0093492Y0110703D01*
X0094400Y0107506D02*
X0079200Y0107506D01*
X0079200Y0105908D02*
X0082604Y0105908D01*
X0082511Y0105878D02*
X0081894Y0105563D01*
X0081334Y0105156D01*
X0080844Y0104666D01*
X0080437Y0104106D01*
X0080122Y0103489D01*
X0079908Y0102830D01*
X0079800Y0102146D01*
X0079800Y0101800D01*
X0086800Y0101800D01*
X0086800Y0101800D01*
X0086800Y0101800D01*
X0086800Y0106200D01*
X0083854Y0106200D01*
X0083170Y0106092D01*
X0082511Y0105878D01*
X0080584Y0104309D02*
X0079200Y0104309D01*
X0079200Y0102711D02*
X0079889Y0102711D01*
X0079800Y0101800D02*
X0079800Y0101454D01*
X0079908Y0100770D01*
X0080122Y0100111D01*
X0080437Y0099494D01*
X0080844Y0098934D01*
X0081334Y0098444D01*
X0081894Y0098037D01*
X0082511Y0097722D01*
X0083170Y0097508D01*
X0083854Y0097400D01*
X0086800Y0097400D01*
X0086800Y0101800D01*
X0079800Y0101800D01*
X0079854Y0101112D02*
X0079200Y0101112D01*
X0079200Y0099514D02*
X0080427Y0099514D01*
X0079200Y0097915D02*
X0082133Y0097915D01*
X0086800Y0097915D02*
X0086800Y0097915D01*
X0086800Y0099514D02*
X0086800Y0099514D01*
X0086800Y0101112D02*
X0086800Y0101112D01*
X0086800Y0102711D02*
X0086800Y0102711D01*
X0086800Y0104309D02*
X0086800Y0104309D01*
X0086800Y0105908D02*
X0086800Y0105908D01*
X0080956Y0109105D02*
X0079200Y0109105D01*
X0079200Y0110703D02*
X0080108Y0110703D01*
X0080000Y0112302D02*
X0079200Y0112302D01*
X0079200Y0113900D02*
X0080524Y0113900D01*
X0079200Y0115499D02*
X0082155Y0115499D01*
X0081365Y0118696D02*
X0079200Y0118696D01*
X0079200Y0120294D02*
X0080278Y0120294D01*
X0079200Y0117097D02*
X0094400Y0117097D01*
X0094400Y0126688D02*
X0085082Y0126688D01*
X0090906Y0137878D02*
X0094400Y0137878D01*
X0094400Y0139476D02*
X0092984Y0139476D01*
X0093600Y0141075D02*
X0094400Y0141075D01*
X0094400Y0142673D02*
X0093584Y0142673D01*
X0092868Y0144272D02*
X0094400Y0144272D01*
X0094400Y0145870D02*
X0090548Y0145870D01*
X0090235Y0147600D02*
X0091779Y0148239D01*
X0092961Y0149421D01*
X0093600Y0150965D01*
X0093600Y0152635D01*
X0092961Y0154179D01*
X0091779Y0155361D01*
X0090235Y0156000D01*
X0083365Y0156000D01*
X0081821Y0155361D01*
X0080639Y0154179D01*
X0080000Y0152635D01*
X0080000Y0150965D01*
X0080639Y0149421D01*
X0081821Y0148239D01*
X0083365Y0147600D01*
X0090235Y0147600D01*
X0092607Y0149068D02*
X0094400Y0149068D01*
X0094400Y0150666D02*
X0093476Y0150666D01*
X0093600Y0152265D02*
X0094400Y0152265D01*
X0094400Y0153863D02*
X0093091Y0153863D01*
X0094400Y0155462D02*
X0091535Y0155462D01*
X0090235Y0157600D02*
X0091779Y0158239D01*
X0092961Y0159421D01*
X0093600Y0160965D01*
X0093600Y0162635D01*
X0092961Y0164179D01*
X0091779Y0165361D01*
X0090235Y0166000D01*
X0083365Y0166000D01*
X0081821Y0165361D01*
X0080639Y0164179D01*
X0080000Y0162635D01*
X0080000Y0160965D01*
X0080639Y0159421D01*
X0081821Y0158239D01*
X0083365Y0157600D01*
X0090235Y0157600D01*
X0092198Y0158659D02*
X0094400Y0158659D01*
X0094400Y0160257D02*
X0093307Y0160257D01*
X0093600Y0161856D02*
X0094400Y0161856D01*
X0094400Y0163454D02*
X0093261Y0163454D01*
X0094400Y0165053D02*
X0092087Y0165053D01*
X0094400Y0166651D02*
X0074200Y0166651D01*
X0074200Y0165053D02*
X0081513Y0165053D01*
X0080339Y0163454D02*
X0074200Y0163454D01*
X0074200Y0161856D02*
X0080000Y0161856D01*
X0080293Y0160257D02*
X0074200Y0160257D01*
X0074200Y0158659D02*
X0081402Y0158659D01*
X0082065Y0155462D02*
X0074200Y0155462D01*
X0074200Y0157060D02*
X0094400Y0157060D01*
X0094400Y0147469D02*
X0080381Y0147469D01*
X0080291Y0145870D02*
X0083052Y0145870D01*
X0080993Y0149068D02*
X0079597Y0149068D01*
X0080124Y0150666D02*
X0074200Y0150666D01*
X0074200Y0152265D02*
X0080000Y0152265D01*
X0080509Y0153863D02*
X0074200Y0153863D01*
X0066800Y0161800D02*
X0066800Y0096800D01*
X0064400Y0099514D02*
X0059500Y0099514D01*
X0059500Y0101112D02*
X0064400Y0101112D01*
X0064400Y0102711D02*
X0059500Y0102711D01*
X0059500Y0104309D02*
X0064400Y0104309D01*
X0064400Y0105908D02*
X0059500Y0105908D01*
X0059500Y0107506D02*
X0064400Y0107506D01*
X0064400Y0109105D02*
X0059500Y0109105D01*
X0059500Y0110703D02*
X0064400Y0110703D01*
X0064400Y0112302D02*
X0059500Y0112302D01*
X0059500Y0113900D02*
X0064400Y0113900D01*
X0064400Y0115499D02*
X0059500Y0115499D01*
X0059500Y0117097D02*
X0064400Y0117097D01*
X0064400Y0118696D02*
X0059500Y0118696D01*
X0059500Y0120294D02*
X0064400Y0120294D01*
X0064400Y0121893D02*
X0059500Y0121893D01*
X0059500Y0123491D02*
X0064400Y0123491D01*
X0064400Y0125090D02*
X0059500Y0125090D01*
X0059500Y0126688D02*
X0064400Y0126688D01*
X0064400Y0128287D02*
X0059500Y0128287D01*
X0059500Y0129885D02*
X0064400Y0129885D01*
X0064400Y0131484D02*
X0059500Y0131484D01*
X0059500Y0133082D02*
X0064400Y0133082D01*
X0064400Y0134681D02*
X0059500Y0134681D01*
X0059500Y0136279D02*
X0064400Y0136279D01*
X0064400Y0137878D02*
X0059500Y0137878D01*
X0061800Y0141800D02*
X0061800Y0156800D01*
X0060788Y0160257D02*
X0059175Y0160257D01*
X0059616Y0161856D02*
X0063350Y0161856D01*
X0062812Y0160257D02*
X0064400Y0160257D01*
X0066800Y0161800D02*
X0046800Y0181800D01*
X0036879Y0181800D01*
X0040586Y0177841D02*
X0047365Y0177841D01*
X0048964Y0176242D02*
X0041191Y0176242D01*
X0041254Y0175501D02*
X0036879Y0175501D01*
X0036879Y0175501D01*
X0041254Y0175501D01*
X0041172Y0174644D02*
X0050562Y0174644D01*
X0052161Y0173045D02*
X0040502Y0173045D01*
X0038558Y0171447D02*
X0053759Y0171447D01*
X0055358Y0169848D02*
X0023603Y0169848D01*
X0024010Y0168250D02*
X0056956Y0168250D01*
X0058555Y0166651D02*
X0024010Y0166651D01*
X0023620Y0165053D02*
X0053208Y0165053D01*
X0052628Y0163454D02*
X0022957Y0163454D01*
X0021422Y0161856D02*
X0030156Y0161856D01*
X0033444Y0161856D02*
X0039607Y0161856D01*
X0041600Y0161856D02*
X0042000Y0161856D01*
X0042000Y0160257D02*
X0041600Y0160257D01*
X0041600Y0158659D02*
X0042000Y0158659D01*
X0042000Y0157060D02*
X0041600Y0157060D01*
X0041800Y0156800D02*
X0036879Y0161721D01*
X0036879Y0175501D01*
X0036879Y0171126D01*
X0036879Y0175501D01*
X0036879Y0175501D01*
X0036879Y0174644D02*
X0036879Y0174644D01*
X0036879Y0173045D02*
X0036879Y0173045D01*
X0036879Y0171447D02*
X0036879Y0171447D01*
X0035199Y0171447D02*
X0022941Y0171447D01*
X0021382Y0173045D02*
X0033255Y0173045D01*
X0030918Y0174644D02*
X0011600Y0174644D01*
X0011600Y0176242D02*
X0028658Y0176242D01*
X0027980Y0177841D02*
X0011600Y0177841D01*
X0011600Y0179439D02*
X0027980Y0179439D01*
X0028638Y0181038D02*
X0011600Y0181038D01*
X0011600Y0182636D02*
X0028594Y0182636D01*
X0027980Y0184235D02*
X0011600Y0184235D01*
X0011600Y0185833D02*
X0028002Y0185833D01*
X0012144Y0190629D02*
X0011600Y0190629D01*
X0011600Y0173045D02*
X0012218Y0173045D01*
X0012177Y0161856D02*
X0011600Y0161856D01*
X0011600Y0160257D02*
X0015275Y0160257D01*
X0018324Y0160257D02*
X0027762Y0160257D01*
X0026833Y0158659D02*
X0011600Y0158659D01*
X0011600Y0157060D02*
X0026500Y0157060D01*
X0026618Y0155462D02*
X0011600Y0155462D01*
X0011600Y0153863D02*
X0027280Y0153863D01*
X0028900Y0152265D02*
X0011600Y0152265D01*
X0011600Y0150666D02*
X0029400Y0150666D01*
X0029400Y0149068D02*
X0011600Y0149068D01*
X0011600Y0147469D02*
X0029400Y0147469D01*
X0029400Y0145870D02*
X0015225Y0145870D01*
X0016513Y0144272D02*
X0029400Y0144272D01*
X0029400Y0142673D02*
X0017100Y0142673D01*
X0017100Y0141075D02*
X0029400Y0141075D01*
X0029400Y0139476D02*
X0024188Y0139476D01*
X0025230Y0137878D02*
X0029400Y0137878D01*
X0029400Y0136279D02*
X0025381Y0136279D01*
X0024745Y0134681D02*
X0029400Y0134681D01*
X0029400Y0133082D02*
X0024200Y0133082D01*
X0024200Y0131484D02*
X0029400Y0131484D01*
X0029400Y0129885D02*
X0024200Y0129885D01*
X0024200Y0128287D02*
X0029400Y0128287D01*
X0029400Y0126688D02*
X0024200Y0126688D01*
X0024200Y0125090D02*
X0029400Y0125090D01*
X0029400Y0123491D02*
X0024200Y0123491D01*
X0024200Y0121893D02*
X0029400Y0121893D01*
X0029400Y0120294D02*
X0024200Y0120294D01*
X0024200Y0118696D02*
X0029400Y0118696D01*
X0029400Y0117097D02*
X0024200Y0117097D01*
X0024200Y0115499D02*
X0029400Y0115499D01*
X0029400Y0113900D02*
X0024200Y0113900D01*
X0024200Y0112302D02*
X0029400Y0112302D01*
X0029400Y0110703D02*
X0024200Y0110703D01*
X0024200Y0109105D02*
X0029400Y0109105D01*
X0029400Y0107506D02*
X0024200Y0107506D01*
X0024200Y0105908D02*
X0029400Y0105908D01*
X0029400Y0104309D02*
X0024200Y0104309D01*
X0024200Y0102711D02*
X0029400Y0102711D01*
X0029400Y0101112D02*
X0024200Y0101112D01*
X0024200Y0099514D02*
X0029400Y0099514D01*
X0029400Y0097915D02*
X0024200Y0097915D01*
X0024200Y0096317D02*
X0029402Y0096317D01*
X0030488Y0094718D02*
X0024200Y0094718D01*
X0024200Y0093120D02*
X0032086Y0093120D01*
X0033219Y0091521D02*
X0024200Y0091521D01*
X0024200Y0089923D02*
X0033701Y0089923D01*
X0035834Y0088324D02*
X0024200Y0088324D01*
X0024200Y0086726D02*
X0043219Y0086726D01*
X0043219Y0086613D02*
X0034765Y0078159D01*
X0034400Y0077277D01*
X0034400Y0070340D01*
X0032600Y0068540D01*
X0032600Y0065060D01*
X0035060Y0062600D01*
X0038540Y0062600D01*
X0041000Y0065060D01*
X0041000Y0068540D01*
X0039200Y0070340D01*
X0039200Y0075806D01*
X0046613Y0083219D01*
X0047512Y0083219D01*
X0048829Y0083764D01*
X0049836Y0084771D01*
X0050381Y0086088D01*
X0050381Y0087512D01*
X0049836Y0088829D01*
X0048829Y0089836D01*
X0047512Y0090381D01*
X0046088Y0090381D01*
X0044771Y0089836D01*
X0043764Y0088829D01*
X0043219Y0087512D01*
X0043219Y0086613D01*
X0043555Y0088324D02*
X0037766Y0088324D01*
X0039898Y0089923D02*
X0044981Y0089923D01*
X0046800Y0086800D02*
X0036800Y0076800D01*
X0036800Y0066800D01*
X0040286Y0064346D02*
X0043314Y0064346D01*
X0042600Y0065060D02*
X0042600Y0068540D01*
X0045060Y0071000D01*
X0048540Y0071000D01*
X0051000Y0068540D01*
X0051000Y0065060D01*
X0048540Y0062600D01*
X0045060Y0062600D01*
X0042600Y0065060D01*
X0042600Y0065945D02*
X0041000Y0065945D01*
X0041000Y0067543D02*
X0042600Y0067543D01*
X0043202Y0069142D02*
X0040398Y0069142D01*
X0039200Y0070740D02*
X0044801Y0070740D01*
X0048799Y0070740D02*
X0054700Y0070740D01*
X0054700Y0069142D02*
X0050398Y0069142D01*
X0051000Y0067543D02*
X0054700Y0067543D01*
X0054700Y0065945D02*
X0051000Y0065945D01*
X0050286Y0064346D02*
X0054700Y0064346D01*
X0054700Y0062748D02*
X0048688Y0062748D01*
X0044912Y0062748D02*
X0038688Y0062748D01*
X0034912Y0062748D02*
X0023637Y0062748D01*
X0022039Y0061149D02*
X0054700Y0061149D01*
X0054700Y0059551D02*
X0020440Y0059551D01*
X0018842Y0057952D02*
X0054700Y0057952D01*
X0054700Y0056354D02*
X0017243Y0056354D01*
X0016313Y0054755D02*
X0023533Y0054755D01*
X0022400Y0053623D02*
X0022400Y0051800D01*
X0026800Y0051800D01*
X0031200Y0051800D01*
X0031200Y0053623D01*
X0028623Y0056200D01*
X0026800Y0056200D01*
X0026800Y0051800D01*
X0026800Y0051800D01*
X0026800Y0051800D01*
X0031200Y0051800D01*
X0031200Y0049977D01*
X0028623Y0047400D01*
X0026800Y0047400D01*
X0026800Y0051800D01*
X0026800Y0051800D01*
X0026800Y0051800D01*
X0026800Y0056200D01*
X0024977Y0056200D01*
X0022400Y0053623D01*
X0022400Y0053157D02*
X0016975Y0053157D01*
X0017100Y0051558D02*
X0022400Y0051558D01*
X0022400Y0051800D02*
X0022400Y0049977D01*
X0024977Y0047400D01*
X0026800Y0047400D01*
X0026800Y0051800D01*
X0022400Y0051800D01*
X0022418Y0049960D02*
X0016774Y0049960D01*
X0015857Y0048361D02*
X0024016Y0048361D01*
X0026800Y0048361D02*
X0026800Y0048361D01*
X0026800Y0049960D02*
X0026800Y0049960D01*
X0026800Y0051558D02*
X0026800Y0051558D01*
X0026800Y0053157D02*
X0026800Y0053157D01*
X0026800Y0054755D02*
X0026800Y0054755D01*
X0030067Y0054755D02*
X0054700Y0054755D01*
X0054700Y0053157D02*
X0031200Y0053157D01*
X0031200Y0051558D02*
X0054700Y0051558D01*
X0054700Y0049960D02*
X0031182Y0049960D01*
X0029584Y0048361D02*
X0054700Y0048361D01*
X0054700Y0046763D02*
X0013668Y0046763D01*
X0015931Y0045164D02*
X0054700Y0045164D01*
X0054700Y0043566D02*
X0016805Y0043566D01*
X0017100Y0041967D02*
X0054700Y0041967D01*
X0054971Y0040369D02*
X0016944Y0040369D01*
X0016266Y0038770D02*
X0056436Y0038770D01*
X0058034Y0037172D02*
X0014476Y0037172D01*
X0015522Y0035573D02*
X0058432Y0035573D01*
X0059561Y0033975D02*
X0016636Y0033975D01*
X0017100Y0032376D02*
X0093982Y0032376D01*
X0094400Y0033975D02*
X0064039Y0033975D01*
X0065168Y0035573D02*
X0094400Y0035573D01*
X0094400Y0037172D02*
X0065381Y0037172D01*
X0064860Y0038770D02*
X0081290Y0038770D01*
X0081821Y0038239D02*
X0080639Y0039421D01*
X0080000Y0040965D01*
X0080000Y0042635D01*
X0080639Y0044179D01*
X0081821Y0045361D01*
X0083365Y0046000D01*
X0090235Y0046000D01*
X0091779Y0045361D01*
X0092961Y0044179D01*
X0093600Y0042635D01*
X0093600Y0040965D01*
X0092961Y0039421D01*
X0091779Y0038239D01*
X0090235Y0037600D01*
X0083365Y0037600D01*
X0081821Y0038239D01*
X0080247Y0040369D02*
X0062542Y0040369D01*
X0061800Y0036800D02*
X0057100Y0041500D01*
X0057100Y0158995D01*
X0056209Y0159886D01*
X0056209Y0162989D01*
X0059790Y0163454D02*
X0061752Y0163454D01*
X0060153Y0165053D02*
X0059210Y0165053D01*
X0050156Y0161856D02*
X0043993Y0161856D01*
X0046087Y0160257D02*
X0047762Y0160257D01*
X0047280Y0153863D02*
X0046465Y0153863D01*
X0044915Y0152265D02*
X0048900Y0152265D01*
X0054700Y0152265D02*
X0054700Y0152265D01*
X0054700Y0150666D02*
X0034200Y0150666D01*
X0034200Y0149068D02*
X0054700Y0149068D01*
X0054700Y0147469D02*
X0034200Y0147469D01*
X0034200Y0145870D02*
X0054700Y0145870D01*
X0054700Y0144272D02*
X0034200Y0144272D01*
X0034200Y0142673D02*
X0054700Y0142673D01*
X0054700Y0141075D02*
X0034200Y0141075D01*
X0034200Y0139476D02*
X0054700Y0139476D01*
X0054700Y0137878D02*
X0034200Y0137878D01*
X0034200Y0136279D02*
X0054700Y0136279D01*
X0054700Y0134681D02*
X0034200Y0134681D01*
X0034200Y0133082D02*
X0054700Y0133082D01*
X0054700Y0131484D02*
X0034200Y0131484D01*
X0034200Y0129885D02*
X0054700Y0129885D01*
X0054700Y0128287D02*
X0034200Y0128287D01*
X0034200Y0126688D02*
X0054700Y0126688D01*
X0054700Y0125090D02*
X0034200Y0125090D01*
X0034200Y0123491D02*
X0054700Y0123491D01*
X0054700Y0121893D02*
X0034200Y0121893D01*
X0034200Y0120294D02*
X0054700Y0120294D01*
X0054700Y0118696D02*
X0034200Y0118696D01*
X0034200Y0117097D02*
X0054700Y0117097D01*
X0054700Y0115499D02*
X0034200Y0115499D01*
X0034200Y0113900D02*
X0054700Y0113900D01*
X0054700Y0112302D02*
X0034200Y0112302D01*
X0034200Y0110703D02*
X0054700Y0110703D01*
X0054700Y0109105D02*
X0034200Y0109105D01*
X0034200Y0107506D02*
X0054700Y0107506D01*
X0054700Y0105908D02*
X0034200Y0105908D01*
X0034200Y0104309D02*
X0054700Y0104309D01*
X0054700Y0102711D02*
X0034200Y0102711D01*
X0034200Y0101112D02*
X0054700Y0101112D01*
X0054700Y0099514D02*
X0034200Y0099514D01*
X0034200Y0097915D02*
X0054700Y0097915D01*
X0054700Y0096317D02*
X0035677Y0096317D01*
X0038946Y0094718D02*
X0054700Y0094718D01*
X0054700Y0093120D02*
X0040130Y0093120D01*
X0040381Y0091521D02*
X0054700Y0091521D01*
X0054700Y0089923D02*
X0048619Y0089923D01*
X0050045Y0088324D02*
X0054700Y0088324D01*
X0054700Y0086726D02*
X0050381Y0086726D01*
X0049983Y0085127D02*
X0054700Y0085127D01*
X0054700Y0083529D02*
X0048260Y0083529D01*
X0045324Y0081930D02*
X0054700Y0081930D01*
X0054700Y0080332D02*
X0043726Y0080332D01*
X0042127Y0078733D02*
X0054700Y0078733D01*
X0054700Y0077134D02*
X0040529Y0077134D01*
X0039200Y0075536D02*
X0054700Y0075536D01*
X0054700Y0073937D02*
X0039200Y0073937D01*
X0039200Y0072339D02*
X0054700Y0072339D01*
X0059500Y0057952D02*
X0074400Y0057952D01*
X0074400Y0056354D02*
X0059500Y0056354D01*
X0066800Y0061800D02*
X0066800Y0081800D01*
X0069413Y0085127D02*
X0074400Y0085127D01*
X0074400Y0083529D02*
X0071000Y0083529D01*
X0071000Y0081930D02*
X0074400Y0081930D01*
X0074400Y0080332D02*
X0071000Y0080332D01*
X0069673Y0078733D02*
X0074400Y0078733D01*
X0074400Y0077134D02*
X0069200Y0077134D01*
X0069200Y0075536D02*
X0074400Y0075536D01*
X0074400Y0073937D02*
X0069200Y0073937D01*
X0069200Y0072339D02*
X0074400Y0072339D01*
X0074400Y0070740D02*
X0069200Y0070740D01*
X0069200Y0069142D02*
X0074400Y0069142D01*
X0074400Y0067543D02*
X0069200Y0067543D01*
X0069200Y0065945D02*
X0074400Y0065945D01*
X0074400Y0064346D02*
X0069318Y0064346D01*
X0070284Y0062748D02*
X0074400Y0062748D01*
X0074400Y0061149D02*
X0070381Y0061149D01*
X0069615Y0059551D02*
X0074400Y0059551D01*
X0074400Y0054755D02*
X0069784Y0054755D01*
X0071000Y0053157D02*
X0074400Y0053157D01*
X0074400Y0051558D02*
X0071000Y0051558D01*
X0070899Y0049960D02*
X0074400Y0049960D01*
X0073571Y0048361D02*
X0069301Y0048361D01*
X0073601Y0045164D02*
X0059500Y0045164D01*
X0059500Y0043566D02*
X0075250Y0043566D01*
X0078350Y0043566D02*
X0080385Y0043566D01*
X0079999Y0045164D02*
X0081625Y0045164D01*
X0080381Y0046763D02*
X0094400Y0046763D01*
X0094400Y0048361D02*
X0091901Y0048361D01*
X0091779Y0048239D02*
X0092961Y0049421D01*
X0093600Y0050965D01*
X0093600Y0052635D01*
X0092961Y0054179D01*
X0091779Y0055361D01*
X0090235Y0056000D01*
X0083365Y0056000D01*
X0081821Y0055361D01*
X0080639Y0054179D01*
X0080000Y0052635D01*
X0080000Y0050965D01*
X0080639Y0049421D01*
X0081821Y0048239D01*
X0083365Y0047600D01*
X0090235Y0047600D01*
X0091779Y0048239D01*
X0093184Y0049960D02*
X0094400Y0049960D01*
X0094400Y0051558D02*
X0093600Y0051558D01*
X0093384Y0053157D02*
X0094400Y0053157D01*
X0094400Y0054755D02*
X0092384Y0054755D01*
X0094400Y0056354D02*
X0079200Y0056354D01*
X0079200Y0057952D02*
X0082514Y0057952D01*
X0080586Y0059551D02*
X0079200Y0059551D01*
X0079200Y0061149D02*
X0080000Y0061149D01*
X0080047Y0062748D02*
X0079200Y0062748D01*
X0079200Y0064346D02*
X0080807Y0064346D01*
X0079200Y0065945D02*
X0083232Y0065945D01*
X0091086Y0057952D02*
X0094400Y0057952D01*
X0094400Y0059551D02*
X0093014Y0059551D01*
X0093600Y0061149D02*
X0094056Y0061149D01*
X0081216Y0054755D02*
X0079200Y0054755D01*
X0079200Y0053157D02*
X0080216Y0053157D01*
X0080000Y0051558D02*
X0079200Y0051558D01*
X0079200Y0049960D02*
X0080416Y0049960D01*
X0080029Y0048361D02*
X0081699Y0048361D01*
X0080000Y0041967D02*
X0060027Y0041967D01*
X0057100Y0041500D02*
X0061800Y0036800D01*
X0054683Y0026504D02*
X0053911Y0026897D01*
X0053088Y0027165D01*
X0052233Y0027300D01*
X0052000Y0027300D01*
X0052000Y0022000D01*
X0057300Y0022000D01*
X0057300Y0022233D01*
X0057165Y0023088D01*
X0056897Y0023911D01*
X0056504Y0024683D01*
X0055995Y0025383D01*
X0055383Y0025995D01*
X0054683Y0026504D01*
X0055396Y0025982D02*
X0068487Y0025982D01*
X0067134Y0024384D02*
X0056656Y0024384D01*
X0057213Y0022785D02*
X0066500Y0022785D01*
X0066500Y0021187D02*
X0057271Y0021187D01*
X0056846Y0019588D02*
X0066980Y0019588D01*
X0068115Y0017990D02*
X0055768Y0017990D01*
X0052000Y0017990D02*
X0051600Y0017990D01*
X0051600Y0019588D02*
X0052000Y0019588D01*
X0052000Y0021187D02*
X0051600Y0021187D01*
X0051600Y0022785D02*
X0052000Y0022785D01*
X0052000Y0024384D02*
X0051600Y0024384D01*
X0051600Y0025982D02*
X0052000Y0025982D01*
X0048204Y0025982D02*
X0035113Y0025982D01*
X0036466Y0024384D02*
X0046944Y0024384D01*
X0046387Y0022785D02*
X0037100Y0022785D01*
X0037100Y0021187D02*
X0046329Y0021187D01*
X0046754Y0019588D02*
X0036620Y0019588D01*
X0035485Y0017990D02*
X0047832Y0017990D01*
X0017100Y0030778D02*
X0092384Y0030778D01*
X0088353Y0029179D02*
X0016451Y0029179D01*
X0012000Y0021187D02*
X0011600Y0021187D01*
X0011600Y0019588D02*
X0012000Y0019588D01*
X0012000Y0017990D02*
X0011600Y0017990D01*
X0011600Y0016391D02*
X0012000Y0016391D01*
X0011600Y0014793D02*
X0123755Y0014793D01*
X0126800Y0016800D02*
X0126800Y0101800D01*
X0136800Y0111800D01*
X0118109Y0117097D02*
X0110381Y0117097D01*
X0110137Y0115499D02*
X0112155Y0115499D01*
X0110524Y0113900D02*
X0108965Y0113900D01*
X0109891Y0118696D02*
X0111365Y0118696D01*
X0110278Y0120294D02*
X0109200Y0120294D01*
X0109200Y0121893D02*
X0110000Y0121893D01*
X0110355Y0123491D02*
X0109200Y0123491D01*
X0094400Y0094718D02*
X0092422Y0094718D01*
X0093399Y0093120D02*
X0094400Y0093120D01*
X0081587Y0085127D02*
X0079200Y0085127D01*
X0079200Y0083529D02*
X0080370Y0083529D01*
X0080000Y0081930D02*
X0079200Y0081930D01*
X0079200Y0080332D02*
X0080262Y0080332D01*
X0079200Y0078733D02*
X0081327Y0078733D01*
X0063817Y0094718D02*
X0059500Y0094718D01*
X0059500Y0096317D02*
X0063219Y0096317D01*
X0063386Y0097915D02*
X0059500Y0097915D01*
X0069200Y0104309D02*
X0069226Y0104309D01*
X0041733Y0085127D02*
X0029413Y0085127D01*
X0031000Y0083529D02*
X0040134Y0083529D01*
X0038536Y0081930D02*
X0031000Y0081930D01*
X0031000Y0080332D02*
X0036937Y0080332D01*
X0035339Y0078733D02*
X0029673Y0078733D01*
X0026523Y0075536D02*
X0034400Y0075536D01*
X0034400Y0077134D02*
X0024924Y0077134D01*
X0021900Y0076764D02*
X0025381Y0073283D01*
X0025381Y0067886D01*
X0011800Y0054305D01*
X0011800Y0051800D01*
X0016482Y0064346D02*
X0018448Y0064346D01*
X0020046Y0065945D02*
X0015150Y0065945D01*
X0015298Y0067543D02*
X0021645Y0067543D01*
X0019394Y0069142D02*
X0016618Y0069142D01*
X0017201Y0070740D02*
X0018363Y0070740D01*
X0018219Y0072339D02*
X0017283Y0072339D01*
X0016884Y0073937D02*
X0018873Y0073937D01*
X0019811Y0075536D02*
X0015842Y0075536D01*
X0014386Y0077134D02*
X0019500Y0077134D01*
X0019500Y0078733D02*
X0016228Y0078733D01*
X0016928Y0080332D02*
X0019500Y0080332D01*
X0019500Y0081930D02*
X0017100Y0081930D01*
X0016821Y0083529D02*
X0019400Y0083529D01*
X0019400Y0085127D02*
X0015968Y0085127D01*
X0013758Y0086726D02*
X0019400Y0086726D01*
X0019400Y0088324D02*
X0015819Y0088324D01*
X0016759Y0089923D02*
X0019400Y0089923D01*
X0019400Y0091521D02*
X0017100Y0091521D01*
X0016990Y0093120D02*
X0019400Y0093120D01*
X0019400Y0094718D02*
X0016328Y0094718D01*
X0014745Y0096317D02*
X0019400Y0096317D01*
X0019400Y0097915D02*
X0015410Y0097915D01*
X0016590Y0099514D02*
X0019400Y0099514D01*
X0019400Y0101112D02*
X0017100Y0101112D01*
X0017100Y0102711D02*
X0019400Y0102711D01*
X0019400Y0104309D02*
X0016497Y0104309D01*
X0015188Y0105908D02*
X0019400Y0105908D01*
X0019400Y0107506D02*
X0015002Y0107506D01*
X0016420Y0109105D02*
X0019400Y0109105D01*
X0019400Y0110703D02*
X0017082Y0110703D01*
X0017100Y0112302D02*
X0019400Y0112302D01*
X0019400Y0113900D02*
X0016667Y0113900D01*
X0015597Y0115499D02*
X0019400Y0115499D01*
X0019400Y0117097D02*
X0014296Y0117097D01*
X0016191Y0118696D02*
X0019400Y0118696D01*
X0019400Y0120294D02*
X0016913Y0120294D01*
X0017100Y0121893D02*
X0019400Y0121893D01*
X0019400Y0123491D02*
X0016836Y0123491D01*
X0016005Y0125090D02*
X0019400Y0125090D01*
X0019400Y0126688D02*
X0013848Y0126688D01*
X0015782Y0128287D02*
X0019400Y0128287D01*
X0019400Y0129885D02*
X0016744Y0129885D01*
X0017100Y0131484D02*
X0019400Y0131484D01*
X0019400Y0133082D02*
X0017005Y0133082D01*
X0016343Y0134681D02*
X0018855Y0134681D01*
X0018219Y0136279D02*
X0014816Y0136279D01*
X0015373Y0137878D02*
X0018370Y0137878D01*
X0019412Y0139476D02*
X0016574Y0139476D01*
X0021800Y0136800D02*
X0021800Y0082689D01*
X0021900Y0082589D01*
X0021900Y0076764D01*
X0027708Y0073937D02*
X0034400Y0073937D01*
X0034400Y0072339D02*
X0027781Y0072339D01*
X0027781Y0070740D02*
X0034400Y0070740D01*
X0033202Y0069142D02*
X0027781Y0069142D01*
X0027781Y0067543D02*
X0032600Y0067543D01*
X0032600Y0065945D02*
X0026834Y0065945D01*
X0025236Y0064346D02*
X0033314Y0064346D01*
X0036800Y0091800D02*
X0031800Y0096800D01*
X0031800Y0156800D01*
X0035838Y0160257D02*
X0037513Y0160257D01*
X0041600Y0155462D02*
X0042000Y0155462D01*
X0042000Y0153863D02*
X0041600Y0153863D01*
X0041600Y0152265D02*
X0042000Y0152265D01*
X0038685Y0152265D02*
X0034700Y0152265D01*
X0036320Y0153863D02*
X0037135Y0153863D01*
X0067759Y0184235D02*
X0094170Y0184235D01*
X0093270Y0182636D02*
X0069358Y0182636D01*
X0070956Y0181038D02*
X0093240Y0181038D01*
X0094096Y0179439D02*
X0072555Y0179439D01*
X0073159Y0178835D02*
X0073159Y0178835D01*
X0073967Y0177841D02*
X0094400Y0177841D01*
X0094400Y0176242D02*
X0074200Y0176242D01*
X0074200Y0174644D02*
X0081104Y0174644D01*
X0080639Y0174179D02*
X0080000Y0172635D01*
X0080000Y0170965D01*
X0080639Y0169421D01*
X0081821Y0168239D01*
X0083365Y0167600D01*
X0090235Y0167600D01*
X0091779Y0168239D01*
X0092961Y0169421D01*
X0093600Y0170965D01*
X0093600Y0172635D01*
X0092961Y0174179D01*
X0091779Y0175361D01*
X0090235Y0176000D01*
X0083365Y0176000D01*
X0081821Y0175361D01*
X0080639Y0174179D01*
X0080170Y0173045D02*
X0074200Y0173045D01*
X0074200Y0171447D02*
X0080000Y0171447D01*
X0080462Y0169848D02*
X0074200Y0169848D01*
X0074200Y0168250D02*
X0081811Y0168250D01*
X0091789Y0168250D02*
X0094400Y0168250D01*
X0094400Y0169848D02*
X0093138Y0169848D01*
X0093600Y0171447D02*
X0094400Y0171447D01*
X0094400Y0173045D02*
X0093430Y0173045D01*
X0092496Y0174644D02*
X0094400Y0174644D01*
X0096035Y0193826D02*
X0198850Y0193826D01*
X0198850Y0195424D02*
X0096923Y0195424D01*
X0097117Y0197023D02*
X0198850Y0197023D01*
X0198850Y0198621D02*
X0096739Y0198621D01*
X0089061Y0193826D02*
X0087604Y0193826D01*
X0081744Y0193826D02*
X0079730Y0193826D01*
X0073870Y0193826D02*
X0071856Y0193826D01*
X0065996Y0193826D02*
X0064539Y0193826D01*
X0172555Y0179439D02*
X0198850Y0179439D01*
X0198850Y0177841D02*
X0174153Y0177841D01*
X0175752Y0176242D02*
X0198850Y0176242D01*
X0198850Y0174644D02*
X0177350Y0174644D01*
X0178949Y0173045D02*
X0198850Y0173045D01*
X0198850Y0171447D02*
X0180547Y0171447D01*
X0182146Y0169848D02*
X0198850Y0169848D01*
X0198850Y0168250D02*
X0183744Y0168250D01*
X0185343Y0166651D02*
X0198850Y0166651D01*
X0198850Y0165053D02*
X0186941Y0165053D01*
X0188540Y0163454D02*
X0198850Y0163454D01*
X0198850Y0161856D02*
X0189200Y0161856D01*
X0189200Y0160257D02*
X0198850Y0160257D01*
X0198850Y0158659D02*
X0189200Y0158659D01*
X0189200Y0157060D02*
X0198850Y0157060D01*
X0198850Y0155462D02*
X0189200Y0155462D01*
X0189200Y0153863D02*
X0198850Y0153863D01*
X0198850Y0152265D02*
X0189200Y0152265D01*
X0189200Y0150666D02*
X0198850Y0150666D01*
X0198850Y0149068D02*
X0189200Y0149068D01*
X0198600Y0070740D02*
X0198850Y0070740D01*
X0198850Y0069142D02*
X0198600Y0069142D01*
X0198600Y0067543D02*
X0198850Y0067543D01*
X0198850Y0065945D02*
X0194339Y0065945D01*
X0192741Y0064346D02*
X0198850Y0064346D01*
X0198850Y0062748D02*
X0191142Y0062748D01*
X0189543Y0061149D02*
X0198850Y0061149D01*
X0198850Y0059551D02*
X0187945Y0059551D01*
X0186346Y0057952D02*
X0198850Y0057952D01*
X0198850Y0056354D02*
X0184748Y0056354D01*
X0183149Y0054755D02*
X0198850Y0054755D01*
X0198850Y0053157D02*
X0181551Y0053157D01*
X0159400Y0051558D02*
X0144200Y0051558D01*
X0144977Y0051200D02*
X0142400Y0048623D01*
X0142400Y0046800D01*
X0146800Y0046800D01*
X0151200Y0046800D01*
X0151200Y0048623D01*
X0148623Y0051200D01*
X0146800Y0051200D01*
X0146800Y0046800D01*
X0146800Y0046800D01*
X0146800Y0046800D01*
X0151200Y0046800D01*
X0151200Y0044977D01*
X0148623Y0042400D01*
X0146800Y0042400D01*
X0146800Y0046800D01*
X0146800Y0046800D01*
X0146800Y0046800D01*
X0146800Y0051200D01*
X0144977Y0051200D01*
X0143737Y0049960D02*
X0143354Y0049960D01*
X0142400Y0048361D02*
X0141755Y0048361D01*
X0142400Y0046800D02*
X0142400Y0044977D01*
X0144977Y0042400D01*
X0146800Y0042400D01*
X0146800Y0046800D01*
X0142400Y0046800D01*
X0142400Y0046763D02*
X0141000Y0046763D01*
X0141000Y0045164D02*
X0142400Y0045164D01*
X0143812Y0043566D02*
X0139505Y0043566D01*
X0146800Y0043566D02*
X0146800Y0043566D01*
X0146800Y0045164D02*
X0146800Y0045164D01*
X0146800Y0046763D02*
X0146800Y0046763D01*
X0146800Y0048361D02*
X0146800Y0048361D01*
X0146800Y0049960D02*
X0146800Y0049960D01*
X0149863Y0049960D02*
X0159400Y0049960D01*
X0159400Y0048361D02*
X0151200Y0048361D01*
X0151200Y0046763D02*
X0159400Y0046763D01*
X0159400Y0045164D02*
X0151200Y0045164D01*
X0149788Y0043566D02*
X0159400Y0043566D01*
X0159400Y0041967D02*
X0129200Y0041967D01*
X0129200Y0040369D02*
X0159400Y0040369D01*
X0159400Y0038770D02*
X0129200Y0038770D01*
X0129200Y0037172D02*
X0159400Y0037172D01*
X0159400Y0035573D02*
X0129200Y0035573D01*
X0129200Y0033975D02*
X0159400Y0033975D01*
X0159400Y0032376D02*
X0129200Y0032376D01*
X0129200Y0030778D02*
X0159400Y0030778D01*
X0159400Y0029179D02*
X0129200Y0029179D01*
X0129200Y0027581D02*
X0159400Y0027581D01*
X0134760Y0025982D02*
X0129200Y0025982D01*
X0129200Y0024384D02*
X0133161Y0024384D01*
X0132400Y0022785D02*
X0129200Y0022785D01*
X0129200Y0021187D02*
X0132400Y0021187D01*
X0132789Y0019588D02*
X0129200Y0019588D01*
X0130183Y0017990D02*
X0134388Y0017990D01*
X0130381Y0016391D02*
X0198850Y0016391D01*
X0198850Y0014793D02*
X0129845Y0014793D01*
X0110385Y0043566D02*
X0108428Y0043566D01*
X0106830Y0045164D02*
X0111625Y0045164D01*
X0123184Y0049960D02*
X0124400Y0049960D01*
X0124400Y0051558D02*
X0123600Y0051558D01*
X0123384Y0053157D02*
X0124400Y0053157D01*
X0124400Y0054755D02*
X0122384Y0054755D01*
X0094400Y0045164D02*
X0091975Y0045164D01*
X0093215Y0043566D02*
X0094400Y0043566D01*
X0094400Y0041967D02*
X0093600Y0041967D01*
X0093353Y0040369D02*
X0094400Y0040369D01*
X0094400Y0038770D02*
X0092310Y0038770D01*
X0092000Y0021187D02*
X0091600Y0021187D01*
X0091600Y0019588D02*
X0092000Y0019588D01*
X0092000Y0017990D02*
X0091600Y0017990D01*
X0011600Y0013194D02*
X0198850Y0013194D01*
D19*
X0131800Y0076800D03*
X0141800Y0106800D03*
X0126800Y0111800D03*
X0106800Y0116800D03*
X0076800Y0131800D03*
X0076800Y0146800D03*
X0061800Y0141800D03*
X0061800Y0156800D03*
X0056209Y0162989D03*
X0021800Y0136800D03*
X0036800Y0091800D03*
X0046800Y0086800D03*
X0066800Y0096800D03*
X0071800Y0106800D03*
X0066800Y0061800D03*
X0076800Y0046800D03*
X0061800Y0036800D03*
X0021800Y0071800D03*
X0101800Y0046800D03*
X0126800Y0016800D03*
X0161800Y0086800D03*
X0181800Y0101800D03*
X0106800Y0161800D03*
X0096800Y0181800D03*
M02*
