G75*
%MOIN*%
%OFA0B0*%
%FSLAX25Y25*%
%IPPOS*%
%LPD*%
%AMOC8*
5,1,8,0,0,1.08239X$1,22.5*
%
%ADD10C,0.00000*%
%ADD11OC8,0.05200*%
%ADD12C,0.05200*%
%ADD13C,0.05150*%
%ADD14C,0.11220*%
%ADD15C,0.05200*%
%ADD16C,0.05937*%
%ADD17C,0.07400*%
%ADD18C,0.01600*%
%ADD19C,0.03962*%
D10*
X0006800Y0006800D02*
X0006800Y0203650D01*
X0203650Y0203650D01*
X0203650Y0006800D01*
X0006800Y0006800D01*
D11*
X0026800Y0051800D03*
X0036800Y0066800D03*
X0046800Y0066800D03*
X0026800Y0081800D03*
X0066800Y0081800D03*
X0066800Y0051800D03*
X0136800Y0046800D03*
X0146800Y0046800D03*
X0136800Y0021800D03*
X0171800Y0046800D03*
X0181800Y0046800D03*
X0186800Y0021800D03*
X0176800Y0071800D03*
X0166800Y0071800D03*
X0151800Y0071800D03*
X0141800Y0071800D03*
X0141800Y0096800D03*
X0151800Y0096800D03*
X0136800Y0111800D03*
X0136800Y0126800D03*
X0176800Y0126800D03*
X0176800Y0111800D03*
X0151800Y0171800D03*
X0146800Y0179300D03*
X0141800Y0171800D03*
D12*
X0116800Y0021800D03*
X0166800Y0021800D03*
D13*
X0036879Y0175501D03*
X0032154Y0178650D03*
X0036879Y0181800D03*
X0032154Y0184950D03*
X0036879Y0188099D03*
X0068926Y0196800D03*
X0076800Y0196800D03*
X0084674Y0196800D03*
D14*
X0016800Y0196170D03*
X0016800Y0167430D03*
D15*
X0084200Y0171800D02*
X0089400Y0171800D01*
X0089400Y0161800D02*
X0084200Y0161800D01*
X0084200Y0151800D02*
X0089400Y0151800D01*
X0089400Y0141800D02*
X0084200Y0141800D01*
X0084200Y0131800D02*
X0089400Y0131800D01*
X0089400Y0121800D02*
X0084200Y0121800D01*
X0084200Y0111800D02*
X0089400Y0111800D01*
X0089400Y0101800D02*
X0084200Y0101800D01*
X0084200Y0091800D02*
X0089400Y0091800D01*
X0089400Y0081800D02*
X0084200Y0081800D01*
X0084200Y0071800D02*
X0089400Y0071800D01*
X0089400Y0061800D02*
X0084200Y0061800D01*
X0084200Y0051800D02*
X0089400Y0051800D01*
X0089400Y0041800D02*
X0084200Y0041800D01*
X0114200Y0041800D02*
X0119400Y0041800D01*
X0119400Y0051800D02*
X0114200Y0051800D01*
X0114200Y0061800D02*
X0119400Y0061800D01*
X0119400Y0071800D02*
X0114200Y0071800D01*
X0114200Y0081800D02*
X0119400Y0081800D01*
X0119400Y0091800D02*
X0114200Y0091800D01*
X0114200Y0101800D02*
X0119400Y0101800D01*
X0119400Y0111800D02*
X0114200Y0111800D01*
X0114200Y0121800D02*
X0119400Y0121800D01*
X0119400Y0131800D02*
X0114200Y0131800D01*
X0114200Y0141800D02*
X0119400Y0141800D01*
X0119400Y0151800D02*
X0114200Y0151800D01*
X0114200Y0161800D02*
X0119400Y0161800D01*
X0119400Y0171800D02*
X0114200Y0171800D01*
D16*
X0092548Y0196800D03*
X0061052Y0196800D03*
D17*
X0051800Y0156800D03*
X0041800Y0156800D03*
X0031800Y0156800D03*
X0011800Y0141800D03*
X0011800Y0131800D03*
X0011800Y0121800D03*
X0011800Y0111800D03*
X0011800Y0101800D03*
X0011800Y0091800D03*
X0011800Y0081800D03*
X0011800Y0071800D03*
X0011800Y0061800D03*
X0011800Y0051800D03*
X0011800Y0041800D03*
X0011800Y0031800D03*
X0011800Y0021800D03*
X0031800Y0021800D03*
X0051800Y0021800D03*
X0071800Y0021800D03*
X0091800Y0021800D03*
X0198800Y0071800D03*
X0198800Y0081800D03*
X0198800Y0091800D03*
X0198800Y0101800D03*
X0198800Y0111800D03*
X0198800Y0121800D03*
X0198800Y0131800D03*
X0198800Y0141800D03*
D18*
X0188800Y0151800D01*
X0116800Y0151800D01*
X0116800Y0141800D02*
X0188800Y0141800D01*
X0198800Y0131800D01*
X0188800Y0131800D02*
X0198800Y0121800D01*
X0198800Y0111800D02*
X0193800Y0106800D01*
X0141800Y0106800D01*
X0146800Y0101800D02*
X0141800Y0096800D01*
X0126800Y0111800D01*
X0131800Y0116800D02*
X0136800Y0111800D01*
X0131800Y0116800D02*
X0106800Y0116800D01*
X0111800Y0106800D02*
X0116800Y0111800D01*
X0111800Y0106800D02*
X0071800Y0106800D01*
X0066800Y0096800D02*
X0111800Y0096800D01*
X0116800Y0101800D01*
X0116800Y0091800D02*
X0156800Y0091800D01*
X0161800Y0086800D01*
X0171000Y0074000D02*
X0171000Y0070060D01*
X0162740Y0061800D01*
X0116800Y0061800D01*
X0112460Y0066000D02*
X0161000Y0066000D01*
X0166800Y0071800D01*
X0171000Y0074000D02*
X0198800Y0101800D01*
X0198800Y0091800D02*
X0191800Y0084800D01*
X0191800Y0076800D01*
X0166800Y0051800D01*
X0116800Y0051800D01*
X0108260Y0061800D02*
X0112460Y0066000D01*
X0108260Y0061800D02*
X0086800Y0061800D01*
X0076800Y0071800D01*
X0021800Y0071800D01*
X0019500Y0074100D01*
X0019500Y0081595D01*
X0011800Y0089295D01*
X0011800Y0091800D01*
X0011800Y0081800D02*
X0011800Y0079295D01*
X0017100Y0073995D01*
X0017100Y0069605D01*
X0011800Y0064305D01*
X0011800Y0061800D01*
X0031800Y0061800D01*
X0036800Y0066800D01*
X0046800Y0066800D02*
X0051800Y0066800D01*
X0066800Y0051800D01*
X0066800Y0061800D02*
X0076800Y0061800D01*
X0086800Y0051800D01*
X0116800Y0021800D01*
X0124900Y0016500D02*
X0125200Y0016800D01*
X0126800Y0016800D01*
X0124900Y0016500D02*
X0049605Y0016500D01*
X0044305Y0021800D01*
X0031800Y0021800D01*
X0021800Y0031800D01*
X0011800Y0031800D01*
X0011800Y0041800D02*
X0071800Y0041800D01*
X0076800Y0046800D01*
X0081800Y0036800D02*
X0086800Y0041800D01*
X0081800Y0036800D02*
X0061800Y0036800D01*
X0086800Y0071800D02*
X0081000Y0077600D01*
X0065060Y0077600D01*
X0060860Y0081800D01*
X0026800Y0081800D01*
X0026800Y0096800D01*
X0021800Y0101800D01*
X0011800Y0101800D01*
X0011800Y0111800D02*
X0086800Y0111800D01*
X0086800Y0121800D02*
X0011800Y0121800D01*
X0011800Y0131800D02*
X0076800Y0131800D01*
X0081800Y0136800D02*
X0086800Y0141800D01*
X0081800Y0146800D02*
X0086800Y0151800D01*
X0081800Y0146800D02*
X0076800Y0146800D01*
X0081800Y0136800D02*
X0021800Y0136800D01*
X0011800Y0141800D02*
X0061800Y0141800D01*
X0061800Y0156800D02*
X0081800Y0156800D01*
X0086800Y0161800D01*
X0086800Y0171800D02*
X0096800Y0171800D01*
X0106800Y0161800D01*
X0116800Y0171800D02*
X0135860Y0171800D01*
X0140060Y0176000D01*
X0143540Y0176000D01*
X0147740Y0171800D01*
X0151800Y0171800D01*
X0146800Y0179300D02*
X0133869Y0192231D01*
X0090656Y0192231D01*
X0086087Y0196800D01*
X0084674Y0196800D01*
X0076800Y0196800D02*
X0068099Y0188099D01*
X0036879Y0188099D01*
X0032154Y0178650D02*
X0032154Y0171446D01*
X0036800Y0166800D01*
X0052398Y0166800D01*
X0056209Y0162989D01*
X0061864Y0161800D02*
X0051800Y0156800D01*
X0061864Y0161800D02*
X0070381Y0170317D01*
X0070381Y0170381D01*
X0081800Y0181800D01*
X0096800Y0181800D01*
X0116800Y0131800D02*
X0188800Y0131800D01*
X0181800Y0101800D02*
X0146800Y0101800D01*
X0131800Y0076800D02*
X0126800Y0071800D01*
X0116800Y0071800D01*
X0101800Y0046800D02*
X0136800Y0046800D01*
X0116800Y0041800D02*
X0166800Y0041800D01*
X0171800Y0046800D01*
X0086800Y0091800D02*
X0036800Y0091800D01*
X0046800Y0086800D02*
X0061800Y0086800D01*
X0066800Y0081800D01*
D19*
X0066800Y0096800D03*
X0071800Y0106800D03*
X0076800Y0131800D03*
X0076800Y0146800D03*
X0061800Y0141800D03*
X0061800Y0156800D03*
X0056209Y0162989D03*
X0021800Y0136800D03*
X0036800Y0091800D03*
X0046800Y0086800D03*
X0021800Y0071800D03*
X0061800Y0036800D03*
X0076800Y0046800D03*
X0066800Y0061800D03*
X0101800Y0046800D03*
X0126800Y0016800D03*
X0131800Y0076800D03*
X0141800Y0106800D03*
X0126800Y0111800D03*
X0106800Y0116800D03*
X0106800Y0161800D03*
X0096800Y0181800D03*
X0181800Y0101800D03*
X0161800Y0086800D03*
M02*
