G75*
%MOIN*%
%OFA0B0*%
%FSLAX25Y25*%
%IPPOS*%
%LPD*%
%AMOC8*
5,1,8,0,0,1.08239X$1,22.5*
%
%ADD10C,0.00000*%
%ADD11OC8,0.06000*%
%ADD12C,0.06000*%
%ADD13C,0.05950*%
%ADD14C,0.12020*%
%ADD15C,0.06000*%
%ADD16C,0.06737*%
%ADD17C,0.08200*%
%ADD18C,0.04762*%
D10*
X0006800Y0006800D02*
X0006800Y0203650D01*
X0203650Y0203650D01*
X0203650Y0006800D01*
X0006800Y0006800D01*
D11*
X0026800Y0051800D03*
X0036800Y0066800D03*
X0046800Y0066800D03*
X0026800Y0081800D03*
X0066800Y0081800D03*
X0066800Y0051800D03*
X0136800Y0046800D03*
X0146800Y0046800D03*
X0136800Y0021800D03*
X0171800Y0046800D03*
X0181800Y0046800D03*
X0186800Y0021800D03*
X0176800Y0071800D03*
X0166800Y0071800D03*
X0151800Y0071800D03*
X0141800Y0071800D03*
X0141800Y0096800D03*
X0151800Y0096800D03*
X0136800Y0111800D03*
X0136800Y0126800D03*
X0176800Y0126800D03*
X0176800Y0111800D03*
X0151800Y0171800D03*
X0146800Y0179300D03*
X0141800Y0171800D03*
D12*
X0116800Y0021800D03*
X0166800Y0021800D03*
D13*
X0036879Y0175501D03*
X0032154Y0178650D03*
X0036879Y0181800D03*
X0032154Y0184950D03*
X0036879Y0188099D03*
X0068926Y0196800D03*
X0076800Y0196800D03*
X0084674Y0196800D03*
D14*
X0016800Y0196170D03*
X0016800Y0167430D03*
D15*
X0084200Y0171800D02*
X0089400Y0171800D01*
X0089400Y0161800D02*
X0084200Y0161800D01*
X0084200Y0151800D02*
X0089400Y0151800D01*
X0089400Y0141800D02*
X0084200Y0141800D01*
X0084200Y0131800D02*
X0089400Y0131800D01*
X0089400Y0121800D02*
X0084200Y0121800D01*
X0084200Y0111800D02*
X0089400Y0111800D01*
X0089400Y0101800D02*
X0084200Y0101800D01*
X0084200Y0091800D02*
X0089400Y0091800D01*
X0089400Y0081800D02*
X0084200Y0081800D01*
X0084200Y0071800D02*
X0089400Y0071800D01*
X0089400Y0061800D02*
X0084200Y0061800D01*
X0084200Y0051800D02*
X0089400Y0051800D01*
X0089400Y0041800D02*
X0084200Y0041800D01*
X0114200Y0041800D02*
X0119400Y0041800D01*
X0119400Y0051800D02*
X0114200Y0051800D01*
X0114200Y0061800D02*
X0119400Y0061800D01*
X0119400Y0071800D02*
X0114200Y0071800D01*
X0114200Y0081800D02*
X0119400Y0081800D01*
X0119400Y0091800D02*
X0114200Y0091800D01*
X0114200Y0101800D02*
X0119400Y0101800D01*
X0119400Y0111800D02*
X0114200Y0111800D01*
X0114200Y0121800D02*
X0119400Y0121800D01*
X0119400Y0131800D02*
X0114200Y0131800D01*
X0114200Y0141800D02*
X0119400Y0141800D01*
X0119400Y0151800D02*
X0114200Y0151800D01*
X0114200Y0161800D02*
X0119400Y0161800D01*
X0119400Y0171800D02*
X0114200Y0171800D01*
D16*
X0092548Y0196800D03*
X0061052Y0196800D03*
D17*
X0051800Y0156800D03*
X0041800Y0156800D03*
X0031800Y0156800D03*
X0011800Y0141800D03*
X0011800Y0131800D03*
X0011800Y0121800D03*
X0011800Y0111800D03*
X0011800Y0101800D03*
X0011800Y0091800D03*
X0011800Y0081800D03*
X0011800Y0071800D03*
X0011800Y0061800D03*
X0011800Y0051800D03*
X0011800Y0041800D03*
X0011800Y0031800D03*
X0011800Y0021800D03*
X0031800Y0021800D03*
X0051800Y0021800D03*
X0071800Y0021800D03*
X0091800Y0021800D03*
X0198800Y0071800D03*
X0198800Y0081800D03*
X0198800Y0091800D03*
X0198800Y0101800D03*
X0198800Y0111800D03*
X0198800Y0121800D03*
X0198800Y0131800D03*
X0198800Y0141800D03*
D18*
X0181800Y0101800D03*
X0161800Y0086800D03*
X0141800Y0106800D03*
X0126800Y0111800D03*
X0106800Y0116800D03*
X0076800Y0131800D03*
X0076800Y0146800D03*
X0061800Y0141800D03*
X0061800Y0156800D03*
X0056209Y0162989D03*
X0021800Y0136800D03*
X0036800Y0091800D03*
X0046800Y0086800D03*
X0066800Y0096800D03*
X0071800Y0106800D03*
X0066800Y0061800D03*
X0076800Y0046800D03*
X0061800Y0036800D03*
X0021800Y0071800D03*
X0101800Y0046800D03*
X0126800Y0016800D03*
X0131800Y0076800D03*
X0106800Y0161800D03*
X0096800Y0181800D03*
M02*
